<svg width="24" height="24" viewBox="0 0 24 24" fill="none" xmlns="http://www.w3.org/2000/svg">
<g clip-path="url(#clip0_334_13501)">
<circle cx="12" cy="12" r="11.75" transform="rotate(-90 12 12)" stroke="black" stroke-width="0.5"/>
<path fill-rule="evenodd" clip-rule="evenodd" d="M10.113 16.887C10.0772 16.8513 10.0488 16.8089 10.0294 16.7621C10.01 16.7154 10 16.6653 10 16.6147C10 16.5642 10.01 16.5141 10.0294 16.4673C10.0488 16.4206 10.0772 16.3782 10.113 16.3425L14.4563 11.9999L10.113 7.65733C10.0772 7.62158 10.0489 7.57913 10.0295 7.53241C10.0102 7.48569 10.0002 7.43562 10.0002 7.38506C10.0002 7.33449 10.0102 7.28442 10.0295 7.2377C10.0489 7.19098 10.0772 7.14854 10.113 7.11278C10.1487 7.07702 10.1912 7.04866 10.2379 7.02931C10.2846 7.00996 10.3347 7 10.3853 7C10.4358 7 10.4859 7.00996 10.5326 7.02931C10.5793 7.04866 10.6218 7.07702 10.6575 7.11278L15.2724 11.7276C15.3082 11.7633 15.3366 11.8058 15.356 11.8525C15.3754 11.8992 15.3854 11.9493 15.3854 11.9999C15.3854 12.0505 15.3754 12.1006 15.356 12.1473C15.3366 12.194 15.3082 12.2365 15.2724 12.2722L10.6575 16.887C10.6218 16.9228 10.5794 16.9512 10.5327 16.9706C10.4859 16.99 10.4358 17 10.3853 17C10.3347 17 10.2846 16.99 10.2379 16.9706C10.1911 16.9512 10.1487 16.9228 10.113 16.887Z" fill="black"/>
</g>
<defs>
<clipPath id="clip0_334_13501">
<rect width="24" height="24" fill="white" transform="matrix(0 -1 1 0 0 24)"/>
</clipPath>
</defs>
</svg>
