<svg width="25" height="24" viewBox="0 0 25 24" fill="none" xmlns="http://www.w3.org/2000/svg">
<g clip-path="url(#clip0_334_13493)">
<circle cx="12.3767" cy="12" r="11.75" stroke="black" stroke-width="0.5"/>
<path fill-rule="evenodd" clip-rule="evenodd" d="M7.48969 10.113C7.52541 10.0772 7.56785 10.0488 7.61457 10.0294C7.6613 10.01 7.71138 10 7.76197 10C7.81255 10 7.86264 10.01 7.90936 10.0294C7.95608 10.0488 7.99852 10.0772 8.03424 10.113L12.3768 14.4563L16.7194 10.113C16.7551 10.0772 16.7976 10.0489 16.8443 10.0295C16.891 10.0102 16.9411 10.0002 16.9917 10.0002C17.0422 10.0002 17.0923 10.0102 17.139 10.0295C17.1857 10.0489 17.2282 10.0772 17.2639 10.113C17.2997 10.1487 17.328 10.1912 17.3474 10.2379C17.3667 10.2846 17.3767 10.3347 17.3767 10.3853C17.3767 10.4358 17.3667 10.4859 17.3474 10.5326C17.328 10.5793 17.2997 10.6218 17.2639 10.6575L12.6491 15.2724C12.6134 15.3082 12.5709 15.3366 12.5242 15.356C12.4775 15.3754 12.4274 15.3854 12.3768 15.3854C12.3262 15.3854 12.2761 15.3754 12.2294 15.356C12.1827 15.3366 12.1403 15.3082 12.1045 15.2724L7.48969 10.6575C7.45388 10.6218 7.42546 10.5794 7.40608 10.5327C7.38669 10.4859 7.37671 10.4358 7.37671 10.3853C7.37671 10.3347 7.38669 10.2846 7.40608 10.2379C7.42546 10.1911 7.45388 10.1487 7.48969 10.113Z" fill="black"/>
</g>
<defs>
<clipPath id="clip0_334_13493">
<rect width="24" height="24" fill="white" transform="translate(0.376709)"/>
</clipPath>
</defs>
</svg>
