<?xml version="1.0" encoding="UTF-8" standalone="no"?>
<svg
   width="41"
   height="40"
   fill="currentColor"
   class="bi bi-hand-index"
   viewBox="0 0 41 40"
   version="1.1"
   id="svg1"
   sodipodi:docname="icone_clique.svg"
   inkscape:version="1.3.2 (091e20e, 2023-11-25, custom)"
   xmlns:inkscape="http://www.inkscape.org/namespaces/inkscape"
   xmlns:sodipodi="http://sodipodi.sourceforge.net/DTD/sodipodi-0.dtd"
   xmlns="http://www.w3.org/2000/svg"
   xmlns:svg="http://www.w3.org/2000/svg">
  <defs
     id="defs1" />
  <sodipodi:namedview
     id="namedview1"
     pagecolor="#ffffff"
     bordercolor="#000000"
     borderopacity="0.25"
     inkscape:showpageshadow="2"
     inkscape:pageopacity="0.0"
     inkscape:pagecheckerboard="0"
     inkscape:deskcolor="#d1d1d1"
     inkscape:zoom="16.528621"
     inkscape:cx="17.000813"
     inkscape:cy="20.298124"
     inkscape:window-width="1920"
     inkscape:window-height="1009"
     inkscape:window-x="-8"
     inkscape:window-y="-8"
     inkscape:window-maximized="1"
     inkscape:current-layer="svg1" />
  <path
     d="m 25.344722,6.8764658 a 1.472025,1.4061777 0 0 0 -1.472025,1.406177 V 20.000791 a 0.98135015,0.93745202 0 0 1 -1.9627,0 V 15.25166 l -0.168793,-0.0075 c -0.622175,-0.0225 -1.250239,-0.015 -1.601562,0.05062 -0.263002,0.05062 -0.577034,0.179989 -0.87929,0.341234 -0.151117,0.07874 -0.294404,0.27561 -0.294404,0.588719 v 3.776055 a 0.9813512,0.93745306 0 1 1 -1.962702,0 v -2.934239 l -0.208043,-0.01877 c -0.62022,-0.045 -1.146223,-0.01877 -1.389596,0.075 -0.231594,0.08625 -0.588802,0.388103 -0.953867,0.806208 -0.158966,0.17999 -0.294411,0.356233 -0.39254,0.485599 v 2.523621 a 0.98135106,0.93745293 0 0 1 -1.962702,0 v -1.87488 H 11.42525 a 1.9626997,1.8749039 0 0 0 -1.9528846,2.062394 l 0.5318946,5.090371 a 4.90675,4.6872595 0 0 0 0.622177,1.858021 l 2.737965,4.578514 a 0.98134999,0.93745186 0 0 0 0.851815,0.472479 h 12.531836 a 0.98134999,0.93745186 0 0 0 0.816483,-0.418094 l 2.812549,-4.031042 a 2.9440502,2.812356 0 0 0 0.476937,-1.248688 l 0.67713,-5.821573 a 0.98134999,0.93745186 0 0 0 -0.783117,-1.023698 l -1.968588,-0.374982 v 1.668666 a 0.98135023,0.9374521 0 0 1 -1.9627,0 V 8.2826428 A 1.472025,1.4061777 0 0 0 25.344722,6.8764658 M 21.909997,13.374881 V 8.2826428 a 3.4347254,3.2810813 0 1 1 6.86945,0 V 18.294629 l 2.35524,0.449975 a 2.9440502,2.812356 0 0 1 2.347389,3.067343 l -0.677132,5.823457 A 4.90675,4.6872595 0 0 1 32.01005,29.71654 l -2.812548,4.031049 a 2.9440502,2.812356 0 0 1 -2.449449,1.252433 H 14.216217 a 2.9440502,2.812356 0 0 1 -2.55544,-1.417426 L 8.9228094,29.005953 A 6.8694497,6.5621634 0 0 1 8.0513745,26.401714 L 7.5194795,21.311349 A 3.9254003,3.7498072 0 0 1 11.42525,17.188437 h 1.140331 a 9.8134999,9.3745186 0 0 1 0.382726,-0.464978 c 0.374879,-0.429355 1.000979,-1.064943 1.727176,-1.342429 0.714426,-0.27374 1.660441,-0.24749 2.272813,-0.202493 l 0.259071,0.0225 a 2.4730015,2.3623791 0 0 1 1.09911,-1.203688 5.1030202,4.8747499 0 0 1 1.448475,-0.539972 c 0.608437,-0.116244 1.450436,-0.108744 2.060835,-0.08625 z m -4.109892,3.796682"
     id="path1"
     style="stroke-width:1.91831" />
</svg>
