<svg width="210" height="18" viewBox="0 0 210 18" fill="none" xmlns="http://www.w3.org/2000/svg">
<path d="M5.216 0.699999H8.312C9.032 0.699999 9.736 0.779999 10.424 0.939999C11.112 1.1 11.72 1.356 12.248 1.708C12.792 2.06 13.224 2.524 13.544 3.1C13.864 3.676 14.024 4.388 14.024 5.236C14.024 5.908 13.88 6.58 13.592 7.252C13.32 7.908 12.896 8.476 12.32 8.956C11.744 9.42 11 9.7 10.088 9.796C10.6 9.956 11.064 10.244 11.48 10.66C11.912 11.076 12.264 11.492 12.536 11.908C12.552 11.94 12.64 12.084 12.8 12.34C12.976 12.596 13.184 12.916 13.424 13.3C13.68 13.668 13.944 14.044 14.216 14.428C14.488 14.812 14.736 15.148 14.96 15.436C15.312 15.868 15.632 16.22 15.92 16.492C16.208 16.748 16.512 16.94 16.832 17.068C17.152 17.18 17.52 17.244 17.936 17.26V17.5H15.584C14.72 17.5 13.936 17.428 13.232 17.284C12.528 17.124 11.904 16.86 11.36 16.492C10.816 16.124 10.344 15.628 9.944 15.004C9.816 14.812 9.672 14.572 9.512 14.284C9.368 13.98 9.216 13.66 9.056 13.324C8.896 12.988 8.736 12.668 8.576 12.364C8.432 12.044 8.304 11.756 8.192 11.5C8.08 11.244 8 11.044 7.952 10.9C7.744 10.388 7.496 10.004 7.208 9.748C6.936 9.492 6.64 9.34 6.32 9.292V9.052C6.368 9.052 6.464 9.052 6.608 9.052C6.752 9.052 6.904 9.052 7.064 9.052C7.496 9.052 7.912 8.964 8.312 8.788C8.728 8.612 9.096 8.324 9.416 7.924C9.736 7.524 9.96 6.972 10.088 6.268C10.12 6.124 10.144 5.956 10.16 5.764C10.192 5.572 10.2 5.356 10.184 5.116C10.136 3.964 9.848 3.124 9.32 2.596C8.792 2.052 8.136 1.772 7.352 1.756C7.128 1.74 6.88 1.74 6.608 1.756C6.352 1.756 6.112 1.756 5.888 1.756C5.68 1.756 5.536 1.756 5.456 1.756C5.456 1.74 5.432 1.652 5.384 1.492C5.352 1.316 5.312 1.14 5.264 0.964C5.232 0.787999 5.216 0.699999 5.216 0.699999ZM5.528 0.699999V17.5H1.928V0.699999H5.528ZM2 15.748V17.5H0.08V17.26C0.0960001 17.26 0.144 17.26 0.224 17.26C0.32 17.26 0.376 17.26 0.392 17.26C0.808 17.26 1.16 17.116 1.448 16.828C1.752 16.524 1.912 16.164 1.928 15.748H2ZM2 2.452H1.928C1.912 2.036 1.752 1.684 1.448 1.396C1.16 1.092 0.808 0.939999 0.392 0.939999C0.376 0.939999 0.32 0.939999 0.224 0.939999C0.144 0.939999 0.0960001 0.939999 0.08 0.939999V0.699999H2V2.452ZM5.456 15.748H5.528C5.528 16.164 5.68 16.524 5.984 16.828C6.288 17.116 6.648 17.26 7.064 17.26C7.096 17.26 7.152 17.26 7.232 17.26C7.312 17.26 7.352 17.26 7.352 17.26V17.5H5.456V15.748ZM22.5284 3.1V17.5H19.0724V3.1H22.5284ZM28.1444 16.54L28.6964 17.5H22.4804V16.54H28.1444ZM27.3284 9.892V10.852H22.4804V9.892H27.3284ZM28.4084 3.1V4.06H22.4804V3.1H28.4084ZM29.6804 13.084L28.7684 17.5H24.6164L25.3604 16.54C26.0484 16.54 26.6564 16.404 27.1844 16.132C27.7284 15.844 28.1924 15.444 28.5764 14.932C28.9604 14.404 29.2564 13.788 29.4644 13.084H29.6804ZM27.3284 10.804V12.916H27.0884V12.724C27.0884 12.196 26.9204 11.756 26.5844 11.404C26.2644 11.052 25.8244 10.868 25.2644 10.852V10.804H27.3284ZM27.3284 7.828V9.94H25.2644V9.892C25.8244 9.876 26.2644 9.692 26.5844 9.34C26.9204 8.972 27.0884 8.524 27.0884 7.996V7.828H27.3284ZM28.4084 4.012V6.556H28.1684V6.34C28.1684 5.636 27.9764 5.084 27.5924 4.684C27.2244 4.284 26.6884 4.076 25.9844 4.06V4.012H28.4084ZM28.4084 2.74V3.316L25.8884 3.1C26.3524 3.1 26.8404 3.06 27.3524 2.98C27.8644 2.884 28.2164 2.804 28.4084 2.74ZM19.1204 15.988L19.2404 17.5H17.4644V17.26C17.4644 17.26 17.5124 17.26 17.6084 17.26C17.7044 17.26 17.7604 17.26 17.7764 17.26C18.1284 17.26 18.4244 17.14 18.6644 16.9C18.9204 16.644 19.0564 16.34 19.0724 15.988H19.1204ZM19.1204 4.612H19.0724C19.0564 4.244 18.9204 3.94 18.6644 3.7C18.4244 3.46 18.1284 3.34 17.7764 3.34C17.7604 3.34 17.7044 3.34 17.6084 3.34C17.5124 3.34 17.4644 3.34 17.4644 3.34V3.1H19.2404L19.1204 4.612ZM39.0056 3.1C40.7176 3.1 42.1896 3.388 43.4216 3.964C44.6536 4.524 45.5976 5.348 46.2536 6.436C46.9096 7.508 47.2376 8.796 47.2376 10.3C47.2376 11.804 46.9096 13.092 46.2536 14.164C45.5976 15.236 44.6536 16.06 43.4216 16.636C42.1896 17.212 40.7176 17.5 39.0056 17.5H33.6776L33.6296 16.54C34.8456 16.54 35.8216 16.54 36.5576 16.54C37.3096 16.54 37.8536 16.54 38.1896 16.54C38.5416 16.54 38.7176 16.54 38.7176 16.54C40.2216 16.54 41.4056 15.988 42.2696 14.884C43.1336 13.78 43.5656 12.252 43.5656 10.3C43.5656 8.348 43.1336 6.82 42.2696 5.716C41.4056 4.596 40.2216 4.036 38.7176 4.036C38.7176 4.036 38.5416 4.036 38.1896 4.036C37.8376 4.036 37.2696 4.036 36.4856 4.036C35.7016 4.036 34.6696 4.036 33.3896 4.036V3.1H39.0056ZM36.0056 3.1V17.5H32.5496V3.1H36.0056ZM32.6216 15.964V17.5H30.8936V17.26C30.8936 17.26 30.9416 17.26 31.0376 17.26C31.1336 17.26 31.1896 17.26 31.2056 17.26C31.5736 17.26 31.8856 17.132 32.1416 16.876C32.4136 16.62 32.5496 16.316 32.5496 15.964H32.6216ZM32.5976 4.612H32.5496C32.5336 4.244 32.3896 3.94 32.1176 3.7C31.8616 3.46 31.5496 3.34 31.1816 3.34C31.1816 3.34 31.1336 3.34 31.0376 3.34C30.9416 3.34 30.8936 3.34 30.8936 3.34V3.1H32.5976V4.612ZM53.6534 3.1V17.5H50.1974V3.1H53.6534ZM59.2694 16.54L59.8214 17.5H53.6054V16.54H59.2694ZM58.4534 9.892V10.852H53.6054V9.892H58.4534ZM59.5334 3.1V4.06H53.6054V3.1H59.5334ZM60.8054 13.084L59.8934 17.5H55.7414L56.4854 16.54C57.1734 16.54 57.7814 16.404 58.3094 16.132C58.8534 15.844 59.3174 15.444 59.7014 14.932C60.0854 14.404 60.3814 13.788 60.5894 13.084H60.8054ZM58.4534 10.804V12.916H58.2134V12.724C58.2134 12.196 58.0454 11.756 57.7094 11.404C57.3894 11.052 56.9494 10.868 56.3894 10.852V10.804H58.4534ZM58.4534 7.828V9.94H56.3894V9.892C56.9494 9.876 57.3894 9.692 57.7094 9.34C58.0454 8.972 58.2134 8.524 58.2134 7.996V7.828H58.4534ZM59.5334 4.012V6.556H59.2934V6.34C59.2934 5.636 59.1014 5.084 58.7174 4.684C58.3494 4.284 57.8134 4.076 57.1094 4.06V4.012H59.5334ZM59.5334 2.74V3.316L57.0134 3.1C57.4774 3.1 57.9654 3.06 58.4774 2.98C58.9894 2.884 59.3414 2.804 59.5334 2.74ZM50.2454 15.988L50.3654 17.5H48.5894V17.26C48.5894 17.26 48.6374 17.26 48.7334 17.26C48.8294 17.26 48.8854 17.26 48.9014 17.26C49.2534 17.26 49.5494 17.14 49.7894 16.9C50.0454 16.644 50.1814 16.34 50.1974 15.988H50.2454ZM50.2454 4.612H50.1974C50.1814 4.244 50.0454 3.94 49.7894 3.7C49.5494 3.46 49.2534 3.34 48.9014 3.34C48.8854 3.34 48.8294 3.34 48.7334 3.34C48.6374 3.34 48.5894 3.34 48.5894 3.34V3.1H50.3654L50.2454 4.612ZM67.1066 3.1V17.5H63.6506V3.1H67.1066ZM71.9306 9.892V10.852H67.0586V9.892H71.9306ZM73.0346 3.1V4.06H67.0586V3.1H73.0346ZM71.9306 10.804V12.916H71.6906V12.724C71.6906 12.196 71.5226 11.756 71.1866 11.404C70.8666 11.052 70.4186 10.868 69.8426 10.852V10.804H71.9306ZM71.9306 7.828V9.94H69.8426V9.892C70.4186 9.876 70.8666 9.692 71.1866 9.34C71.5226 8.972 71.6906 8.524 71.6906 7.996V7.828H71.9306ZM73.0346 3.988V6.58H72.7706V6.34C72.7706 5.652 72.5786 5.108 72.1946 4.708C71.8266 4.292 71.2826 4.076 70.5626 4.06V3.988H73.0346ZM73.0346 2.74V3.316L70.4906 3.1C70.7946 3.1 71.1146 3.084 71.4506 3.052C71.8026 3.004 72.1226 2.956 72.4106 2.908C72.6986 2.844 72.9066 2.788 73.0346 2.74ZM63.7226 15.988L63.8186 17.5H62.0426V17.26C62.0426 17.26 62.0906 17.26 62.1866 17.26C62.2826 17.26 62.3386 17.26 62.3546 17.26C62.7066 17.26 63.0106 17.14 63.2666 16.9C63.5226 16.644 63.6506 16.34 63.6506 15.988H63.7226ZM63.7226 4.612H63.6506C63.6506 4.244 63.5226 3.94 63.2666 3.7C63.0106 3.46 62.7066 3.34 62.3546 3.34C62.3386 3.34 62.2826 3.34 62.1866 3.34C62.0906 3.34 62.0426 3.34 62.0426 3.34V3.1H63.8186L63.7226 4.612ZM67.0586 15.988H67.1066C67.1226 16.34 67.2506 16.644 67.4906 16.9C67.7466 17.14 68.0586 17.26 68.4266 17.26C68.4266 17.26 68.4746 17.26 68.5706 17.26C68.6666 17.26 68.7226 17.26 68.7386 17.26L68.7146 17.5H66.9626L67.0586 15.988ZM80.0223 3.1V17.5H76.5663V3.1H80.0223ZM76.6383 15.988V17.5H74.8863V17.26C74.8863 17.26 74.9343 17.26 75.0303 17.26C75.1263 17.26 75.1823 17.26 75.1983 17.26C75.5663 17.26 75.8863 17.14 76.1583 16.9C76.4303 16.644 76.5663 16.34 76.5663 15.988H76.6383ZM79.9743 15.988H80.0223C80.0383 16.34 80.1743 16.644 80.4303 16.9C80.7023 17.14 81.0303 17.26 81.4143 17.26C81.4143 17.26 81.4543 17.26 81.5343 17.26C81.6303 17.26 81.6863 17.26 81.7023 17.26V17.5H79.9743V15.988ZM79.9743 4.612V3.1H81.7023L81.6783 3.34C81.6783 3.34 81.6383 3.34 81.5583 3.34C81.4783 3.34 81.4303 3.34 81.4143 3.34C81.0303 3.34 80.7023 3.46 80.4303 3.7C80.1743 3.94 80.0383 4.244 80.0223 4.612H79.9743ZM76.6383 4.612H76.5663C76.5663 4.244 76.4303 3.94 76.1583 3.7C75.8863 3.46 75.5583 3.34 75.1743 3.34C75.1743 3.34 75.1263 3.34 75.0303 3.34C74.9343 3.34 74.8863 3.34 74.8863 3.34V3.1H76.6383V4.612ZM84.6918 2.764L98.7798 15.148L99.0198 17.812L84.9558 5.428L84.6918 2.764ZM84.7878 16.036V17.5H83.0118V17.26C83.0118 17.26 83.0758 17.26 83.2038 17.26C83.3318 17.26 83.3958 17.26 83.3958 17.26C83.7638 17.26 84.0758 17.148 84.3318 16.924C84.5878 16.684 84.7158 16.388 84.7158 16.036H84.7878ZM88.0038 16.036C88.0198 16.388 88.1558 16.684 88.4118 16.924C88.6678 17.148 88.9718 17.26 89.3238 17.26C89.3238 17.26 89.3878 17.26 89.5158 17.26C89.6598 17.26 89.7318 17.26 89.7318 17.26V17.5H87.9558V16.036H88.0038ZM84.6918 2.764L88.0038 6.364V17.5H84.7158V5.5C84.7158 4.684 84.6758 4.028 84.5958 3.532C84.5158 3.02 84.4758 2.764 84.4758 2.764H84.6918ZM98.9958 3.1V15.004C98.9958 15.564 99.0118 16.06 99.0438 16.492C99.0918 16.908 99.1318 17.236 99.1638 17.476C99.2118 17.7 99.2358 17.812 99.2358 17.812H99.0198L95.7078 13.996V3.1H98.9958ZM98.9238 4.564V3.1H100.724V3.34C100.724 3.34 100.652 3.34 100.508 3.34C100.38 3.34 100.316 3.34 100.316 3.34C99.9638 3.34 99.6518 3.46 99.3798 3.7C99.1238 3.924 98.9958 4.212 98.9958 4.564H98.9238ZM95.7078 4.564C95.6918 4.212 95.5558 3.924 95.2998 3.7C95.0598 3.46 94.7558 3.34 94.3878 3.34C94.3878 3.34 94.3158 3.34 94.1718 3.34C94.0438 3.34 93.9798 3.34 93.9798 3.34V3.1H95.7558V4.564H95.7078ZM107.163 3.1V17.5H103.707V3.1H107.163ZM103.779 15.988V17.5H102.027V17.26C102.027 17.26 102.075 17.26 102.171 17.26C102.267 17.26 102.323 17.26 102.339 17.26C102.707 17.26 103.027 17.14 103.299 16.9C103.571 16.644 103.707 16.34 103.707 15.988H103.779ZM107.115 15.988H107.163C107.179 16.34 107.315 16.644 107.571 16.9C107.843 17.14 108.171 17.26 108.555 17.26C108.555 17.26 108.595 17.26 108.675 17.26C108.771 17.26 108.827 17.26 108.843 17.26V17.5H107.115V15.988ZM107.115 4.612V3.1H108.843L108.819 3.34C108.819 3.34 108.779 3.34 108.699 3.34C108.619 3.34 108.571 3.34 108.555 3.34C108.171 3.34 107.843 3.46 107.571 3.7C107.315 3.94 107.179 4.244 107.163 4.612H107.115ZM103.779 4.612H103.707C103.707 4.244 103.571 3.94 103.299 3.7C103.027 3.46 102.699 3.34 102.315 3.34C102.315 3.34 102.267 3.34 102.171 3.34C102.075 3.34 102.027 3.34 102.027 3.34V3.1H103.779V4.612ZM115.292 3.1H117.884C118.54 3.1 119.18 3.172 119.804 3.316C120.428 3.444 120.988 3.66 121.484 3.964C121.98 4.252 122.372 4.652 122.66 5.164C122.964 5.66 123.116 6.284 123.116 7.036C123.116 7.596 122.996 8.156 122.756 8.716C122.532 9.26 122.172 9.732 121.676 10.132C121.196 10.532 120.564 10.796 119.78 10.924C120.244 11.068 120.684 11.348 121.1 11.764C121.532 12.18 121.868 12.572 122.108 12.94C122.172 13.068 122.284 13.276 122.444 13.564C122.604 13.836 122.804 14.156 123.044 14.524C123.3 14.876 123.564 15.244 123.836 15.628C124.156 16.06 124.436 16.396 124.676 16.636C124.916 16.86 125.164 17.02 125.42 17.116C125.676 17.212 125.972 17.26 126.308 17.26V17.5H124.292C123.428 17.5 122.692 17.436 122.084 17.308C121.492 17.18 120.972 16.948 120.524 16.612C120.092 16.26 119.692 15.788 119.324 15.196C119.18 14.988 119.028 14.74 118.868 14.452C118.708 14.148 118.548 13.844 118.388 13.54C118.228 13.236 118.084 12.94 117.956 12.652C117.844 12.364 117.764 12.124 117.716 11.932C117.508 11.42 117.268 11.052 116.996 10.828C116.74 10.588 116.5 10.468 116.276 10.468V10.252C116.276 10.252 116.332 10.252 116.444 10.252C116.556 10.252 116.7 10.252 116.876 10.252C117.212 10.252 117.54 10.196 117.86 10.084C118.196 9.956 118.5 9.724 118.772 9.388C119.044 9.036 119.244 8.524 119.372 7.852C119.404 7.756 119.428 7.62 119.444 7.444C119.476 7.268 119.484 7.068 119.468 6.844C119.436 6.252 119.324 5.78 119.132 5.428C118.956 5.06 118.732 4.788 118.46 4.612C118.188 4.42 117.908 4.292 117.62 4.228C117.348 4.148 117.108 4.108 116.9 4.108C116.596 4.092 116.316 4.092 116.06 4.108C115.82 4.108 115.636 4.1 115.508 4.084C115.492 4.084 115.468 4.004 115.436 3.844C115.404 3.668 115.372 3.5 115.34 3.34C115.308 3.18 115.292 3.1 115.292 3.1ZM115.532 3.1V17.5H112.052V3.1H115.532ZM112.124 15.988L112.22 17.5H110.492V17.26C110.508 17.26 110.548 17.26 110.612 17.26C110.692 17.26 110.748 17.26 110.78 17.26C111.132 17.26 111.428 17.14 111.668 16.9C111.924 16.644 112.06 16.34 112.076 15.988H112.124ZM112.124 4.588H112.076C112.06 4.22 111.924 3.924 111.668 3.7C111.428 3.46 111.14 3.34 110.804 3.34C110.756 3.34 110.692 3.34 110.612 3.34C110.548 3.34 110.508 3.34 110.492 3.34V3.1H112.22L112.124 4.588ZM115.484 15.988H115.532C115.532 16.388 115.668 16.7 115.94 16.924C116.228 17.148 116.532 17.26 116.852 17.26C116.852 17.26 116.884 17.26 116.948 17.26C117.012 17.26 117.06 17.26 117.092 17.26V17.5H115.364L115.484 15.988ZM137.017 2.788C137.337 2.788 137.721 2.804 138.169 2.836C138.633 2.868 139.089 2.908 139.537 2.956C139.985 2.988 140.377 3.036 140.713 3.1C141.065 3.148 141.305 3.196 141.433 3.244L141.121 6.172H140.905C140.905 5.436 140.649 4.852 140.137 4.42C139.625 3.988 138.889 3.772 137.929 3.772C137.161 3.772 136.537 3.94 136.057 4.276C135.593 4.612 135.345 5.06 135.313 5.62C135.281 5.908 135.329 6.172 135.457 6.412C135.601 6.636 135.793 6.836 136.033 7.012C136.289 7.188 136.569 7.364 136.873 7.54L140.641 9.868C141.281 10.188 141.785 10.652 142.153 11.26C142.521 11.868 142.681 12.604 142.633 13.468C142.585 14.364 142.321 15.14 141.841 15.796C141.377 16.452 140.729 16.956 139.897 17.308C139.081 17.644 138.113 17.812 136.993 17.812C136.305 17.812 135.665 17.756 135.073 17.644C134.481 17.532 133.969 17.38 133.537 17.188C133.121 16.996 132.801 16.78 132.577 16.54C132.449 16.22 132.393 15.836 132.409 15.388C132.425 14.924 132.497 14.468 132.625 14.02C132.753 13.556 132.913 13.172 133.105 12.868H133.297C133.249 13.588 133.377 14.252 133.681 14.86C134.001 15.468 134.465 15.956 135.073 16.324C135.681 16.676 136.409 16.852 137.257 16.852C138.185 16.852 138.881 16.636 139.345 16.204C139.809 15.772 140.041 15.268 140.041 14.692C140.041 14.26 139.897 13.876 139.609 13.54C139.337 13.188 138.881 12.844 138.241 12.508L134.833 10.348C134.033 9.932 133.449 9.38 133.081 8.692C132.729 8.004 132.601 7.252 132.697 6.436C132.777 5.668 133.001 5.012 133.369 4.468C133.753 3.924 134.257 3.508 134.881 3.22C135.505 2.932 136.217 2.788 137.017 2.788ZM141.433 3.004L141.409 3.436H138.841V3.004H141.433ZM149.396 3.1V17.5H145.94V3.1H149.396ZM155.012 16.54L155.564 17.5H149.348V16.54H155.012ZM154.196 9.892V10.852H149.348V9.892H154.196ZM155.276 3.1V4.06H149.348V3.1H155.276ZM156.548 13.084L155.636 17.5H151.484L152.228 16.54C152.916 16.54 153.524 16.404 154.052 16.132C154.596 15.844 155.06 15.444 155.444 14.932C155.828 14.404 156.124 13.788 156.332 13.084H156.548ZM154.196 10.804V12.916H153.956V12.724C153.956 12.196 153.788 11.756 153.452 11.404C153.132 11.052 152.692 10.868 152.132 10.852V10.804H154.196ZM154.196 7.828V9.94H152.132V9.892C152.692 9.876 153.132 9.692 153.452 9.34C153.788 8.972 153.956 8.524 153.956 7.996V7.828H154.196ZM155.276 4.012V6.556H155.036V6.34C155.036 5.636 154.844 5.084 154.46 4.684C154.092 4.284 153.556 4.076 152.852 4.06V4.012H155.276ZM155.276 2.74V3.316L152.756 3.1C153.22 3.1 153.708 3.06 154.22 2.98C154.732 2.884 155.084 2.804 155.276 2.74ZM145.988 15.988L146.108 17.5H144.332V17.26C144.332 17.26 144.38 17.26 144.476 17.26C144.572 17.26 144.628 17.26 144.644 17.26C144.996 17.26 145.292 17.14 145.532 16.9C145.788 16.644 145.924 16.34 145.94 15.988H145.988ZM145.988 4.612H145.94C145.924 4.244 145.788 3.94 145.532 3.7C145.292 3.46 144.996 3.34 144.644 3.34C144.628 3.34 144.572 3.34 144.476 3.34C144.38 3.34 144.332 3.34 144.332 3.34V3.1H146.108L145.988 4.612ZM159.247 2.764L173.335 15.148L173.575 17.812L159.511 5.428L159.247 2.764ZM159.343 16.036V17.5H157.567V17.26C157.567 17.26 157.631 17.26 157.759 17.26C157.887 17.26 157.951 17.26 157.951 17.26C158.319 17.26 158.631 17.148 158.887 16.924C159.143 16.684 159.271 16.388 159.271 16.036H159.343ZM162.559 16.036C162.575 16.388 162.711 16.684 162.967 16.924C163.223 17.148 163.527 17.26 163.879 17.26C163.879 17.26 163.943 17.26 164.071 17.26C164.215 17.26 164.287 17.26 164.287 17.26V17.5H162.511V16.036H162.559ZM159.247 2.764L162.559 6.364V17.5H159.271V5.5C159.271 4.684 159.231 4.028 159.151 3.532C159.071 3.02 159.031 2.764 159.031 2.764H159.247ZM173.551 3.1V15.004C173.551 15.564 173.567 16.06 173.599 16.492C173.647 16.908 173.687 17.236 173.719 17.476C173.767 17.7 173.791 17.812 173.791 17.812H173.575L170.263 13.996V3.1H173.551ZM173.479 4.564V3.1H175.279V3.34C175.279 3.34 175.207 3.34 175.063 3.34C174.935 3.34 174.871 3.34 174.871 3.34C174.519 3.34 174.207 3.46 173.935 3.7C173.679 3.924 173.551 4.212 173.551 4.564H173.479ZM170.263 4.564C170.247 4.212 170.111 3.924 169.855 3.7C169.615 3.46 169.311 3.34 168.943 3.34C168.943 3.34 168.871 3.34 168.727 3.34C168.599 3.34 168.535 3.34 168.535 3.34V3.1H170.311V4.564H170.263ZM191.39 3.1V17.5H187.958V3.1H191.39ZM181.622 3.1V17.5H178.166V3.1H181.622ZM188.15 9.844V10.804H181.406V9.844H188.15ZM178.238 15.988V17.5H176.582V17.26C176.582 17.26 176.622 17.26 176.702 17.26C176.798 17.26 176.854 17.26 176.87 17.26C177.222 17.26 177.526 17.14 177.782 16.9C178.038 16.644 178.166 16.34 178.166 15.988H178.238ZM181.574 15.988H181.622C181.638 16.34 181.774 16.644 182.03 16.9C182.286 17.14 182.59 17.26 182.942 17.26C182.942 17.26 182.982 17.26 183.062 17.26C183.158 17.26 183.206 17.26 183.206 17.26V17.5H181.574V15.988ZM181.574 4.612V3.1H183.206V3.34C183.206 3.34 183.158 3.34 183.062 3.34C182.982 3.34 182.942 3.34 182.942 3.34C182.59 3.34 182.286 3.46 182.03 3.7C181.774 3.94 181.638 4.244 181.622 4.612H181.574ZM178.238 4.612H178.166C178.166 4.244 178.038 3.94 177.782 3.7C177.526 3.46 177.222 3.34 176.87 3.34C176.854 3.34 176.798 3.34 176.702 3.34C176.622 3.34 176.582 3.34 176.582 3.34V3.1H178.238V4.612ZM188.006 15.988V17.5H186.374V17.26C186.374 17.26 186.414 17.26 186.494 17.26C186.59 17.26 186.638 17.26 186.638 17.26C186.99 17.26 187.294 17.14 187.55 16.9C187.806 16.644 187.934 16.34 187.934 15.988H188.006ZM191.318 15.988H191.39C191.406 16.34 191.534 16.644 191.774 16.9C192.03 17.14 192.342 17.26 192.71 17.26C192.71 17.26 192.75 17.26 192.83 17.26C192.926 17.26 192.974 17.26 192.974 17.26V17.5H191.318V15.988ZM191.342 4.612V3.1H192.998V3.34C192.998 3.34 192.95 3.34 192.854 3.34C192.758 3.34 192.71 3.34 192.71 3.34C192.342 3.34 192.03 3.46 191.774 3.7C191.534 3.94 191.414 4.244 191.414 4.612H191.342ZM188.006 4.612H187.934C187.934 4.244 187.806 3.94 187.55 3.7C187.294 3.46 186.99 3.34 186.638 3.34C186.638 3.34 186.59 3.34 186.494 3.34C186.414 3.34 186.374 3.34 186.374 3.34V3.1H188.006V4.612ZM201.445 2.452L208.549 17.38H204.493L200.029 6.844L201.445 2.452ZM196.933 15.916C196.757 16.348 196.781 16.684 197.005 16.924C197.229 17.148 197.477 17.26 197.749 17.26H197.941V17.5H193.141V17.26C193.141 17.26 193.173 17.26 193.237 17.26C193.301 17.26 193.333 17.26 193.333 17.26C193.653 17.26 193.989 17.164 194.341 16.972C194.693 16.764 194.981 16.412 195.205 15.916H196.933ZM201.445 2.452L201.493 5.332L196.285 17.428H194.509L200.125 5.356C200.157 5.26 200.229 5.092 200.341 4.852C200.453 4.596 200.573 4.316 200.701 4.012C200.829 3.692 200.949 3.396 201.061 3.124C201.173 2.836 201.237 2.612 201.253 2.452H201.445ZM203.533 12.796V13.732H197.413V12.796H203.533ZM203.893 15.916H207.853C208.093 16.412 208.389 16.764 208.741 16.972C209.093 17.164 209.429 17.26 209.749 17.26C209.749 17.26 209.781 17.26 209.845 17.26C209.909 17.26 209.941 17.26 209.941 17.26V17.5H202.885V17.26H203.077C203.349 17.26 203.597 17.148 203.821 16.924C204.045 16.684 204.069 16.348 203.893 15.916Z" fill="black"/>
</svg>
