<svg width="177" height="24" viewBox="0 0 177 24" fill="none" xmlns="http://www.w3.org/2000/svg">
<path d="M12.244 23.448L2.324 0.792H5.044L12.884 20.408L12.244 23.448ZM12.244 23.448L11.956 21.208L20.468 0.695999H22.388L13.716 20.152C13.716 20.152 13.652 20.2907 13.524 20.568C13.4173 20.824 13.2787 21.144 13.108 21.528C12.9587 21.912 12.82 22.2853 12.692 22.648C12.5853 23.0107 12.532 23.2773 12.532 23.448H12.244ZM19.572 2.904C19.8067 2.264 19.764 1.77333 19.444 1.432C19.124 1.09067 18.7613 0.919998 18.356 0.919998H18.068V0.599998H24.5V0.919998C24.5 0.919998 24.4467 0.919998 24.34 0.919998C24.2547 0.919998 24.212 0.919998 24.212 0.919998C23.7427 0.919998 23.2413 1.08 22.708 1.4C22.1747 1.69867 21.7373 2.21067 21.396 2.936L19.572 2.904ZM5.908 2.904L3.252 2.936C2.932 2.21067 2.50533 1.69867 1.972 1.4C1.43867 1.08 0.926667 0.919998 0.436 0.919998C0.436 0.919998 0.393333 0.919998 0.308 0.919998C0.222667 0.919998 0.18 0.919998 0.18 0.919998V0.599998H7.38V0.919998H7.092C6.68667 0.919998 6.324 1.09067 6.004 1.432C5.70533 1.77333 5.67333 2.264 5.908 2.904ZM30.6515 0.599998V23H28.5715V0.599998H30.6515ZM39.2915 22.008V23H30.5555V22.008H39.2915ZM37.9155 11.48V12.44H30.5555V11.48H37.9155ZM39.2915 0.599998V1.592H30.5555V0.599998H39.2915ZM41.2435 17.816L39.3875 23H34.0755L35.2275 22.008C36.3582 22.008 37.2755 21.8373 37.9795 21.496C38.7048 21.1333 39.2915 20.632 39.7395 19.992C40.1875 19.352 40.5822 18.6267 40.9235 17.816H41.2435ZM37.9155 12.376V14.488H37.5955V14.008C37.5955 13.5813 37.4462 13.2187 37.1475 12.92C36.8488 12.6 36.4862 12.44 36.0595 12.44V12.376H37.9155ZM37.9155 9.432V11.544H36.0595V11.48C36.4862 11.4587 36.8488 11.2987 37.1475 11C37.4462 10.68 37.5955 10.3067 37.5955 9.88V9.432H37.9155ZM39.2915 1.496V4.056H38.9715V3.48C38.9715 2.968 38.7902 2.53067 38.4275 2.168C38.0648 1.784 37.6168 1.58133 37.0835 1.56V1.496H39.2915ZM39.2915 0.0239983V0.952L35.3875 0.599998C35.8568 0.599998 36.3475 0.567999 36.8595 0.504C37.3928 0.439999 37.8835 0.365332 38.3315 0.279999C38.7795 0.194665 39.0995 0.109332 39.2915 0.0239983ZM28.6675 20.664V23H26.1075V22.68C26.1075 22.68 26.1715 22.68 26.2995 22.68C26.4488 22.68 26.5235 22.68 26.5235 22.68C27.0782 22.68 27.5475 22.488 27.9315 22.104C28.3368 21.6987 28.5502 21.2187 28.5715 20.664H28.6675ZM28.6675 2.936H28.5715C28.5715 2.38133 28.3688 1.912 27.9635 1.528C27.5582 1.12267 27.0782 0.919998 26.5235 0.919998C26.5235 0.919998 26.4595 0.919998 26.3315 0.919998C26.2035 0.919998 26.1395 0.919998 26.1395 0.919998L26.1075 0.599998H28.6675V2.936ZM48.3918 0.599998H52.9038C53.8638 0.599998 54.7278 0.738665 55.4958 1.016C56.2851 1.29333 56.9464 1.69867 57.4798 2.232C58.0131 2.744 58.4184 3.37333 58.6958 4.12C58.9944 4.84533 59.1438 5.67733 59.1438 6.616C59.1438 7.64 58.8984 8.62133 58.4078 9.56C57.9384 10.4987 57.2878 11.2667 56.4558 11.864C55.6451 12.44 54.7278 12.728 53.7038 12.728C54.0664 12.8773 54.4611 13.1867 54.8878 13.656C55.3144 14.104 55.6878 14.5413 56.0078 14.968C56.0078 14.968 56.1464 15.1813 56.4238 15.608C56.7224 16.0133 57.0851 16.5147 57.5118 17.112C57.9598 17.7093 58.4078 18.296 58.8558 18.872C59.3038 19.448 59.6878 19.9067 60.0078 20.248C60.4344 20.7173 60.8611 21.1333 61.2878 21.496C61.7144 21.8587 62.1731 22.1467 62.6638 22.36C63.1758 22.5733 63.7411 22.68 64.3598 22.68V23H62.5998C61.6184 23 60.7651 22.8507 60.0398 22.552C59.3358 22.2533 58.7384 21.8907 58.2478 21.464C57.7571 21.016 57.3411 20.5893 56.9998 20.184C56.9358 20.0987 56.7544 19.8533 56.4558 19.448C56.1784 19.0427 55.8371 18.5627 55.4318 18.008C55.0478 17.432 54.6638 16.8667 54.2798 16.312C53.8958 15.7573 53.5651 15.288 53.2878 14.904C53.0104 14.4987 52.8504 14.264 52.8078 14.2C52.4024 13.6667 51.9544 13.176 51.4638 12.728C50.9731 12.28 50.4398 12.056 49.8638 12.056V11.736C49.8638 11.736 50.0238 11.7467 50.3438 11.768C50.6851 11.768 51.0904 11.7573 51.5598 11.736C52.1144 11.7147 52.7224 11.6293 53.3838 11.48C54.0451 11.3307 54.6638 11.0213 55.2398 10.552C55.8158 10.0827 56.2531 9.368 56.5518 8.408C56.6158 8.17333 56.6691 7.88533 56.7118 7.544C56.7544 7.18133 56.7651 6.82933 56.7438 6.488C56.7224 5.03733 56.3491 3.88533 55.6238 3.032C54.9198 2.15733 53.9704 1.688 52.7758 1.624C52.1784 1.58133 51.5598 1.57067 50.9198 1.592C50.3011 1.592 49.7784 1.592 49.3518 1.592C48.9251 1.592 48.7118 1.592 48.7118 1.592C48.7118 1.57067 48.6798 1.48533 48.6158 1.336C48.5731 1.16533 48.5198 1.00533 48.4558 0.855999C48.4131 0.685332 48.3918 0.599998 48.3918 0.599998ZM48.8078 0.599998V23H46.7278V0.599998H48.8078ZM46.8238 20.664V23H44.2638V22.68C44.2638 22.68 44.3278 22.68 44.4557 22.68C44.6051 22.68 44.6798 22.68 44.6798 22.68C45.2344 22.68 45.7038 22.488 46.0878 22.104C46.4931 21.6987 46.7064 21.2187 46.7278 20.664H46.8238ZM46.8238 2.936H46.7278C46.7064 2.38133 46.4931 1.912 46.0878 1.528C45.7038 1.12267 45.2344 0.919998 44.6798 0.919998C44.6798 0.919998 44.6051 0.919998 44.4557 0.919998C44.3278 0.919998 44.2638 0.919998 44.2638 0.919998V0.599998H46.8238V2.936ZM48.7118 20.664H48.8078C48.8078 21.2187 49.0104 21.6987 49.4158 22.104C49.8211 22.488 50.3011 22.68 50.8558 22.68C50.8558 22.68 50.9198 22.68 51.0478 22.68C51.1758 22.68 51.2398 22.68 51.2398 22.68V23H48.7118V20.664ZM71.407 0.151999C71.7483 0.151999 72.111 0.173332 72.495 0.216C72.9003 0.258666 73.2843 0.322666 73.647 0.407999C74.031 0.471999 74.3723 0.546666 74.671 0.631998C74.991 0.695999 75.2363 0.770665 75.407 0.855999V4.408H75.119C75.119 3.384 74.767 2.584 74.063 2.008C73.359 1.41067 72.5057 1.112 71.503 1.112C70.3297 1.112 69.3803 1.48533 68.655 2.232C67.9297 2.95733 67.567 3.81067 67.567 4.792C67.567 5.19733 67.6523 5.67733 67.823 6.232C68.015 6.76533 68.3563 7.26667 68.847 7.736L75.151 13.56C75.791 14.1573 76.2177 14.7973 76.431 15.48C76.6443 16.1627 76.751 16.824 76.751 17.464C76.751 19.2347 76.207 20.6747 75.119 21.784C74.0523 22.8933 72.6017 23.448 70.767 23.448C70.255 23.448 69.647 23.3947 68.943 23.288C68.2603 23.1813 67.5883 23 66.927 22.744C66.287 22.4667 65.7537 22.1147 65.327 21.688C65.263 21.3467 65.231 20.92 65.231 20.408C65.231 19.896 65.2737 19.3627 65.359 18.808C65.4443 18.232 65.5617 17.7093 65.711 17.24H65.999C65.8923 18.328 66.031 19.2773 66.415 20.088C66.799 20.8987 67.3537 21.5173 68.079 21.944C68.8257 22.3493 69.6683 22.5307 70.607 22.488C71.7803 22.424 72.783 22.0187 73.615 21.272C74.4683 20.504 74.895 19.48 74.895 18.2C74.895 17.5813 74.7883 17.0267 74.575 16.536C74.3617 16.024 74.0523 15.5867 73.647 15.224L67.503 9.528C66.863 8.93067 66.415 8.28 66.159 7.576C65.903 6.85067 65.775 6.17867 65.775 5.56C65.775 4.664 65.9883 3.8 66.415 2.968C66.8417 2.136 67.471 1.464 68.303 0.952C69.1563 0.418666 70.191 0.151999 71.407 0.151999ZM75.407 0.471998V1.144H72.975V0.471998H75.407ZM90.0505 0.151999L99.5225 22.808H96.8025L89.4105 3.192L90.0505 0.151999ZM83.1705 20.664C83.0212 21.0907 82.9998 21.4533 83.1065 21.752C83.2132 22.0507 83.3838 22.2853 83.6185 22.456C83.8745 22.6053 84.1305 22.68 84.3865 22.68H84.6745V23H78.2425V22.68C78.2425 22.68 78.2958 22.68 78.4025 22.68C78.4878 22.68 78.5305 22.68 78.5305 22.68C79.0212 22.68 79.5225 22.5307 80.0345 22.232C80.5678 21.912 81.0052 21.3893 81.3465 20.664H83.1705ZM90.0505 0.151999L90.3385 2.392L82.3065 22.904H80.3865L88.5785 3.448C88.5785 3.448 88.6318 3.32 88.7385 3.064C88.8665 2.78667 89.0052 2.456 89.1545 2.072C89.3252 1.688 89.4638 1.31467 89.5705 0.952C89.6985 0.589333 89.7625 0.322666 89.7625 0.151999H90.0505ZM94.5625 14.264V15.224H84.5465V14.264H94.5625ZM96.0025 20.664H98.6265C98.9465 21.3893 99.3732 21.912 99.9065 22.232C100.44 22.5307 100.952 22.68 101.443 22.68C101.443 22.68 101.485 22.68 101.571 22.68C101.656 22.68 101.699 22.68 101.699 22.68V23H94.4985V22.68H94.7865C95.1918 22.68 95.5545 22.5093 95.8745 22.168C96.1945 21.8053 96.2372 21.304 96.0025 20.664ZM107.808 0.599998V23H105.728V0.599998H107.808ZM116.448 22.008V23H107.712V22.008H116.448ZM118.4 17.816L116.544 23H111.232L112.384 22.008C113.514 22.008 114.432 21.8373 115.136 21.496C115.861 21.1333 116.448 20.632 116.896 19.992C117.344 19.352 117.738 18.6267 118.08 17.816H118.4ZM105.824 20.664V23H103.264V22.68C103.264 22.68 103.328 22.68 103.456 22.68C103.605 22.68 103.68 22.68 103.68 22.68C104.234 22.68 104.704 22.488 105.088 22.104C105.493 21.6987 105.706 21.2187 105.728 20.664H105.824ZM105.824 2.936H105.728C105.706 2.38133 105.493 1.912 105.088 1.528C104.704 1.12267 104.234 0.919998 103.68 0.919998C103.68 0.919998 103.605 0.919998 103.456 0.919998C103.328 0.919998 103.264 0.919998 103.264 0.919998V0.599998H105.824V2.936ZM107.712 2.936V0.599998H110.272V0.919998C110.25 0.919998 110.176 0.919998 110.048 0.919998C109.92 0.919998 109.856 0.919998 109.856 0.919998C109.301 0.919998 108.821 1.12267 108.416 1.528C108.032 1.912 107.829 2.38133 107.808 2.936H107.712ZM140.476 0.599998V23H138.396V0.599998H140.476ZM125.308 0.599998V23H123.228V0.599998H125.308ZM138.684 11.448V12.408H124.988V11.448H138.684ZM123.324 20.664V23H120.764V22.68C120.764 22.68 120.828 22.68 120.956 22.68C121.105 22.68 121.18 22.68 121.18 22.68C121.734 22.68 122.204 22.488 122.588 22.104C122.993 21.6987 123.206 21.2187 123.228 20.664H123.324ZM123.324 2.936H123.228C123.206 2.38133 122.993 1.912 122.588 1.528C122.204 1.12267 121.734 0.919998 121.18 0.919998C121.18 0.919998 121.105 0.919998 120.956 0.919998C120.828 0.919998 120.764 0.919998 120.764 0.919998V0.599998H123.324V2.936ZM125.212 20.664H125.308C125.329 21.2187 125.532 21.6987 125.916 22.104C126.321 22.488 126.801 22.68 127.356 22.68C127.356 22.68 127.42 22.68 127.548 22.68C127.676 22.68 127.75 22.68 127.772 22.68V23H125.212V20.664ZM125.212 2.936V0.599998H127.772V0.919998C127.75 0.919998 127.676 0.919998 127.548 0.919998C127.42 0.919998 127.356 0.919998 127.356 0.919998C126.801 0.919998 126.321 1.12267 125.916 1.528C125.532 1.912 125.329 2.38133 125.308 2.936H125.212ZM138.492 20.664V23H135.932V22.68C135.953 22.68 136.028 22.68 136.156 22.68C136.284 22.68 136.348 22.68 136.348 22.68C136.902 22.68 137.382 22.488 137.788 22.104C138.193 21.6987 138.396 21.2187 138.396 20.664H138.492ZM138.492 2.936H138.396C138.396 2.38133 138.193 1.912 137.788 1.528C137.382 1.12267 136.902 0.919998 136.348 0.919998C136.348 0.919998 136.284 0.919998 136.156 0.919998C136.028 0.919998 135.953 0.919998 135.932 0.919998V0.599998H138.492V2.936ZM140.38 20.664H140.476C140.497 21.2187 140.7 21.6987 141.084 22.104C141.489 22.488 141.969 22.68 142.524 22.68C142.524 22.68 142.588 22.68 142.716 22.68C142.865 22.68 142.94 22.68 142.94 22.68V23H140.38V20.664ZM140.38 2.936V0.599998H142.94V0.919998C142.94 0.919998 142.865 0.919998 142.716 0.919998C142.588 0.919998 142.524 0.919998 142.524 0.919998C141.969 0.919998 141.489 1.12267 141.084 1.528C140.7 1.912 140.497 2.38133 140.476 2.936H140.38ZM151.339 0.599998V23H149.259V0.599998H151.339ZM159.979 22.008V23H151.243V22.008H159.979ZM158.603 11.48V12.44H151.243V11.48H158.603ZM159.979 0.599998V1.592H151.243V0.599998H159.979ZM161.931 17.816L160.075 23H154.763L155.915 22.008C157.046 22.008 157.963 21.8373 158.667 21.496C159.392 21.1333 159.979 20.632 160.427 19.992C160.875 19.352 161.27 18.6267 161.611 17.816H161.931ZM158.603 12.376V14.488H158.283V14.008C158.283 13.5813 158.134 13.2187 157.835 12.92C157.536 12.6 157.174 12.44 156.747 12.44V12.376H158.603ZM158.603 9.432V11.544H156.747V11.48C157.174 11.4587 157.536 11.2987 157.835 11C158.134 10.68 158.283 10.3067 158.283 9.88V9.432H158.603ZM159.979 1.496V4.056H159.659V3.48C159.659 2.968 159.478 2.53067 159.115 2.168C158.752 1.784 158.304 1.58133 157.771 1.56V1.496H159.979ZM159.979 0.0239983V0.952L156.075 0.599998C156.544 0.599998 157.035 0.567999 157.547 0.504C158.08 0.439999 158.571 0.365332 159.019 0.279999C159.467 0.194665 159.787 0.109332 159.979 0.0239983ZM149.355 20.664V23H146.795V22.68C146.795 22.68 146.859 22.68 146.987 22.68C147.136 22.68 147.211 22.68 147.211 22.68C147.766 22.68 148.235 22.488 148.619 22.104C149.024 21.6987 149.238 21.2187 149.259 20.664H149.355ZM149.355 2.936H149.259C149.259 2.38133 149.056 1.912 148.651 1.528C148.246 1.12267 147.766 0.919998 147.211 0.919998C147.211 0.919998 147.147 0.919998 147.019 0.919998C146.891 0.919998 146.827 0.919998 146.827 0.919998L146.795 0.599998H149.355V2.936ZM171.376 0.151999C171.717 0.151999 172.08 0.173332 172.464 0.216C172.869 0.258666 173.253 0.322666 173.616 0.407999C174 0.471999 174.341 0.546666 174.64 0.631998C174.96 0.695999 175.205 0.770665 175.376 0.855999V4.408H175.088C175.088 3.384 174.736 2.584 174.032 2.008C173.328 1.41067 172.474 1.112 171.472 1.112C170.298 1.112 169.349 1.48533 168.624 2.232C167.898 2.95733 167.536 3.81067 167.536 4.792C167.536 5.19733 167.621 5.67733 167.792 6.232C167.984 6.76533 168.325 7.26667 168.816 7.736L175.12 13.56C175.76 14.1573 176.186 14.7973 176.4 15.48C176.613 16.1627 176.72 16.824 176.72 17.464C176.72 19.2347 176.176 20.6747 175.088 21.784C174.021 22.8933 172.57 23.448 170.736 23.448C170.224 23.448 169.616 23.3947 168.912 23.288C168.229 23.1813 167.557 23 166.896 22.744C166.256 22.4667 165.722 22.1147 165.296 21.688C165.232 21.3467 165.2 20.92 165.2 20.408C165.2 19.896 165.242 19.3627 165.328 18.808C165.413 18.232 165.53 17.7093 165.68 17.24H165.968C165.861 18.328 166 19.2773 166.384 20.088C166.768 20.8987 167.322 21.5173 168.048 21.944C168.794 22.3493 169.637 22.5307 170.576 22.488C171.749 22.424 172.752 22.0187 173.584 21.272C174.437 20.504 174.864 19.48 174.864 18.2C174.864 17.5813 174.757 17.0267 174.544 16.536C174.33 16.024 174.021 15.5867 173.616 15.224L167.472 9.528C166.832 8.93067 166.384 8.28 166.128 7.576C165.872 6.85067 165.744 6.17867 165.744 5.56C165.744 4.664 165.957 3.8 166.384 2.968C166.81 2.136 167.44 1.464 168.272 0.952C169.125 0.418666 170.16 0.151999 171.376 0.151999ZM175.376 0.471998V1.144H172.944V0.471998H175.376Z" fill="black"/>
</svg>
