<svg width="492" height="16" viewBox="0 0 492 16" fill="none" xmlns="http://www.w3.org/2000/svg">
<path d="M0.239914 12.0812L0.187233 2.28138L6.06722 2.26747L6.07339 3.41546L1.5234 3.42622L1.53943 6.40818L5.45942 6.3989L5.46544 7.51889L1.54545 7.52816L1.56374 10.9301L6.11373 10.9193L6.1199 12.0673L0.239914 12.0812ZM7.7288 12.0635L7.68966 4.78363L8.90766 4.78075L8.91421 5.99873C9.17343 5.60612 9.50301 5.27867 9.90294 5.0164C10.3121 4.74476 10.7968 4.60828 11.3568 4.60696C12.1781 4.60501 12.7907 4.8509 13.1947 5.34461C13.6081 5.8383 13.8169 6.49113 13.8213 7.30312L13.8468 12.0491L12.5868 12.052L12.562 7.4461C12.5592 6.92344 12.431 6.50375 12.1773 6.18701C11.9329 5.87026 11.5914 5.7124 11.1527 5.71344C10.7234 5.71445 10.3182 5.86941 9.93718 6.17831C9.55612 6.47788 9.23137 6.83331 8.96291 7.24462L8.9888 12.0605L7.7288 12.0635ZM18.7728 12.2054C18.1755 12.2068 17.6287 12.0541 17.1323 11.7473C16.636 11.4405 16.2417 11.0074 15.9494 10.4481C15.657 9.87944 15.5087 9.21246 15.5046 8.44714C15.5006 7.70982 15.6418 7.05148 15.928 6.47214C16.2235 5.89277 16.6131 5.43452 17.0966 5.09738C17.5895 4.76021 18.1299 4.59093 18.7179 4.58954C19.2032 4.5884 19.6191 4.68541 19.9655 4.88059C20.3212 5.07575 20.5976 5.27576 20.7947 5.48063L20.7742 1.67268L22.0342 1.6697L22.0804 10.2656C22.0823 10.6202 22.1676 10.8534 22.3362 10.965C22.5141 11.0672 22.7057 11.1181 22.911 11.1176L22.6503 12.0982C21.7636 12.1003 21.2204 11.7469 21.0206 11.0381C20.8168 11.3279 20.5289 11.5946 20.1569 11.8381C19.7942 12.0817 19.3328 12.2041 18.7728 12.2054ZM19.0468 11.0848C19.3921 11.0839 19.7184 11.0038 20.0255 10.8444C20.342 10.6757 20.6068 10.4604 20.8201 10.1986L20.8006 6.58661C20.6221 6.36304 20.3737 6.15829 20.0553 5.97238C19.7369 5.77713 19.3864 5.67996 19.0038 5.68086C18.5558 5.68192 18.1644 5.80418 17.8297 6.04764C17.495 6.2911 17.2354 6.61838 17.051 7.02948C16.8758 7.43123 16.7896 7.88877 16.7924 8.40209C16.7951 8.91542 16.8956 9.37718 17.0938 9.78738C17.292 10.1882 17.5597 10.5049 17.8969 10.7375C18.2435 10.97 18.6268 11.0857 19.0468 11.0848ZM27.376 12.185C26.3307 12.1875 25.4982 11.8582 24.8787 11.197C24.2684 10.5264 23.96 9.58913 23.9536 8.38515C23.9496 7.65716 24.0815 7.00818 24.3491 6.43822C24.626 5.8589 25.0109 5.40532 25.5038 5.07749C25.9967 4.74032 26.5698 4.57097 27.2231 4.56942C27.9231 4.56777 28.5026 4.7204 28.9616 5.02731C29.4298 5.32487 29.782 5.73003 30.0181 6.24281C30.2542 6.75558 30.3739 7.31996 30.3772 7.93596C30.379 8.26262 30.3667 8.57998 30.3403 8.88804L25.2443 8.9001C25.332 9.58122 25.5729 10.1127 25.9669 10.4944C26.361 10.8761 26.88 11.0662 27.524 11.0647C27.944 11.0637 28.3218 11.0208 28.6573 10.936C28.9928 10.8419 29.3142 10.7245 29.6214 10.5837L29.9212 11.661C29.586 11.8112 29.2087 11.9334 28.7892 12.0277C28.3697 12.1314 27.8987 12.1838 27.376 12.185ZM25.2248 7.87814L29.2148 7.86871C29.211 7.15938 29.0308 6.61381 28.674 6.23199C28.3173 5.85017 27.8263 5.65999 27.201 5.66147C26.6596 5.66275 26.2127 5.85514 25.86 6.23864C25.5074 6.61281 25.2957 7.15931 25.2248 7.87814ZM32.0783 12.0059L32.0392 4.72603L33.2572 4.72315L33.2657 6.30513C33.3854 5.99684 33.5472 5.71179 33.7511 5.44998C33.955 5.17883 34.2105 4.96356 34.5177 4.80417C34.8247 4.63544 35.1836 4.55059 35.5943 4.54962C35.7343 4.54929 35.8743 4.55829 36.0144 4.57663C36.1545 4.58563 36.2713 4.60402 36.3647 4.6318L35.9937 5.93467C35.816 5.86043 35.6058 5.82359 35.3631 5.82416C35.0178 5.82498 34.687 5.92376 34.3707 6.12051C34.0638 6.31724 33.8087 6.62117 33.6056 7.03232C33.4118 7.44344 33.3166 7.96633 33.32 8.60099L33.3383 12.0029L32.0783 12.0059ZM40.1592 12.1548C39.1139 12.1573 38.2814 11.8279 37.6619 11.1667C37.0516 10.4962 36.7432 9.55889 36.7367 8.35491C36.7328 7.62692 36.8647 6.97794 37.1323 6.40798C37.4092 5.82866 37.7941 5.37508 38.287 5.04725C38.7798 4.71008 39.3529 4.54073 40.0062 4.53918C40.7062 4.53753 41.2857 4.69016 41.7447 4.99707C42.213 5.29463 42.5652 5.69979 42.8013 6.21257C43.0374 6.72534 43.1571 7.28972 43.1604 7.90571C43.1621 8.23238 43.1498 8.54974 43.1235 8.8578L38.0275 8.86986C38.1152 9.55098 38.356 10.0824 38.7501 10.4641C39.1441 10.8459 39.6632 11.036 40.3072 11.0345C40.7272 11.0335 41.1049 10.9906 41.4405 10.9058C41.776 10.8117 42.0974 10.6942 42.4046 10.5535L42.7044 11.6308C42.3692 11.7809 41.9919 11.9031 41.5724 11.9975C41.1529 12.1011 40.6819 12.1536 40.1592 12.1548ZM38.008 7.8479L41.998 7.83846C41.9942 7.12914 41.8139 6.58357 41.4572 6.20175C41.1005 5.81992 40.6095 5.62975 39.9841 5.63123C39.4428 5.63251 38.9958 5.8249 38.6432 6.2084C38.2906 6.58257 38.0788 7.12907 38.008 7.8479ZM47.8024 12.1367C47.1117 12.1384 46.5042 11.9811 45.9798 11.665C45.4648 11.3396 45.0657 10.8925 44.7826 10.3239C44.4995 9.74588 44.356 9.08355 44.3519 8.3369C44.3482 7.63691 44.4847 6.99725 44.7616 6.41793C45.0479 5.83859 45.4561 5.38029 45.9863 5.04303C46.5164 4.69645 47.1408 4.5223 47.8595 4.5206C48.2701 4.51963 48.6297 4.55612 48.9381 4.63005C49.2558 4.70397 49.5597 4.81058 49.8498 4.94989L49.4775 6.01477C49.2155 5.88473 48.963 5.79199 48.72 5.73657C48.4863 5.67179 48.2248 5.63974 47.9355 5.64042C47.2822 5.64197 46.7328 5.88127 46.2873 6.35832C45.8512 6.82602 45.6353 7.47519 45.6398 8.30585C45.6425 8.80984 45.7383 9.26695 45.9272 9.67717C46.116 10.0874 46.3745 10.4134 46.7024 10.6553C47.0397 10.8972 47.4324 11.0176 47.8804 11.0165C48.235 11.0157 48.5382 10.9777 48.7898 10.9024C49.0413 10.8178 49.3114 10.7005 49.5999 10.5505L49.9976 11.6135C49.7091 11.7729 49.3831 11.8997 49.0196 11.9938C48.6655 12.088 48.2597 12.1356 47.8024 12.1367ZM47.4139 15.3856C47.1619 15.3862 46.9191 15.3635 46.6855 15.3174C46.4519 15.2712 46.2275 15.2018 46.0124 15.109L46.3436 14.2262C46.6525 14.3841 46.9889 14.4626 47.3529 14.4618C47.5956 14.4612 47.796 14.4187 47.9542 14.3344C48.1124 14.25 48.1911 14.1191 48.1901 13.9418C48.1892 13.7738 48.0764 13.6247 47.8517 13.4946C47.6363 13.3645 47.2207 13.3001 46.6047 13.3016L47.0875 11.9704L48.0395 11.9682L47.7499 12.7948C48.2166 12.7937 48.5952 12.8955 48.8856 13.1002C49.1761 13.3141 49.3224 13.6265 49.3246 14.0371C49.3265 14.3824 49.1695 14.6908 48.8536 14.9622C48.5378 15.243 48.0579 15.3841 47.4139 15.3856ZM54.3952 12.1211C53.7045 12.1228 53.083 11.9656 52.5306 11.6495C51.9782 11.3242 51.5418 10.8772 51.2214 10.3086C50.9103 9.73071 50.7527 9.06842 50.7487 8.32176C50.7445 7.53777 50.8995 6.86074 51.2138 6.29067C51.5281 5.72059 51.9597 5.2809 52.5087 4.9716C53.0577 4.66231 53.6729 4.50685 54.3542 4.50524C55.0356 4.50363 55.6477 4.65618 56.1907 4.96289C56.743 5.26959 57.1794 5.70722 57.4998 6.2758C57.8295 6.83501 57.9964 7.50195 58.0006 8.27661C58.0047 9.05126 57.8497 9.7283 57.5355 10.3077C57.2212 10.8778 56.7896 11.3221 56.2406 11.6408C55.701 11.9594 55.0858 12.1195 54.3952 12.1211ZM54.3892 11.0011C55.1265 10.9994 55.6992 10.7507 56.1072 10.2551C56.5151 9.75012 56.717 9.10098 56.7127 8.30765C56.7101 7.82233 56.605 7.37924 56.3976 6.9784C56.19 6.56823 55.9083 6.24223 55.5523 6.0004C55.2056 5.74922 54.8083 5.62416 54.3603 5.62522C53.6229 5.62697 53.0502 5.87099 52.6422 6.35729C52.2341 6.84358 52.0323 7.48806 52.0366 8.29072C52.0392 8.77604 52.1443 9.22846 52.3519 9.64797C52.5594 10.0581 52.8365 10.3888 53.1832 10.64C53.5392 10.8818 53.9412 11.0022 54.3892 11.0011ZM60.6455 6.36635C60.3935 6.36695 60.1737 6.27414 59.986 6.08791C59.7983 5.90169 59.7038 5.68258 59.7025 5.43059C59.7009 5.14126 59.7837 4.9124 59.9508 4.744C60.1179 4.57561 60.3461 4.49107 60.6354 4.49038C60.8781 4.48981 61.0932 4.58263 61.2809 4.76885C61.4779 4.95505 61.5771 5.17415 61.5784 5.42615C61.58 5.70614 61.4925 5.93502 61.3161 6.11277C61.1397 6.28118 60.9162 6.36571 60.6455 6.36635ZM60.6764 12.1063C60.4244 12.1069 60.2045 12.0141 60.0168 11.8278C59.8292 11.6416 59.7347 11.4225 59.7333 11.1705C59.7318 10.8812 59.8145 10.6523 59.9816 10.4839C60.1487 10.3155 60.3769 10.231 60.6663 10.2303C60.9089 10.2297 61.1241 10.3225 61.3118 10.5088C61.5088 10.695 61.608 10.9141 61.6093 11.1661C61.6108 11.4461 61.5234 11.6749 61.347 11.8527C61.1706 12.0211 60.947 12.1056 60.6764 12.1063ZM74.9647 12.0445L73.8576 9.24709L69.3217 9.25782L68.2446 12.0324L67.1081 11.5731L70.8933 2.11412L72.3493 2.11067L76.1801 11.5516L74.9647 12.0445ZM69.7356 8.13685L73.4176 8.12814L71.5583 3.42854L69.7356 8.13685ZM79.032 11.8948L76.0687 4.95787L77.2141 4.47916L79.7243 10.4652L82.1701 4.46744L83.2507 4.94088L80.348 11.8917L79.032 11.8948ZM84.4107 12.0501C84.1587 12.0507 83.9388 11.9579 83.7512 11.7717C83.5635 11.5855 83.469 11.3664 83.4676 11.1144C83.4661 10.825 83.5488 10.5962 83.7159 10.4278C83.883 10.2594 84.1112 10.1748 84.4006 10.1742C84.6432 10.1736 84.8584 10.2664 85.0461 10.4526C85.2431 10.6388 85.3423 10.8579 85.3436 11.1099C85.3451 11.3899 85.2577 11.6188 85.0813 11.7965C84.9049 11.965 84.6813 12.0495 84.4107 12.0501ZM98.699 11.9883L97.592 9.19095L93.056 9.20168L91.9789 11.9762L90.8424 11.5169L94.6276 2.05797L96.0836 2.05453L99.9144 11.4954L98.699 11.9883ZM93.4699 8.0807L97.1519 8.07199L95.2927 3.3724L93.4699 8.0807ZM103.389 12.0052C102.959 12.0062 102.572 11.9278 102.225 11.77C101.879 11.6028 101.602 11.3375 101.395 10.9739C101.197 10.6104 101.097 10.1393 101.094 9.56066L101.05 1.48278L102.31 1.4798L102.353 9.43168C102.356 9.93568 102.46 10.3088 102.667 10.5509C102.883 10.7931 103.177 10.9137 103.551 10.9128C103.728 10.9124 103.901 10.8934 104.069 10.8556C104.246 10.8085 104.395 10.7569 104.516 10.7006L104.829 11.7218C104.662 11.7969 104.452 11.8627 104.2 11.9193C103.958 11.9759 103.687 12.0045 103.389 12.0052ZM108.597 11.9929C107.991 11.9943 107.439 11.8416 106.943 11.5348C106.447 11.228 106.048 10.7949 105.746 10.2357C105.454 9.66701 105.305 9.00003 105.301 8.23471C105.297 7.50672 105.438 6.85305 105.725 6.27371C106.02 5.69435 106.424 5.23606 106.935 4.89885C107.456 4.55229 108.053 4.37821 108.725 4.37662C109.145 4.37563 109.523 4.4494 109.86 4.59793C110.206 4.73711 110.505 4.91374 110.759 5.12781L110.755 4.53981L111.903 4.5371L111.933 10.053C111.935 10.4077 112.02 10.6408 112.189 10.7524C112.367 10.8547 112.558 10.9055 112.764 10.9051L112.503 11.8857C111.607 11.8878 111.064 11.5251 110.873 10.7975C110.66 11.0967 110.367 11.3727 109.995 11.6256C109.633 11.8691 109.167 11.9916 108.597 11.9929ZM108.871 10.8723C109.226 10.8714 109.562 10.7866 109.878 10.6179C110.194 10.4398 110.459 10.2198 110.673 9.958L110.652 6.05206C110.399 5.87532 110.118 5.73599 109.809 5.63405C109.51 5.52276 109.192 5.46751 108.856 5.4683C108.408 5.46936 108.012 5.58697 107.668 5.82111C107.333 6.04591 107.069 6.36386 106.875 6.77499C106.682 7.17678 106.586 7.64834 106.589 8.18966C106.592 8.71232 106.692 9.17875 106.891 9.58895C107.089 9.98981 107.361 10.3065 107.708 10.539C108.054 10.7622 108.442 10.8733 108.871 10.8723ZM114.451 11.8111L114.412 4.53116L115.63 4.52828L115.637 5.74626C115.896 5.35365 116.225 5.02621 116.625 4.76393C117.025 4.49232 117.482 4.3559 117.995 4.35469C118.574 4.35332 119.046 4.4922 119.411 4.77134C119.786 5.05045 120.05 5.42316 120.201 5.88947C120.488 5.45945 120.827 5.09465 121.218 4.79506C121.617 4.49545 122.111 4.34495 122.699 4.34356C123.492 4.34168 124.082 4.59229 124.467 5.09538C124.862 5.58911 125.061 6.2373 125.066 7.03996L125.091 11.7859L123.831 11.7889L123.806 7.14094C123.803 6.63694 123.685 6.23123 123.45 5.92378C123.215 5.607 122.892 5.4491 122.481 5.45007C122.061 5.45107 121.67 5.61066 121.308 5.92885C120.955 6.23768 120.644 6.60242 120.375 7.02305L120.401 11.797L119.141 11.8L119.116 7.15203C119.113 6.64804 118.995 6.24232 118.76 5.93488C118.525 5.6181 118.202 5.4602 117.791 5.46117C117.38 5.46214 116.994 5.61705 116.632 5.92591C116.269 6.22543 115.954 6.58085 115.685 6.99215L115.711 11.8081L114.451 11.8111ZM130.175 11.9419C129.129 11.9443 128.297 11.615 127.677 10.9538C127.067 10.2832 126.759 9.34595 126.752 8.14196C126.748 7.41398 126.88 6.765 127.148 6.19503C127.425 5.61571 127.809 5.16214 128.302 4.8343C128.795 4.49714 129.368 4.32778 130.022 4.32624C130.722 4.32458 131.301 4.47721 131.76 4.78412C132.228 5.08168 132.581 5.48685 132.817 5.99962C133.053 6.5124 133.172 7.07678 133.176 7.69277C133.178 8.01943 133.165 8.33679 133.139 8.64486L128.043 8.65691C128.131 9.33804 128.371 9.86946 128.765 10.2512C129.16 10.6329 129.679 10.823 130.323 10.8215C130.743 10.8205 131.12 10.7776 131.456 10.6928C131.791 10.5987 132.113 10.4813 132.42 10.3406L132.72 11.4178C132.385 11.568 132.007 11.6902 131.588 11.7845C131.168 11.8882 130.697 11.9406 130.175 11.9419ZM128.023 7.63496L132.013 7.62552C132.01 6.9162 131.829 6.37062 131.473 5.9888C131.116 5.60698 130.625 5.41681 129.999 5.41829C129.458 5.41957 129.011 5.61196 128.659 5.99546C128.306 6.36963 128.094 6.91613 128.023 7.63496ZM137.636 11.9242C137.038 11.9256 136.492 11.7729 135.995 11.4661C135.499 11.1593 135.105 10.7262 134.812 10.1669C134.52 9.59825 134.372 8.93127 134.368 8.16595C134.364 7.42863 134.505 6.77029 134.791 6.19095C135.086 5.61159 135.476 5.15333 135.96 4.81619C136.452 4.47902 136.993 4.30975 137.581 4.30835C138.066 4.30721 138.482 4.40422 138.828 4.5994C139.184 4.79456 139.461 4.99457 139.658 5.19944L139.637 1.3915L140.897 1.38851L140.943 9.98439C140.945 10.3391 141.031 10.5722 141.199 10.6838C141.377 10.786 141.569 10.8369 141.774 10.8364L141.513 11.817C140.627 11.8191 140.083 11.4658 139.884 10.7569C139.68 11.0467 139.392 11.3134 139.02 11.5569C138.657 11.8005 138.196 11.9229 137.636 11.9242ZM137.91 10.8036C138.255 10.8027 138.581 10.7226 138.888 10.5633C139.205 10.3945 139.47 10.1792 139.683 9.91737L139.664 6.30542C139.485 6.08185 139.237 5.8771 138.918 5.69119C138.6 5.49594 138.249 5.39877 137.867 5.39968C137.419 5.40074 137.027 5.523 136.693 5.76645C136.358 6.00991 136.098 6.33719 135.914 6.74829C135.739 7.15004 135.653 7.60758 135.655 8.1209C135.658 8.63423 135.759 9.09599 135.957 9.50619C136.155 9.90705 136.423 10.2238 136.76 10.4563C137.106 10.6888 137.49 10.8046 137.91 10.8036ZM146.113 11.9042C145.506 11.9056 144.955 11.7529 144.458 11.4461C143.962 11.1392 143.563 10.7062 143.261 10.1469C142.969 9.57827 142.821 8.91128 142.817 8.14596C142.813 7.41797 142.954 6.76431 143.24 6.18496C143.536 5.6056 143.939 5.14731 144.451 4.8101C144.972 4.46354 145.568 4.28946 146.24 4.28787C146.66 4.28688 147.038 4.36065 147.375 4.50918C147.721 4.64836 148.021 4.82499 148.274 5.03906L148.271 4.45107L149.419 4.44835L149.449 9.96427C149.45 10.3189 149.536 10.5521 149.704 10.6637C149.882 10.7659 150.074 10.8168 150.279 10.8163L150.018 11.7969C149.122 11.799 148.579 11.4363 148.389 10.7088C148.176 11.0079 147.883 11.284 147.511 11.5369C147.148 11.7804 146.682 11.9028 146.113 11.9042ZM146.387 10.7835C146.742 10.7827 147.077 10.6979 147.394 10.5291C147.71 10.351 147.975 10.1311 148.188 9.86925L148.167 5.96331C147.914 5.78657 147.633 5.64724 147.325 5.5453C147.026 5.43401 146.708 5.37876 146.372 5.37956C145.924 5.38062 145.528 5.49822 145.184 5.73237C144.849 5.95716 144.585 6.27512 144.391 6.68624C144.197 7.08803 144.102 7.55959 144.105 8.10092C144.107 8.62357 144.208 9.09 144.406 9.5002C144.604 9.90106 144.877 10.2178 145.223 10.4503C145.57 10.6734 145.958 10.7845 146.387 10.7835ZM162.017 11.8665L160.785 9.20945C160.473 8.54753 160.083 8.07712 159.615 7.79822C159.147 7.51933 158.549 7.38075 157.821 7.38247L157.611 7.38297L157.634 11.7089L156.304 11.712L156.251 1.94019C156.746 1.89235 157.217 1.85857 157.665 1.83885C158.122 1.80977 158.607 1.79462 159.121 1.7934C160.315 1.79058 161.213 2.03112 161.813 2.51503C162.422 2.99892 162.729 3.62353 162.733 4.38885C162.736 5.07018 162.534 5.62132 162.126 6.04229C161.726 6.4539 161.145 6.76327 160.38 6.97041C160.633 7.08182 160.858 7.21662 161.055 7.37482C161.251 7.52369 161.439 7.72857 161.618 7.98948C161.806 8.24104 161.994 8.57193 162.183 8.98215L163.26 11.2756L162.017 11.8665ZM157.605 6.26298L159.145 6.25934C159.817 6.25775 160.362 6.10713 160.78 5.80747C161.199 5.50781 161.406 5.07799 161.403 4.518C161.401 4.05134 161.203 3.66914 160.809 3.37141C160.415 3.06434 159.855 2.91166 159.127 2.91339C158.809 2.91414 158.525 2.91948 158.273 2.92941C158.021 2.93934 157.792 2.95388 157.587 2.97303L157.605 6.26298ZM164.805 11.6919L164.765 4.41204L166.025 4.40906L166.065 11.689L164.805 11.6919ZM165.389 3.16457C165.146 3.16515 164.936 3.07698 164.757 2.90007C164.588 2.72313 164.503 2.518 164.502 2.28467C164.501 2.01401 164.579 1.79916 164.736 1.64012C164.894 1.48108 165.109 1.40124 165.379 1.4006C165.622 1.40002 165.828 1.4882 165.997 1.66514C166.175 1.83272 166.265 2.03784 166.266 2.2805C166.267 2.54183 166.189 2.75668 166.031 2.92505C165.874 3.08409 165.659 3.16393 165.389 3.16457ZM171.371 11.8444C170.681 11.846 170.059 11.6888 169.507 11.3728C168.954 11.0475 168.518 10.6005 168.198 10.0319C167.887 9.45399 167.729 8.79169 167.725 8.04504C167.721 7.26105 167.876 6.58402 168.19 6.01394C168.504 5.44386 168.936 5.00418 169.485 4.69488C170.034 4.38558 170.649 4.23013 171.33 4.22851C172.012 4.2269 172.624 4.37945 173.167 4.68617C173.719 4.99286 174.156 5.4305 174.476 5.99907C174.806 6.55829 174.973 7.22523 174.977 7.99988C174.981 8.77454 174.826 9.45157 174.512 10.031C174.197 10.6011 173.766 11.0454 173.217 11.364C172.677 11.6826 172.062 11.8428 171.371 11.8444ZM171.365 10.7244C172.103 10.7227 172.675 10.474 173.083 9.97836C173.491 9.47339 173.693 8.82425 173.689 8.03093C173.686 7.5456 173.581 7.10252 173.374 6.70168C173.166 6.2915 172.884 5.9655 172.529 5.72368C172.182 5.4725 171.784 5.34744 171.336 5.3485C170.599 5.35024 170.026 5.59426 169.618 6.08056C169.21 6.56686 169.008 7.21134 169.013 8.01399C169.015 8.49932 169.121 8.95173 169.328 9.37124C169.536 9.78142 169.813 10.1121 170.159 10.3633C170.515 10.6051 170.917 10.7255 171.365 10.7244ZM183.838 11.7589C183.268 11.7603 182.727 11.7475 182.213 11.7208C181.709 11.6939 181.308 11.6622 181.009 11.6256L180.956 1.88175C181.283 1.84364 181.689 1.81001 182.174 1.78087C182.659 1.75172 183.214 1.73641 183.84 1.73493C185.034 1.7321 185.955 1.95859 186.601 2.41439C187.248 2.86086 187.573 3.47143 187.577 4.24608C187.58 4.75941 187.442 5.1984 187.164 5.56306C186.896 5.91836 186.5 6.21329 185.979 6.44786C186.615 6.67035 187.097 6.98188 187.426 7.38243C187.755 7.77365 187.921 8.25859 187.924 8.83725C187.929 9.72391 187.582 10.4341 186.885 10.9677C186.188 11.492 185.172 11.7558 183.838 11.7589ZM182.309 6.07854L183.849 6.0749C184.586 6.07315 185.169 5.91777 185.596 5.60876C186.033 5.29973 186.251 4.90255 186.248 4.41722C186.245 3.89457 186.028 3.49841 185.598 3.22877C185.167 2.94978 184.578 2.81118 183.831 2.81294C183.523 2.81367 183.243 2.82367 182.992 2.84293C182.74 2.85286 182.506 2.86741 182.292 2.88659L182.309 6.07854ZM183.93 10.6527C184.76 10.6507 185.408 10.4999 185.873 10.2001C186.338 9.90034 186.569 9.46579 186.566 8.89646C186.563 8.33647 186.332 7.89835 185.873 7.58211C185.414 7.26586 184.76 7.10874 183.911 7.11075L182.315 7.11453L182.333 10.5725C182.828 10.6273 183.36 10.654 183.93 10.6527ZM189.687 11.6331L189.648 4.35318L190.866 4.3503L190.875 5.93228C190.994 5.62399 191.156 5.33895 191.36 5.07713C191.564 4.80598 191.819 4.59071 192.127 4.43132C192.434 4.26259 192.793 4.17774 193.203 4.17677C193.343 4.17644 193.483 4.18544 193.623 4.20378C193.763 4.21278 193.88 4.23117 193.974 4.25895L193.603 5.56182C193.425 5.48758 193.215 5.45074 192.972 5.45132C192.627 5.45213 192.296 5.55092 191.98 5.74766C191.673 5.94439 191.418 6.24833 191.215 6.65947C191.021 7.0706 190.926 7.59349 190.929 8.22814L190.947 11.6301L189.687 11.6331ZM197.642 11.7823C197.035 11.7837 196.484 11.631 195.988 11.3242C195.491 11.0173 195.092 10.5843 194.791 10.025C194.498 9.45637 194.35 8.78938 194.346 8.02406C194.342 7.29607 194.483 6.64241 194.769 6.06306C195.065 5.4837 195.468 5.02541 195.98 4.6882C196.501 4.34164 197.097 4.16756 197.769 4.16597C198.189 4.16498 198.568 4.23875 198.904 4.38728C199.25 4.52646 199.55 4.70309 199.803 4.91716L199.8 4.32916L200.948 4.32645L200.978 9.84237C200.98 10.197 201.065 10.4302 201.233 10.5418C201.411 10.644 201.603 10.6949 201.808 10.6944L201.548 11.675C200.652 11.6771 200.108 11.3144 199.918 10.5869C199.705 10.886 199.412 11.1621 199.04 11.415C198.677 11.6585 198.211 11.7809 197.642 11.7823ZM197.916 10.6616C198.271 10.6608 198.606 10.576 198.923 10.4072C199.239 10.2291 199.504 10.0092 199.717 9.74735L199.696 5.84141C199.443 5.66467 199.163 5.52534 198.854 5.4234C198.555 5.31211 198.237 5.25686 197.901 5.25766C197.453 5.25872 197.057 5.37632 196.713 5.61047C196.378 5.83526 196.114 6.15322 195.92 6.56434C195.726 6.96613 195.631 7.43769 195.634 7.97902C195.636 8.50167 195.737 8.9681 195.935 9.3783C196.133 9.77916 196.406 10.0959 196.752 10.3284C197.099 10.5515 197.487 10.6626 197.916 10.6616ZM203.496 11.6004L203.457 4.32051L204.675 4.31763L204.681 5.53562C204.94 5.143 205.27 4.81556 205.67 4.55328C206.079 4.28164 206.564 4.14517 207.124 4.14384C207.945 4.1419 208.558 4.38778 208.962 4.88149C209.375 5.37518 209.584 6.02802 209.588 6.84001L209.614 11.5859L208.354 11.5889L208.329 6.98298C208.326 6.46032 208.198 6.04063 207.944 5.7239C207.7 5.40714 207.358 5.24928 206.92 5.25032C206.49 5.25134 206.085 5.40629 205.704 5.7152C205.323 6.01476 204.998 6.3702 204.73 6.7815L204.756 11.5974L203.496 11.6004ZM214.722 11.7419C214.031 11.7435 213.424 11.5863 212.899 11.2702C212.384 10.9447 211.985 10.4977 211.702 9.929C211.419 9.351 211.275 8.68868 211.271 7.94202C211.268 7.24203 211.404 6.60238 211.681 6.02306C211.967 5.44371 212.376 4.98541 212.906 4.64816C213.436 4.30157 214.06 4.12743 214.779 4.12573C215.19 4.12476 215.549 4.16124 215.858 4.23518C216.175 4.30909 216.479 4.41571 216.769 4.55502L216.397 5.6199C216.135 5.48985 215.882 5.39712 215.639 5.34169C215.406 5.27691 215.144 5.24486 214.855 5.24555C214.202 5.24709 213.652 5.48639 213.207 5.96345C212.771 6.43114 212.555 7.08032 212.559 7.91098C212.562 8.41497 212.658 8.87207 212.847 9.28229C213.035 9.69251 213.294 10.0186 213.622 10.2605C213.959 10.5023 214.352 10.6227 214.8 10.6217C215.155 10.6208 215.458 10.5828 215.709 10.5075C215.961 10.4229 216.231 10.3056 216.519 10.1556L216.917 11.2187C216.629 11.378 216.303 11.5048 215.939 11.599C215.585 11.6931 215.179 11.7408 214.722 11.7419ZM221.315 11.7263C220.624 11.7279 220.002 11.5707 219.45 11.2547C218.898 10.9293 218.461 10.4823 218.141 9.91377C217.83 9.33584 217.672 8.67355 217.668 7.92689C217.664 7.1429 217.819 6.46587 218.133 5.89579C218.448 5.32572 218.879 4.88603 219.428 4.57673C219.977 4.26743 220.592 4.11198 221.274 4.11037C221.955 4.10875 222.567 4.26131 223.11 4.56802C223.662 4.87471 224.099 5.31235 224.419 5.88092C224.749 6.44014 224.916 7.10708 224.92 7.88173C224.924 8.65639 224.769 9.33342 224.455 9.91283C224.141 10.4829 223.709 10.9273 223.16 11.2459C222.62 11.5645 222.005 11.7246 221.315 11.7263ZM221.309 10.6063C222.046 10.6045 222.619 10.3558 223.027 9.86021C223.435 9.35525 223.636 8.7061 223.632 7.91278C223.63 7.42745 223.525 6.98437 223.317 6.58353C223.109 6.17335 222.828 5.84735 222.472 5.60553C222.125 5.35435 221.728 5.22929 221.28 5.23035C220.542 5.23209 219.97 5.47612 219.562 5.96241C219.154 6.44871 218.952 7.09319 218.956 7.89584C218.959 8.38117 219.064 8.83359 219.271 9.25309C219.479 9.66327 219.756 9.99395 220.103 10.2451C220.459 10.487 220.861 10.6073 221.309 10.6063ZM226.257 13.7866L225.569 13.3962C225.94 12.9193 226.236 12.4379 226.458 11.9521C226.688 11.4662 226.863 10.9105 226.981 10.2849L228.215 10.6319C228.125 11.3415 227.904 11.9627 227.553 12.4955C227.21 13.0283 226.778 13.4587 226.257 13.7866ZM237.805 11.6872C237.096 11.6889 236.479 11.5691 235.955 11.3276C235.431 11.0862 235.023 10.7605 234.732 10.3505C234.449 9.93119 234.307 9.46953 234.304 8.96553C234.301 8.35887 234.461 7.83116 234.786 7.3824C235.119 6.93361 235.64 6.55438 236.348 6.2447C235.851 5.97521 235.467 5.66345 235.195 5.30943C234.931 4.94606 234.798 4.49837 234.795 3.96638C234.793 3.49039 234.917 3.07476 235.167 2.7195C235.417 2.35491 235.756 2.06944 236.184 1.8631C236.622 1.65673 237.106 1.55292 237.638 1.55166C238.217 1.55029 238.726 1.65642 239.166 1.87004C239.606 2.07434 239.948 2.35819 240.193 2.72161C240.447 3.08501 240.575 3.49071 240.577 3.9387C240.58 4.50803 240.438 4.97036 240.151 5.32571C239.863 5.68105 239.478 5.98063 238.993 6.22444C239.686 6.51214 240.215 6.87489 240.581 7.31269C240.948 7.74115 241.132 8.25871 241.136 8.86537C241.139 9.42536 240.997 9.92037 240.71 10.3504C240.423 10.7711 240.028 11.0987 239.525 11.3332C239.022 11.5677 238.449 11.6857 237.805 11.6872ZM237.843 5.76517C238.253 5.6242 238.606 5.40869 238.904 5.11866C239.21 4.8286 239.362 4.47824 239.36 4.06758C239.358 3.63825 239.192 3.28398 238.864 3.00476C238.536 2.72553 238.129 2.58649 237.644 2.58764C237.168 2.58877 236.777 2.71569 236.47 2.96842C236.163 3.21181 236.011 3.53417 236.013 3.9355C236.015 4.33683 236.181 4.70043 236.509 5.02632C236.847 5.35219 237.291 5.59847 237.843 5.76517ZM237.813 10.5672C238.41 10.5658 238.899 10.4107 239.28 10.1018C239.661 9.78352 239.85 9.38174 239.848 8.89642C239.845 8.44842 239.643 8.04757 239.239 7.69386C238.845 7.34013 238.298 7.03809 237.596 6.78775C237.242 6.87259 236.912 7.00403 236.605 7.18209C236.298 7.36015 236.051 7.58007 235.866 7.84184C235.681 8.10361 235.589 8.40249 235.591 8.73849C235.593 9.08382 235.688 9.39626 235.876 9.67581C236.074 9.95535 236.341 10.174 236.678 10.3319C237.014 10.4898 237.393 10.5682 237.813 10.5672ZM246.199 11.6674C245.49 11.6691 244.873 11.5492 244.349 11.3078C243.825 11.0663 243.418 10.7406 243.126 10.3307C242.844 9.91133 242.701 9.44967 242.699 8.94567C242.695 8.33902 242.856 7.8113 243.18 7.36254C243.514 6.91375 244.034 6.53452 244.742 6.22484C244.246 5.95535 243.862 5.6436 243.589 5.28957C243.326 4.9262 243.193 4.47851 243.19 3.94652C243.187 3.47053 243.311 3.0549 243.561 2.69964C243.811 2.33505 244.15 2.04958 244.579 1.84324C245.016 1.63687 245.501 1.53306 246.033 1.5318C246.612 1.53043 247.121 1.63656 247.561 1.85018C248 2.05448 248.343 2.33833 248.587 2.70175C248.841 3.06515 248.969 3.47085 248.972 3.91884C248.975 4.48817 248.833 4.9505 248.545 5.30585C248.258 5.6612 247.872 5.96077 247.388 6.20459C248.08 6.49228 248.61 6.85503 248.976 7.29283C249.342 7.72129 249.527 8.23886 249.53 8.84551C249.533 9.4055 249.391 9.90051 249.104 10.3305C248.817 10.7512 248.422 11.0788 247.919 11.3133C247.417 11.5478 246.843 11.6659 246.199 11.6674ZM246.238 5.74531C246.647 5.60434 247.001 5.38884 247.298 5.0988C247.604 4.80874 247.757 4.45838 247.754 4.04772C247.752 3.6184 247.587 3.26412 247.259 2.9849C246.931 2.70567 246.524 2.56664 246.038 2.56778C245.562 2.56891 245.171 2.69584 244.864 2.94856C244.558 3.19195 244.406 3.51431 244.408 3.91564C244.41 4.31697 244.575 4.68058 244.904 5.00646C245.241 5.33233 245.686 5.57861 246.238 5.74531ZM246.207 10.5474C246.805 10.546 247.294 10.3908 247.675 10.0819C248.056 9.76367 248.245 9.36189 248.242 8.87656C248.24 8.42857 248.037 8.02771 247.634 7.674C247.24 7.32027 246.692 7.01823 245.991 6.76789C245.637 6.85273 245.306 6.98418 244.999 7.16224C244.692 7.34029 244.446 7.56021 244.261 7.82198C244.075 8.08375 243.984 8.38264 243.985 8.71863C243.987 9.06396 244.082 9.3764 244.271 9.65595C244.468 9.93549 244.735 10.1542 245.072 10.3121C245.409 10.4699 245.787 10.5484 246.207 10.5474ZM254.104 11.6487C253.535 11.65 253.044 11.5905 252.633 11.4702C252.222 11.3405 251.847 11.1594 251.51 10.9268L252.162 9.84729C252.424 10.0333 252.715 10.1913 253.033 10.3212C253.351 10.4418 253.71 10.5016 254.112 10.5007C254.737 10.4992 255.24 10.3207 255.621 9.9651C256.002 9.6002 256.19 9.13776 256.187 8.57776C256.184 7.99911 255.981 7.52825 255.578 7.16521C255.184 6.79281 254.618 6.60748 253.881 6.60922L252.145 6.61333L252.118 1.6854L256.962 1.67394L256.968 2.80793L253.314 2.81657L253.329 5.47653L254.029 5.47488C254.757 5.47315 255.378 5.59768 255.893 5.84847C256.417 6.09923 256.815 6.44828 257.088 6.89564C257.371 7.34297 257.514 7.85596 257.517 8.43462C257.52 9.05995 257.378 9.61561 257.092 10.1016C256.814 10.5783 256.419 10.9572 255.908 11.2384C255.396 11.5103 254.795 11.6471 254.104 11.6487ZM264.712 7.2276L264.706 6.07962L269.466 6.06836L269.472 7.21634L264.712 7.2276ZM279.203 11.5893C278.522 11.5909 277.901 11.5037 277.34 11.3277C276.779 11.1424 276.306 10.9008 275.922 10.6031L276.588 9.4815C276.926 9.7607 277.305 9.98847 277.726 10.1648C278.147 10.3411 278.637 10.4287 279.197 10.4273C279.869 10.4257 280.4 10.2845 280.791 10.0036C281.181 9.72264 281.375 9.34418 281.373 8.86818C281.371 8.59752 281.314 8.35966 281.201 8.15459C281.088 7.94019 280.867 7.73538 280.54 7.54016C280.221 7.33558 279.749 7.11736 279.122 6.88551C278.449 6.62577 277.911 6.36571 277.508 6.10533C277.105 5.83562 276.814 5.53297 276.635 5.1974C276.465 4.85247 276.379 4.44667 276.376 3.98001C276.374 3.51335 276.498 3.09306 276.748 2.71914C277.007 2.33586 277.383 2.03163 277.877 1.80647C278.38 1.57194 278.986 1.45384 279.695 1.45217C280.274 1.4508 280.792 1.51024 281.25 1.63049C281.717 1.74138 282.171 1.90364 282.61 2.11727L282.127 3.25241C281.808 3.0665 281.434 2.91338 281.004 2.79307C280.583 2.6634 280.14 2.59911 279.673 2.60022C279.057 2.60167 278.572 2.72415 278.219 2.96766C277.866 3.21116 277.69 3.52424 277.692 3.9069C277.693 4.14956 277.746 4.36411 277.85 4.55053C277.953 4.73695 278.155 4.91847 278.454 5.09509C278.763 5.2717 279.222 5.47128 279.83 5.69384C280.559 5.96278 281.135 6.24609 281.556 6.54375C281.987 6.8414 282.292 7.16735 282.472 7.52159C282.651 7.8665 282.742 8.26295 282.744 8.71094C282.747 9.3176 282.596 9.83596 282.29 10.266C281.994 10.696 281.576 11.0237 281.036 11.249C280.505 11.4742 279.894 11.5877 279.203 11.5893ZM287.37 11.57C286.764 11.5714 286.212 11.4187 285.716 11.1119C285.22 10.8051 284.821 10.372 284.519 9.81274C284.227 9.2441 284.078 8.57712 284.074 7.8118C284.07 7.08381 284.211 6.43014 284.498 5.8508C284.793 5.27143 285.197 4.81315 285.708 4.47594C286.229 4.12937 286.825 3.95529 287.497 3.9537C287.917 3.95271 288.296 4.02648 288.633 4.17502C288.979 4.3142 289.278 4.49082 289.532 4.70489L289.528 4.1169L290.676 4.11418L290.706 9.6301C290.708 9.98477 290.793 10.2179 290.962 10.3295C291.14 10.4317 291.331 10.4826 291.537 10.4821L291.276 11.4628C290.38 11.4649 289.837 11.1022 289.646 10.3746C289.433 10.6738 289.14 10.9498 288.768 11.2027C288.406 11.4462 287.94 11.5686 287.37 11.57ZM287.644 10.4493C287.999 10.4485 288.335 10.3637 288.651 10.195C288.967 10.0169 289.232 9.79692 289.445 9.53509L289.424 5.62914C289.172 5.45241 288.891 5.31307 288.582 5.21114C288.283 5.09984 287.965 5.0446 287.629 5.04539C287.181 5.04645 286.785 5.16405 286.441 5.3982C286.106 5.62299 285.842 5.94095 285.648 6.35207C285.454 6.75387 285.359 7.22542 285.362 7.76675C285.365 8.28941 285.465 8.75584 285.663 9.16603C285.862 9.5669 286.134 9.88359 286.481 10.1161C286.827 10.3393 287.215 10.4504 287.644 10.4493ZM285.966 2.89333L285.471 2.0265C285.638 1.83944 285.852 1.67093 286.112 1.52098C286.373 1.37104 286.643 1.29573 286.923 1.29507C287.156 1.29451 287.357 1.33604 287.526 1.41964C287.694 1.49391 287.853 1.57287 288.003 1.65651C288.162 1.7308 288.34 1.76772 288.536 1.76725C288.741 1.76677 288.923 1.72434 289.081 1.63996C289.239 1.54625 289.379 1.44326 289.499 1.33097L289.994 2.2118C289.827 2.37086 289.632 2.52066 289.409 2.66119C289.195 2.79236 288.943 2.85829 288.654 2.85897C288.411 2.85955 288.205 2.8227 288.037 2.74843C287.869 2.66483 287.705 2.58588 287.546 2.51159C287.387 2.42797 287.2 2.38641 286.985 2.38692C286.78 2.3874 286.593 2.43918 286.426 2.54224C286.258 2.6453 286.105 2.76233 285.966 2.89333ZM293.302 14.468L293.256 5.97008C293.254 5.65275 293.174 5.42894 293.014 5.29865C292.864 5.15901 292.668 5.08947 292.425 5.09004L292.686 4.10943C293.545 4.1074 294.083 4.44679 294.301 5.12761C294.394 4.98739 294.542 4.8237 294.747 4.63655C294.96 4.44938 295.221 4.28543 295.528 4.14471C295.845 4.00396 296.204 3.93311 296.605 3.93216C297.165 3.93083 297.688 4.07893 298.175 4.37644C298.672 4.6646 299.071 5.08832 299.372 5.64761C299.674 6.19756 299.827 6.8692 299.831 7.66252C299.835 8.43718 299.69 9.11885 299.394 9.70755C299.098 10.2869 298.709 10.7405 298.225 11.0683C297.751 11.3868 297.234 11.5467 296.674 11.548C296.245 11.549 295.843 11.4659 295.469 11.2988C295.094 11.1224 294.785 10.9225 294.541 10.699L294.562 14.465L293.302 14.468ZM296.416 10.4286C297.051 10.4271 297.563 10.1785 297.952 9.68296C298.351 9.17802 298.548 8.51956 298.543 7.70757C298.54 7.14757 298.435 6.66716 298.228 6.26632C298.029 5.86545 297.762 5.55809 297.425 5.34422C297.097 5.13033 296.732 5.02386 296.331 5.02481C295.93 5.02575 295.566 5.12928 295.24 5.33538C294.924 5.53213 294.683 5.74737 294.516 5.9811L294.535 9.56505C294.779 9.81647 295.06 10.0258 295.379 10.193C295.697 10.351 296.043 10.4295 296.416 10.4286ZM305.942 11.3581L305.89 1.5862C306.272 1.53863 306.692 1.50497 307.149 1.48522C307.616 1.45612 308.096 1.44098 308.591 1.43981C309.403 1.43789 310.094 1.56692 310.665 1.8269C311.236 2.07755 311.672 2.42652 311.973 2.87381C312.274 3.32109 312.426 3.83407 312.429 4.41272C312.433 5.11271 312.263 5.70578 311.92 6.19192C311.578 6.67807 311.099 7.05253 310.484 7.31532C309.87 7.56877 309.157 7.69646 308.345 7.69838C307.953 7.69931 307.588 7.68617 307.252 7.65896L307.272 11.3549L305.942 11.3581ZM308.507 6.592C309.337 6.59003 309.98 6.40185 310.436 6.02744C310.891 5.65303 311.117 5.15316 311.114 4.52784C311.11 3.92118 310.888 3.44104 310.448 3.08741C310.007 2.73379 309.381 2.55794 308.569 2.55986C308.317 2.56045 308.079 2.56568 307.855 2.57555C307.631 2.58541 307.421 2.59991 307.225 2.61904L307.246 6.52498C307.396 6.54329 307.578 6.56153 307.793 6.57969C308.007 6.58851 308.245 6.59262 308.507 6.592ZM316.519 11.501C315.912 11.5025 315.361 11.3498 314.864 11.043C314.368 10.7361 313.969 10.3031 313.667 9.74379C313.375 9.17514 313.227 8.50816 313.223 7.74284C313.219 7.01485 313.36 6.36119 313.646 5.78184C313.942 5.20248 314.345 4.74419 314.857 4.40698C315.377 4.06042 315.974 3.88634 316.646 3.88475C317.066 3.88376 317.444 3.95753 317.781 4.10606C318.127 4.24524 318.427 4.42187 318.68 4.63594L318.677 4.04794L319.825 4.04523L319.854 9.56115C319.856 9.91581 319.942 10.1489 320.11 10.2605C320.288 10.3628 320.48 10.4137 320.685 10.4132L320.424 11.3938C319.528 11.3959 318.985 11.0332 318.794 10.3057C318.581 10.6048 318.289 10.8809 317.917 11.1337C317.554 11.3773 317.088 11.4997 316.519 11.501ZM316.793 10.3804C317.147 10.3796 317.483 10.2948 317.799 10.126C318.116 9.94793 318.381 9.72797 318.594 9.46613L318.573 5.56019C318.32 5.38345 318.039 5.24412 317.731 5.14218C317.431 5.03089 317.114 4.97564 316.778 4.97644C316.33 4.9775 315.934 5.0951 315.59 5.32925C315.255 5.55404 314.99 5.87199 314.797 6.28312C314.603 6.68491 314.507 7.15647 314.51 7.69779C314.513 8.22045 314.614 8.68688 314.812 9.09708C315.01 9.49794 315.282 9.81463 315.629 10.0471C315.975 10.2703 316.363 10.3814 316.793 10.3804ZM324.753 11.4816C324.333 11.4826 323.936 11.3948 323.562 11.2184C323.188 11.0419 322.883 10.758 322.647 10.3665C322.412 9.96576 322.292 9.43405 322.289 8.77139L322.263 4.03946L323.523 4.03648L323.548 8.60041C323.551 9.16974 323.675 9.60811 323.919 9.91553C324.163 10.2136 324.519 10.3621 324.985 10.361C325.368 10.3601 325.736 10.2846 326.09 10.1344C326.453 9.97487 326.774 9.76411 327.053 9.50212L327.023 4.0282L328.283 4.02522L328.312 9.41514C328.314 9.81647 328.4 10.0823 328.569 10.2125C328.747 10.3334 328.938 10.3937 329.144 10.3932L328.883 11.3738C328.015 11.3758 327.476 11.0318 327.267 10.3416C326.942 10.6784 326.566 10.9546 326.138 11.1703C325.709 11.3766 325.248 11.4804 324.753 11.4816ZM333.035 11.462C332.605 11.463 332.217 11.3846 331.871 11.2267C331.525 11.0595 331.248 10.7942 331.041 10.4307C330.843 10.0672 330.742 9.59606 330.739 9.0174L330.696 0.939517L331.956 0.936536L331.999 8.88842C332.001 9.39241 332.106 9.7655 332.313 10.0077C332.529 10.2498 332.823 10.3705 333.197 10.3696C333.374 10.3692 333.547 10.3501 333.714 10.3124C333.891 10.2653 334.041 10.2136 334.162 10.1573L334.475 11.1786C334.307 11.2536 334.098 11.3195 333.846 11.376C333.604 11.4326 333.333 11.4613 333.035 11.462ZM338.523 11.449C337.833 11.4506 337.211 11.2934 336.659 10.9774C336.106 10.652 335.67 10.2051 335.35 9.63649C335.038 9.05856 334.881 8.39627 334.877 7.64961C334.873 6.86563 335.028 6.18859 335.342 5.61852C335.656 5.04844 336.088 4.60875 336.637 4.29946C337.186 3.99016 337.801 3.8347 338.482 3.83309C339.164 3.83148 339.776 3.98403 340.319 4.29075C340.871 4.59744 341.308 5.03507 341.628 5.60365C341.958 6.16287 342.124 6.8298 342.129 7.60446C342.133 8.37911 341.978 9.05615 341.664 9.63556C341.349 10.2056 340.918 10.65 340.369 10.9686C339.829 11.2872 339.214 11.4473 338.523 11.449ZM338.517 10.329C339.255 10.3273 339.827 10.0786 340.235 9.58293C340.643 9.07797 340.845 8.42883 340.841 7.63551C340.838 7.15018 340.733 6.7071 340.526 6.30625C340.318 5.89608 340.036 5.57008 339.68 5.32825C339.334 5.07708 338.936 4.95202 338.488 4.95308C337.751 4.95482 337.178 5.19884 336.77 5.68514C336.362 6.17144 336.16 6.81591 336.165 7.61857C336.167 8.10389 336.272 8.55631 336.48 8.97582C336.688 9.38599 336.965 9.71667 337.311 9.96785C337.667 10.2097 338.069 10.3301 338.517 10.329ZM348.698 7.02892L348.692 5.88094L353.452 5.86968L353.458 7.01766L348.698 7.02892ZM363.189 11.3906C362.508 11.3922 361.887 11.305 361.326 11.129C360.765 10.9437 360.292 10.7022 359.908 10.4044L360.574 9.28282C360.912 9.56202 361.291 9.78979 361.712 9.96613C362.133 10.1425 362.623 10.23 363.183 10.2286C363.855 10.2271 364.386 10.0858 364.777 9.80488C365.167 9.52395 365.361 9.1455 365.359 8.6695C365.357 8.39884 365.3 8.16098 365.187 7.95591C365.074 7.74151 364.853 7.5367 364.526 7.34148C364.207 7.1369 363.735 6.91868 363.108 6.68683C362.435 6.42709 361.897 6.16703 361.494 5.90665C361.091 5.63694 360.8 5.33429 360.621 4.99872C360.451 4.65379 360.365 4.24799 360.363 3.78133C360.36 3.31467 360.484 2.89438 360.734 2.52045C360.993 2.13717 361.369 1.83295 361.863 1.60778C362.366 1.37326 362.972 1.25516 363.681 1.25348C364.26 1.25212 364.778 1.31156 365.236 1.43181C365.703 1.5427 366.157 1.70496 366.597 1.91859L366.113 3.05373C365.794 2.86782 365.42 2.7147 364.99 2.59438C364.57 2.46471 364.126 2.40043 363.659 2.40153C363.043 2.40299 362.558 2.52547 362.205 2.76897C361.852 3.01248 361.676 3.32556 361.678 3.70822C361.679 3.95088 361.732 4.16542 361.836 4.35184C361.939 4.53827 362.141 4.71979 362.441 4.89641C362.75 5.07301 363.208 5.2726 363.816 5.49516C364.545 5.7641 365.121 6.0474 365.542 6.34507C365.973 6.64272 366.278 6.96866 366.458 7.32291C366.637 7.66781 366.728 8.06427 366.73 8.51226C366.733 9.11892 366.582 9.63727 366.276 10.0673C365.98 10.4974 365.562 10.825 365.022 11.0503C364.491 11.2756 363.88 11.389 363.189 11.3906ZM368.71 11.2096L368.657 1.43771C369.039 1.39014 369.459 1.35648 369.917 1.33673C370.383 1.30763 370.864 1.29249 371.358 1.29132C372.17 1.2894 372.862 1.41843 373.432 1.67842C374.003 1.92906 374.439 2.27803 374.74 2.72532C375.041 3.17261 375.193 3.68558 375.196 4.26424C375.2 4.96423 375.031 5.55729 374.688 6.04344C374.345 6.52958 373.866 6.90405 373.252 7.16683C372.637 7.42029 371.924 7.54797 371.112 7.54989C370.72 7.55082 370.356 7.53768 370.02 7.51048L370.04 11.2064L368.71 11.2096ZM371.274 6.44351C372.105 6.44155 372.748 6.25336 373.203 5.87895C373.658 5.50454 373.884 5.00467 373.881 4.37935C373.878 3.77269 373.656 3.29255 373.215 2.93893C372.775 2.5853 372.148 2.40945 371.336 2.41137C371.084 2.41197 370.846 2.4172 370.622 2.42706C370.398 2.43692 370.189 2.45142 369.993 2.47055L370.014 6.37649C370.163 6.39481 370.345 6.41304 370.56 6.4312C370.775 6.44003 371.013 6.44413 371.274 6.44351ZM381.579 6.95113L381.573 5.80315L386.333 5.79189L386.339 6.93987L381.579 6.95113ZM397.4 11.3097C396.551 11.3117 395.798 11.1128 395.143 10.713C394.487 10.3039 393.976 9.72647 393.608 8.98068C393.24 8.22555 393.053 7.32999 393.047 6.29401C393.042 5.29535 393.219 4.41294 393.579 3.64675C393.948 2.87121 394.468 2.26799 395.137 1.83707C395.816 1.3968 396.608 1.17559 397.514 1.17345C397.98 1.17234 398.405 1.21801 398.788 1.31043C399.172 1.39353 399.532 1.51401 399.868 1.67188L399.468 2.79282C399.178 2.65351 398.879 2.54222 398.571 2.45895C398.272 2.37565 397.917 2.33449 397.506 2.33546C396.909 2.33688 396.373 2.49215 395.898 2.80127C395.433 3.11037 395.067 3.55456 394.8 4.13386C394.532 4.71316 394.401 5.41347 394.405 6.23479C394.409 7.01878 394.543 7.70446 394.808 8.29184C395.082 8.87919 395.453 9.33564 395.921 9.6612C396.399 9.98674 396.941 10.1488 397.548 10.1474C398.005 10.1463 398.402 10.0893 398.737 9.97654C399.072 9.86375 399.398 9.71831 399.715 9.54023L400.127 10.6453C399.782 10.8327 399.387 10.9923 398.939 11.1241C398.501 11.2464 397.988 11.3083 397.4 11.3097ZM401.946 11.1309L401.893 1.33109L407.773 1.31718L407.779 2.46516L403.229 2.47592L403.245 5.45788L407.165 5.44861L407.171 6.56859L403.251 6.57787L403.27 9.97982L407.82 9.96905L407.826 11.117L401.946 11.1309ZM409.711 11.1126L409.659 1.34072C410.041 1.29315 410.461 1.25949 410.918 1.23974C411.385 1.21063 411.865 1.1955 412.36 1.19433C413.172 1.19241 413.863 1.32144 414.434 1.58142C415.005 1.83207 415.441 2.18104 415.742 2.62832C416.043 3.07561 416.195 3.58858 416.198 4.16724C416.202 4.86723 416.032 5.4603 415.69 5.94644C415.347 6.43258 414.868 6.80705 414.254 7.06984C413.639 7.32329 412.926 7.45098 412.114 7.4529C411.722 7.45383 411.358 7.44069 411.022 7.41348L411.041 11.1094L409.711 11.1126ZM412.276 6.34652C413.106 6.34455 413.749 6.15636 414.205 5.78195C414.66 5.40754 414.886 4.90768 414.883 4.28235C414.879 3.6757 414.658 3.19555 414.217 2.84193C413.776 2.48831 413.15 2.31246 412.338 2.31438C412.086 2.31497 411.848 2.3202 411.624 2.33007C411.4 2.33993 411.19 2.35443 410.994 2.37356L411.015 6.2795C411.165 6.29781 411.347 6.31605 411.562 6.33421C411.776 6.34303 412.014 6.34714 412.276 6.34652ZM418.656 5.51942C418.404 5.52002 418.184 5.42721 417.997 5.24099C417.809 5.05476 417.715 4.83565 417.713 4.58366C417.712 4.29433 417.794 4.06547 417.961 3.89707C418.129 3.72868 418.357 3.64414 418.646 3.64345C418.889 3.64288 419.104 3.7357 419.292 3.92192C419.489 4.10812 419.588 4.32722 419.589 4.57922C419.591 4.85922 419.503 5.08809 419.327 5.26584C419.15 5.43426 418.927 5.51878 418.656 5.51942ZM418.687 11.2593C418.435 11.2599 418.215 11.1671 418.028 10.9809C417.84 10.7947 417.745 10.5756 417.744 10.3236C417.742 10.0342 417.825 9.80538 417.992 9.63699C418.159 9.46859 418.388 9.38405 418.677 9.38337C418.92 9.38279 419.135 9.47562 419.322 9.66184C419.519 9.84804 419.619 10.0671 419.62 10.3191C419.622 10.5991 419.534 10.828 419.358 11.0058C419.181 11.1742 418.958 11.2587 418.687 11.2593ZM429.168 11.2345C428.076 11.2371 427.243 10.7958 426.668 9.91046C426.094 9.01582 425.803 7.76585 425.794 6.16054C425.786 4.54589 426.068 3.29923 426.642 2.42054C427.225 1.54183 428.058 1.10119 429.141 1.09863C430.233 1.09605 431.066 1.53741 431.64 2.42271C432.214 3.30802 432.506 4.558 432.514 6.17264C432.523 7.78728 432.236 9.03396 431.652 9.91267C431.079 10.7914 430.25 11.232 429.168 11.2345ZM429.175 10.0865C429.595 10.0855 429.954 9.96336 430.251 9.71999C430.558 9.46726 430.789 9.05605 430.945 8.48635C431.11 7.91663 431.19 7.15111 431.184 6.18979C431.178 4.9018 430.99 3.92225 430.623 3.25112C430.264 2.57997 429.768 2.24514 429.133 2.24665C428.713 2.24764 428.35 2.3745 428.043 2.62722C427.746 2.87059 427.515 3.27714 427.35 3.84686C427.194 4.40723 427.119 5.17274 427.124 6.14339C427.131 7.43137 427.314 8.41094 427.672 9.08209C428.04 9.75322 428.541 10.088 429.175 10.0865ZM437.632 11.2145C437.044 11.2159 436.497 11.0725 435.992 10.7844C435.495 10.4869 435.096 10.0305 434.794 9.41524C434.492 8.79996 434.339 8.02099 434.334 7.07833C434.33 6.28501 434.428 5.53811 434.63 4.83764C434.841 4.12781 435.155 3.50173 435.572 2.95941C435.998 2.41707 436.523 1.99116 437.147 1.68169C437.771 1.37221 438.498 1.21649 439.328 1.21453C439.412 1.21433 439.501 1.21879 439.594 1.2279C439.697 1.22766 439.786 1.23211 439.86 1.24127L439.867 2.38925C439.792 2.3801 439.708 2.37563 439.615 2.37585C439.521 2.36674 439.433 2.36228 439.349 2.36248C438.331 2.36489 437.493 2.67954 436.834 3.30643C436.184 3.92396 435.787 4.77423 435.643 5.85724C435.903 5.60462 436.238 5.37517 436.648 5.16886C437.057 4.95323 437.523 4.84479 438.046 4.84356C438.568 4.84232 439.036 4.96255 439.448 5.20424C439.86 5.44593 440.184 5.78583 440.419 6.22394C440.664 6.65269 440.788 7.16573 440.792 7.76306C440.795 8.44438 440.658 9.0467 440.381 9.57002C440.113 10.084 439.742 10.4862 439.268 10.7767C438.793 11.0671 438.248 11.2131 437.632 11.2145ZM437.682 10.0664C438.242 10.0651 438.689 9.85869 439.023 9.44724C439.366 9.03576 439.536 8.52669 439.532 7.92003C439.529 7.31338 439.363 6.82377 439.034 6.45122C438.706 6.07866 438.271 5.89302 437.729 5.8943C437.328 5.89525 436.946 5.99416 436.583 6.19102C436.22 6.38787 435.9 6.64996 435.621 6.97729L435.623 7.28528C435.646 8.16256 435.851 8.84808 436.236 9.34183C436.631 9.82623 437.113 10.0678 437.682 10.0664ZM446.852 11.0247L446.84 8.93874L442.654 8.94865L442.649 7.94066L445.538 1.12984L446.633 1.58925L444.02 7.79742L446.834 7.79076L446.819 5.0048L448.079 5.00182L448.094 7.78778L449.256 7.78503L449.262 8.93302L448.1 8.93576L448.112 11.0217L446.852 11.0247ZM453.945 11.1759C453.376 11.1773 452.885 11.1178 452.474 10.9974C452.063 10.8677 451.688 10.6866 451.351 10.4541L452.003 9.37453C452.266 9.56058 452.556 9.71856 452.874 9.84847C453.192 9.96905 453.552 10.0289 453.953 10.0279C454.578 10.0264 455.081 9.84791 455.462 9.49235C455.843 9.12745 456.032 8.665 456.029 8.10501C456.025 7.52635 455.822 7.0555 455.419 6.69245C455.025 6.32005 454.459 6.13473 453.722 6.13647L451.986 6.14058L451.96 1.21265L456.804 1.20119L456.81 2.33517L453.156 2.34382L453.17 5.00378L453.87 5.00212C454.598 5.0004 455.219 5.12493 455.734 5.37571C456.258 5.62647 456.656 5.97553 456.93 6.42288C457.212 6.87021 457.355 7.38321 457.358 7.96187C457.361 8.58719 457.22 9.14286 456.933 9.62887C456.655 10.1055 456.261 10.4845 455.749 10.7657C455.237 11.0375 454.636 11.1743 453.945 11.1759ZM460.356 6.76478L460.35 5.61679L465.11 5.60553L465.116 6.75351L460.356 6.76478ZM471.14 11.1353C470.048 11.1378 469.215 10.6965 468.641 9.81117C468.067 8.91653 467.775 7.66656 467.767 6.06125C467.758 4.4466 468.041 3.19994 468.615 2.32125C469.198 1.44253 470.031 1.0019 471.114 0.999337C472.206 0.996753 473.039 1.43812 473.613 2.32342C474.187 3.20873 474.478 4.4587 474.487 6.07335C474.496 7.68799 474.208 8.93467 473.625 9.81338C473.051 10.6921 472.223 11.1327 471.14 11.1353ZM471.148 9.98724C471.568 9.98625 471.927 9.86406 472.224 9.62069C472.531 9.36797 472.762 8.95676 472.917 8.38706C473.082 7.81733 473.162 7.05181 473.157 6.09049C473.15 4.80251 472.963 3.82296 472.595 3.15183C472.237 2.48068 471.74 2.14585 471.106 2.14735C470.686 2.14835 470.322 2.27521 470.016 2.52793C469.718 2.7713 469.487 3.17785 469.322 3.74757C469.167 4.30794 469.092 5.07345 469.097 6.0441C469.104 7.33208 469.286 8.31165 469.645 8.9828C470.012 9.65393 470.513 9.98874 471.148 9.98724ZM476.58 10.9544C476.551 10.7865 476.536 10.6138 476.535 10.4365C476.532 9.82984 476.631 9.28827 476.834 8.81179C477.046 8.32596 477.319 7.88664 477.653 7.49386C477.987 7.09173 478.34 6.72223 478.711 6.38535C479.092 6.03912 479.445 5.71162 479.77 5.40285C480.104 5.08473 480.378 4.76675 480.591 4.44891C480.804 4.13107 480.909 3.79949 480.907 3.45416C480.905 3.06217 480.759 2.74052 480.468 2.4892C480.178 2.22856 479.803 2.09878 479.346 2.09986C478.954 2.10079 478.595 2.18097 478.269 2.34041C477.953 2.49049 477.655 2.69652 477.377 2.95852L476.672 2.10618C477.044 1.76931 477.453 1.49767 477.9 1.29128C478.356 1.08487 478.883 0.980958 479.48 0.979544C480.031 0.978242 480.512 1.08444 480.924 1.29813C481.336 1.50249 481.654 1.7864 481.88 2.14986C482.116 2.51331 482.235 2.91902 482.237 3.36702C482.239 3.81501 482.144 4.23057 481.95 4.6137C481.756 4.99682 481.506 5.35674 481.199 5.69347C480.893 6.03019 480.564 6.35764 480.211 6.67581C479.858 6.98464 479.519 7.30278 479.194 7.63021C478.869 7.95764 478.591 8.29897 478.359 8.65418C478.137 9.00937 477.999 9.39237 477.946 9.80316L482.258 9.79296L482.264 10.9409L476.58 10.9544ZM486.472 10.931C486.466 9.85767 486.531 8.90552 486.667 8.07453C486.812 7.23419 487.018 6.4777 487.285 5.80507C487.561 5.13242 487.903 4.51095 488.311 3.94065C488.718 3.37035 489.187 2.81391 489.716 2.27133L484.998 2.28249L484.992 1.13451L491.208 1.1198L491.213 2.12779C490.572 2.75463 490.039 3.36723 489.613 3.96557C489.187 4.55458 488.845 5.18072 488.587 5.84399C488.329 6.49793 488.146 7.24037 488.039 8.07128C487.931 8.89287 487.88 9.84499 487.886 10.9276L486.472 10.931Z" fill="white"/>
</svg>
