<svg width="661" height="30" viewBox="0 0 661 30" fill="none" xmlns="http://www.w3.org/2000/svg">
<path d="M10.08 0.439998C10.6133 0.439998 11.2667 0.466665 12.04 0.52C12.84 0.573332 13.6533 0.653332 14.48 0.759999C15.3333 0.839999 16.0667 0.933332 16.68 1.04C17.32 1.12 17.76 1.21333 18 1.32L17.52 6.72H17.12C17.12 5.33333 16.6 4.22667 15.56 3.4C14.5467 2.54666 13.1867 2.12 11.48 2.12C9.93333 2.12 8.68 2.49333 7.72 3.24C6.78667 3.98666 6.29333 4.89333 6.24 5.96C6.21333 6.76 6.46667 7.45333 7 8.04C7.53333 8.62667 8.21333 9.17333 9.04 9.68L16.68 14.64C17.9067 15.3333 18.8267 16.24 19.44 17.36C20.08 18.48 20.36 19.7867 20.28 21.28C20.1467 23.8933 19.1467 25.9333 17.28 27.4C15.4133 28.84 12.88 29.56 9.68 29.56C8.50667 29.56 7.36 29.4533 6.24 29.24C5.14667 29.0533 4.17333 28.7867 3.32 28.44C2.46667 28.0667 1.78667 27.6267 1.28 27.12C1.06667 26.5333 0.973333 25.8267 1 25C1.02667 24.1733 1.14667 23.3333 1.36 22.48C1.6 21.6267 1.89333 20.92 2.24 20.36H2.6C2.49333 21.72 2.73333 22.9867 3.32 24.16C3.93333 25.3067 4.81333 26.2267 5.96 26.92C7.13333 27.5867 8.52 27.9067 10.12 27.88C11.88 27.8533 13.24 27.4133 14.2 26.56C15.16 25.68 15.64 24.6267 15.64 23.4C15.64 22.5733 15.3867 21.8267 14.88 21.16C14.4 20.4933 13.6 19.8533 12.48 19.24L5.48 14.6C4.06667 13.8 3.04 12.7733 2.4 11.52C1.76 10.2667 1.50667 8.90667 1.64 7.44C1.77333 6.05333 2.18667 4.84 2.88 3.8C3.57333 2.73333 4.52 1.90667 5.72 1.32C6.94667 0.733332 8.4 0.439998 10.08 0.439998ZM18.04 0.839998L17.96 1.68H13.24V0.839998H18.04ZM31.8078 5V29H26.0478V5H31.8078ZM41.1678 27.4L42.0878 29H31.7278V27.4H41.1678ZM39.8078 16.32V17.92H31.7278V16.32H39.8078ZM41.6078 5V6.6H31.7278V5H41.6078ZM43.7278 21.64L42.2078 29H35.2878L36.5278 27.4C37.6745 27.4 38.6878 27.1733 39.5678 26.72C40.4745 26.24 41.2478 25.5733 41.8878 24.72C42.5278 23.84 43.0211 22.8133 43.3678 21.64H43.7278ZM39.8078 17.84V21.36H39.4078V21.04C39.4078 20.16 39.1278 19.4267 38.5678 18.84C38.0345 18.2533 37.3011 17.9467 36.3678 17.92V17.84H39.8078ZM39.8078 12.88V16.4H36.3678V16.32C37.3011 16.2933 38.0345 15.9867 38.5678 15.4C39.1278 14.7867 39.4078 14.04 39.4078 13.16V12.88H39.8078ZM41.6078 6.52V10.76H41.2078V10.4C41.2078 9.22667 40.8878 8.30667 40.2478 7.64C39.6345 6.97333 38.7411 6.62667 37.5678 6.6V6.52H41.6078ZM41.6078 4.4V5.36L37.4078 5C38.1811 5 38.9945 4.93333 39.8478 4.8C40.7011 4.64 41.2878 4.50667 41.6078 4.4ZM26.1278 26.48L26.3278 29H23.3678V28.6C23.3678 28.6 23.4478 28.6 23.6078 28.6C23.7678 28.6 23.8611 28.6 23.8878 28.6C24.4745 28.6 24.9678 28.4 25.3678 28C25.7945 27.5733 26.0211 27.0667 26.0478 26.48H26.1278ZM26.1278 7.52H26.0478C26.0211 6.90667 25.7945 6.4 25.3678 6C24.9678 5.6 24.4745 5.4 23.8878 5.4C23.8611 5.4 23.7678 5.4 23.6078 5.4C23.4478 5.4 23.3678 5.4 23.3678 5.4V5H26.3278L26.1278 7.52ZM48.2259 4.44L71.7059 25.08L72.1059 29.52L48.6659 8.88L48.2259 4.44ZM48.3859 26.56V29H45.4259V28.6C45.4259 28.6 45.5326 28.6 45.7459 28.6C45.9593 28.6 46.0659 28.6 46.0659 28.6C46.6793 28.6 47.1993 28.4133 47.6259 28.04C48.0526 27.64 48.2659 27.1467 48.2659 26.56H48.3859ZM53.7459 26.56C53.7726 27.1467 53.9993 27.64 54.4259 28.04C54.8526 28.4133 55.3593 28.6 55.9459 28.6C55.9459 28.6 56.0526 28.6 56.2659 28.6C56.5059 28.6 56.6259 28.6 56.6259 28.6V29H53.6659V26.56H53.7459ZM48.2259 4.44L53.7459 10.44V29H48.2659V9C48.2659 7.64 48.1993 6.54667 48.0659 5.72C47.9326 4.86667 47.8659 4.44 47.8659 4.44H48.2259ZM72.0659 5V24.84C72.0659 25.7733 72.0926 26.6 72.1459 27.32C72.2259 28.0133 72.2926 28.56 72.3459 28.96C72.4259 29.3333 72.4659 29.52 72.4659 29.52H72.1059L66.5859 23.16V5H72.0659ZM71.9459 7.44V5H74.9459V5.4C74.9459 5.4 74.8259 5.4 74.5859 5.4C74.3726 5.4 74.2659 5.4 74.2659 5.4C73.6793 5.4 73.1593 5.6 72.7059 6C72.2793 6.37333 72.0659 6.85333 72.0659 7.44H71.9459ZM66.5859 7.44C66.5593 6.85333 66.3326 6.37333 65.9059 6C65.5059 5.6 64.9993 5.4 64.3859 5.4C64.3859 5.4 64.2659 5.4 64.0259 5.4C63.8126 5.4 63.7059 5.4 63.7059 5.4V5H66.6659V7.44H66.5859ZM101.798 5V29H96.0778V5H101.798ZM85.5178 5V29H79.7578V5H85.5178ZM96.3978 16.24V17.84H85.1578V16.24H96.3978ZM79.8778 26.48V29H77.1178V28.6C77.1178 28.6 77.1845 28.6 77.3178 28.6C77.4778 28.6 77.5711 28.6 77.5978 28.6C78.1845 28.6 78.6911 28.4 79.1178 28C79.5445 27.5733 79.7578 27.0667 79.7578 26.48H79.8778ZM85.4378 26.48H85.5178C85.5445 27.0667 85.7711 27.5733 86.1978 28C86.6245 28.4 87.1311 28.6 87.7178 28.6C87.7178 28.6 87.7845 28.6 87.9178 28.6C88.0778 28.6 88.1578 28.6 88.1578 28.6V29H85.4378V26.48ZM85.4378 7.52V5H88.1578V5.4C88.1578 5.4 88.0778 5.4 87.9178 5.4C87.7845 5.4 87.7178 5.4 87.7178 5.4C87.1311 5.4 86.6245 5.6 86.1978 6C85.7711 6.4 85.5445 6.90667 85.5178 7.52H85.4378ZM79.8778 7.52H79.7578C79.7578 6.90667 79.5445 6.4 79.1178 6C78.6911 5.6 78.1845 5.4 77.5978 5.4C77.5711 5.4 77.4778 5.4 77.3178 5.4C77.1845 5.4 77.1178 5.4 77.1178 5.4V5H79.8778V7.52ZM96.1578 26.48V29H93.4378V28.6C93.4378 28.6 93.5045 28.6 93.6378 28.6C93.7978 28.6 93.8778 28.6 93.8778 28.6C94.4645 28.6 94.9711 28.4 95.3978 28C95.8245 27.5733 96.0378 27.0667 96.0378 26.48H96.1578ZM101.678 26.48H101.798C101.824 27.0667 102.038 27.5733 102.438 28C102.864 28.4 103.384 28.6 103.998 28.6C103.998 28.6 104.064 28.6 104.198 28.6C104.358 28.6 104.438 28.6 104.438 28.6V29H101.678V26.48ZM101.718 7.52V5H104.478V5.4C104.478 5.4 104.398 5.4 104.238 5.4C104.078 5.4 103.998 5.4 103.998 5.4C103.384 5.4 102.864 5.6 102.438 6C102.038 6.4 101.838 6.90667 101.838 7.52H101.718ZM96.1578 7.52H96.0378C96.0378 6.90667 95.8245 6.4 95.3978 6C94.9711 5.6 94.4645 5.4 93.8778 5.4C93.8778 5.4 93.7978 5.4 93.6378 5.4C93.5045 5.4 93.4378 5.4 93.4378 5.4V5H96.1578V7.52ZM118.557 3.92L130.397 28.8H123.637L116.197 11.24L118.557 3.92ZM111.037 26.36C110.744 27.08 110.784 27.64 111.157 28.04C111.53 28.4133 111.944 28.6 112.397 28.6H112.717V29H104.717V28.6C104.717 28.6 104.77 28.6 104.877 28.6C104.984 28.6 105.037 28.6 105.037 28.6C105.57 28.6 106.13 28.44 106.717 28.12C107.304 27.7733 107.784 27.1867 108.157 26.36H111.037ZM118.557 3.92L118.637 8.72L109.957 28.88H106.997L116.357 8.76C116.41 8.6 116.53 8.32 116.717 7.92C116.904 7.49333 117.104 7.02667 117.317 6.52C117.53 5.98667 117.73 5.49333 117.917 5.04C118.104 4.56 118.21 4.18667 118.237 3.92H118.557ZM122.037 21.16V22.72H111.837V21.16H122.037ZM122.637 26.36H129.237C129.637 27.1867 130.13 27.7733 130.717 28.12C131.304 28.44 131.864 28.6 132.397 28.6C132.397 28.6 132.45 28.6 132.557 28.6C132.664 28.6 132.717 28.6 132.717 28.6V29H120.957V28.6H121.277C121.73 28.6 122.144 28.4133 122.517 28.04C122.89 27.64 122.93 27.08 122.637 26.36ZM151.179 5H155.499C156.592 5 157.659 5.12 158.699 5.36C159.739 5.57333 160.672 5.93333 161.499 6.44C162.326 6.92 162.979 7.58667 163.459 8.44C163.966 9.26667 164.219 10.3067 164.219 11.56C164.219 12.4933 164.019 13.4267 163.619 14.36C163.246 15.2667 162.646 16.0533 161.819 16.72C161.019 17.3867 159.966 17.8267 158.659 18.04C159.432 18.28 160.166 18.7467 160.859 19.44C161.579 20.1333 162.139 20.7867 162.539 21.4C162.646 21.6133 162.832 21.96 163.099 22.44C163.366 22.8933 163.699 23.4267 164.099 24.04C164.526 24.6267 164.966 25.24 165.419 25.88C165.952 26.6 166.419 27.16 166.819 27.56C167.219 27.9333 167.632 28.2 168.059 28.36C168.486 28.52 168.979 28.6 169.539 28.6V29H166.179C164.739 29 163.512 28.8933 162.499 28.68C161.512 28.4667 160.646 28.08 159.899 27.52C159.179 26.9333 158.512 26.1467 157.899 25.16C157.659 24.8133 157.406 24.4 157.139 23.92C156.872 23.4133 156.606 22.9067 156.339 22.4C156.072 21.8933 155.832 21.4 155.619 20.92C155.432 20.44 155.299 20.04 155.219 19.72C154.872 18.8667 154.472 18.2533 154.019 17.88C153.592 17.48 153.192 17.28 152.819 17.28V16.92C152.819 16.92 152.912 16.92 153.099 16.92C153.286 16.92 153.526 16.92 153.819 16.92C154.379 16.92 154.926 16.8267 155.459 16.64C156.019 16.4267 156.526 16.04 156.979 15.48C157.432 14.8933 157.766 14.04 157.979 12.92C158.032 12.76 158.072 12.5333 158.099 12.24C158.152 11.9467 158.166 11.6133 158.139 11.24C158.086 10.2533 157.899 9.46667 157.579 8.88C157.286 8.26667 156.912 7.81333 156.459 7.52C156.006 7.2 155.539 6.98667 155.059 6.88C154.606 6.74667 154.206 6.68 153.859 6.68C153.352 6.65333 152.886 6.65333 152.459 6.68C152.059 6.68 151.752 6.66667 151.539 6.64C151.512 6.64 151.472 6.50667 151.419 6.24C151.366 5.94667 151.312 5.66667 151.259 5.4C151.206 5.13333 151.179 5 151.179 5ZM151.579 5V29H145.779V5H151.579ZM145.899 26.48L146.059 29H143.179V28.6C143.206 28.6 143.272 28.6 143.379 28.6C143.512 28.6 143.606 28.6 143.659 28.6C144.246 28.6 144.739 28.4 145.139 28C145.566 27.5733 145.792 27.0667 145.819 26.48H145.899ZM145.899 7.48H145.819C145.792 6.86666 145.566 6.37333 145.139 6C144.739 5.6 144.259 5.4 143.699 5.4C143.619 5.4 143.512 5.4 143.379 5.4C143.272 5.4 143.206 5.4 143.179 5.4V5H146.059L145.899 7.48ZM151.499 26.48H151.579C151.579 27.1467 151.806 27.6667 152.259 28.04C152.739 28.4133 153.246 28.6 153.779 28.6C153.779 28.6 153.832 28.6 153.939 28.6C154.046 28.6 154.126 28.6 154.179 28.6V29H151.299L151.499 26.48ZM177.667 5V29H171.907V5H177.667ZM187.027 27.4L187.947 29H177.587V27.4H187.027ZM185.667 16.32V17.92H177.587V16.32H185.667ZM187.467 5V6.6H177.587V5H187.467ZM189.587 21.64L188.067 29H181.147L182.387 27.4C183.534 27.4 184.547 27.1733 185.427 26.72C186.334 26.24 187.107 25.5733 187.747 24.72C188.387 23.84 188.881 22.8133 189.227 21.64H189.587ZM185.667 17.84V21.36H185.267V21.04C185.267 20.16 184.987 19.4267 184.427 18.84C183.894 18.2533 183.161 17.9467 182.227 17.92V17.84H185.667ZM185.667 12.88V16.4H182.227V16.32C183.161 16.2933 183.894 15.9867 184.427 15.4C184.987 14.7867 185.267 14.04 185.267 13.16V12.88H185.667ZM187.467 6.52V10.76H187.067V10.4C187.067 9.22667 186.747 8.30667 186.107 7.64C185.494 6.97333 184.601 6.62667 183.427 6.6V6.52H187.467ZM187.467 4.4V5.36L183.267 5C184.041 5 184.854 4.93333 185.707 4.8C186.561 4.64 187.147 4.50667 187.467 4.4ZM171.987 26.48L172.187 29H169.227V28.6C169.227 28.6 169.307 28.6 169.467 28.6C169.627 28.6 169.721 28.6 169.747 28.6C170.334 28.6 170.827 28.4 171.227 28C171.654 27.5733 171.881 27.0667 171.907 26.48H171.987ZM171.987 7.52H171.907C171.881 6.90667 171.654 6.4 171.227 6C170.827 5.6 170.334 5.4 169.747 5.4C169.721 5.4 169.627 5.4 169.467 5.4C169.307 5.4 169.227 5.4 169.227 5.4V5H172.187L171.987 7.52ZM205.129 5C207.982 5 210.436 5.48 212.489 6.44C214.542 7.37333 216.116 8.74667 217.209 10.56C218.302 12.3467 218.849 14.4933 218.849 17C218.849 19.5067 218.302 21.6533 217.209 23.44C216.116 25.2267 214.542 26.6 212.489 27.56C210.436 28.52 207.982 29 205.129 29H196.249L196.169 27.4C198.196 27.4 199.822 27.4 201.049 27.4C202.302 27.4 203.209 27.4 203.769 27.4C204.356 27.4 204.649 27.4 204.649 27.4C207.156 27.4 209.129 26.48 210.569 24.64C212.009 22.8 212.729 20.2533 212.729 17C212.729 13.7467 212.009 11.2 210.569 9.36C209.129 7.49333 207.156 6.56 204.649 6.56C204.649 6.56 204.356 6.56 203.769 6.56C203.182 6.56 202.236 6.56 200.929 6.56C199.622 6.56 197.902 6.56 195.769 6.56V5H205.129ZM200.129 5V29H194.369V5H200.129ZM194.489 26.44V29H191.609V28.6C191.609 28.6 191.689 28.6 191.849 28.6C192.009 28.6 192.102 28.6 192.129 28.6C192.742 28.6 193.262 28.3867 193.689 27.96C194.142 27.5333 194.369 27.0267 194.369 26.44H194.489ZM194.449 7.52H194.369C194.342 6.90667 194.102 6.4 193.649 6C193.222 5.6 192.702 5.4 192.089 5.4C192.089 5.4 192.009 5.4 191.849 5.4C191.689 5.4 191.609 5.4 191.609 5.4V5H194.449V7.52ZM229.542 5V29H223.782V5H229.542ZM238.902 27.4L239.822 29H229.462V27.4H238.902ZM237.542 16.32V17.92H229.462V16.32H237.542ZM239.342 5V6.6H229.462V5H239.342ZM241.462 21.64L239.942 29H233.022L234.262 27.4C235.409 27.4 236.422 27.1733 237.302 26.72C238.209 26.24 238.982 25.5733 239.622 24.72C240.262 23.84 240.756 22.8133 241.102 21.64H241.462ZM237.542 17.84V21.36H237.142V21.04C237.142 20.16 236.862 19.4267 236.302 18.84C235.769 18.2533 235.036 17.9467 234.102 17.92V17.84H237.542ZM237.542 12.88V16.4H234.102V16.32C235.036 16.2933 235.769 15.9867 236.302 15.4C236.862 14.7867 237.142 14.04 237.142 13.16V12.88H237.542ZM239.342 6.52V10.76H238.942V10.4C238.942 9.22667 238.622 8.30667 237.982 7.64C237.369 6.97333 236.476 6.62667 235.302 6.6V6.52H239.342ZM239.342 4.4V5.36L235.142 5C235.916 5 236.729 4.93333 237.582 4.8C238.436 4.64 239.022 4.50667 239.342 4.4ZM223.862 26.48L224.062 29H221.102V28.6C221.102 28.6 221.182 28.6 221.342 28.6C221.502 28.6 221.596 28.6 221.622 28.6C222.209 28.6 222.702 28.4 223.102 28C223.529 27.5733 223.756 27.0667 223.782 26.48H223.862ZM223.862 7.52H223.782C223.756 6.90667 223.529 6.4 223.102 6C222.702 5.6 222.209 5.4 221.622 5.4C221.596 5.4 221.502 5.4 221.342 5.4C221.182 5.4 221.102 5.4 221.102 5.4V5H224.062L223.862 7.52ZM251.964 5V29H246.204V5H251.964ZM260.004 16.32V17.92H251.884V16.32H260.004ZM261.844 5V6.6H251.884V5H261.844ZM260.004 17.84V21.36H259.604V21.04C259.604 20.16 259.324 19.4267 258.764 18.84C258.231 18.2533 257.484 17.9467 256.524 17.92V17.84H260.004ZM260.004 12.88V16.4H256.524V16.32C257.484 16.2933 258.231 15.9867 258.764 15.4C259.324 14.7867 259.604 14.04 259.604 13.16V12.88H260.004ZM261.844 6.48V10.8H261.404V10.4C261.404 9.25333 261.084 8.34667 260.444 7.68C259.831 6.98667 258.924 6.62667 257.724 6.6V6.48H261.844ZM261.844 4.4V5.36L257.604 5C258.111 5 258.644 4.97333 259.204 4.92C259.791 4.84 260.324 4.76 260.804 4.68C261.284 4.57333 261.631 4.48 261.844 4.4ZM246.324 26.48L246.484 29H243.524V28.6C243.524 28.6 243.604 28.6 243.764 28.6C243.924 28.6 244.017 28.6 244.044 28.6C244.631 28.6 245.137 28.4 245.564 28C245.991 27.5733 246.204 27.0667 246.204 26.48H246.324ZM246.324 7.52H246.204C246.204 6.90667 245.991 6.4 245.564 6C245.137 5.6 244.631 5.4 244.044 5.4C244.017 5.4 243.924 5.4 243.764 5.4C243.604 5.4 243.524 5.4 243.524 5.4V5H246.484L246.324 7.52ZM251.884 26.48H251.964C251.991 27.0667 252.204 27.5733 252.604 28C253.031 28.4 253.551 28.6 254.164 28.6C254.164 28.6 254.244 28.6 254.404 28.6C254.564 28.6 254.657 28.6 254.684 28.6L254.644 29H251.724L251.884 26.48ZM273.49 5V29H267.73V5H273.49ZM267.85 26.48V29H264.93V28.6C264.93 28.6 265.01 28.6 265.17 28.6C265.33 28.6 265.424 28.6 265.45 28.6C266.064 28.6 266.597 28.4 267.05 28C267.504 27.5733 267.73 27.0667 267.73 26.48H267.85ZM273.41 26.48H273.49C273.517 27.0667 273.744 27.5733 274.17 28C274.624 28.4 275.17 28.6 275.81 28.6C275.81 28.6 275.877 28.6 276.01 28.6C276.17 28.6 276.264 28.6 276.29 28.6V29H273.41V26.48ZM273.41 7.52V5H276.29L276.25 5.4C276.25 5.4 276.184 5.4 276.05 5.4C275.917 5.4 275.837 5.4 275.81 5.4C275.17 5.4 274.624 5.6 274.17 6C273.744 6.4 273.517 6.90667 273.49 7.52H273.41ZM267.85 7.52H267.73C267.73 6.90667 267.504 6.4 267.05 6C266.597 5.6 266.05 5.4 265.41 5.4C265.41 5.4 265.33 5.4 265.17 5.4C265.01 5.4 264.93 5.4 264.93 5.4V5H267.85V7.52ZM281.273 4.44L304.753 25.08L305.153 29.52L281.713 8.88L281.273 4.44ZM281.433 26.56V29H278.473V28.6C278.473 28.6 278.579 28.6 278.793 28.6C279.006 28.6 279.113 28.6 279.113 28.6C279.726 28.6 280.246 28.4133 280.673 28.04C281.099 27.64 281.313 27.1467 281.313 26.56H281.433ZM286.793 26.56C286.819 27.1467 287.046 27.64 287.473 28.04C287.899 28.4133 288.406 28.6 288.993 28.6C288.993 28.6 289.099 28.6 289.313 28.6C289.553 28.6 289.673 28.6 289.673 28.6V29H286.713V26.56H286.793ZM281.273 4.44L286.793 10.44V29H281.313V9C281.313 7.64 281.246 6.54667 281.113 5.72C280.979 4.86667 280.913 4.44 280.913 4.44H281.273ZM305.113 5V24.84C305.113 25.7733 305.139 26.6 305.193 27.32C305.273 28.0133 305.339 28.56 305.393 28.96C305.473 29.3333 305.513 29.52 305.513 29.52H305.153L299.633 23.16V5H305.113ZM304.993 7.44V5H307.993V5.4C307.993 5.4 307.873 5.4 307.633 5.4C307.419 5.4 307.313 5.4 307.313 5.4C306.726 5.4 306.206 5.6 305.753 6C305.326 6.37333 305.113 6.85333 305.113 7.44H304.993ZM299.633 7.44C299.606 6.85333 299.379 6.37333 298.953 6C298.553 5.6 298.046 5.4 297.433 5.4C297.433 5.4 297.313 5.4 297.073 5.4C296.859 5.4 296.753 5.4 296.753 5.4V5H299.713V7.44H299.633ZM318.725 5V29H312.965V5H318.725ZM313.085 26.48V29H310.165V28.6C310.165 28.6 310.245 28.6 310.405 28.6C310.565 28.6 310.658 28.6 310.685 28.6C311.298 28.6 311.831 28.4 312.285 28C312.738 27.5733 312.965 27.0667 312.965 26.48H313.085ZM318.645 26.48H318.725C318.751 27.0667 318.978 27.5733 319.405 28C319.858 28.4 320.405 28.6 321.045 28.6C321.045 28.6 321.111 28.6 321.245 28.6C321.405 28.6 321.498 28.6 321.525 28.6V29H318.645V26.48ZM318.645 7.52V5H321.525L321.485 5.4C321.485 5.4 321.418 5.4 321.285 5.4C321.151 5.4 321.071 5.4 321.045 5.4C320.405 5.4 319.858 5.6 319.405 6C318.978 6.4 318.751 6.90667 318.725 7.52H318.645ZM313.085 7.52H312.965C312.965 6.90667 312.738 6.4 312.285 6C311.831 5.6 311.285 5.4 310.645 5.4C310.645 5.4 310.565 5.4 310.405 5.4C310.245 5.4 310.165 5.4 310.165 5.4V5H313.085V7.52ZM337.473 5C340.326 5 342.779 5.48 344.833 6.44C346.886 7.37333 348.459 8.74667 349.553 10.56C350.646 12.3467 351.193 14.4933 351.193 17C351.193 19.5067 350.646 21.6533 349.553 23.44C348.459 25.2267 346.886 26.6 344.833 27.56C342.779 28.52 340.326 29 337.473 29H328.593L328.513 27.4C330.539 27.4 332.166 27.4 333.393 27.4C334.646 27.4 335.553 27.4 336.113 27.4C336.699 27.4 336.993 27.4 336.993 27.4C339.499 27.4 341.473 26.48 342.913 24.64C344.353 22.8 345.073 20.2533 345.073 17C345.073 13.7467 344.353 11.2 342.913 9.36C341.473 7.49333 339.499 6.56 336.993 6.56C336.993 6.56 336.699 6.56 336.113 6.56C335.526 6.56 334.579 6.56 333.273 6.56C331.966 6.56 330.246 6.56 328.113 6.56V5H337.473ZM332.473 5V29H326.713V5H332.473ZM326.833 26.44V29H323.953V28.6C323.953 28.6 324.033 28.6 324.193 28.6C324.353 28.6 324.446 28.6 324.473 28.6C325.086 28.6 325.606 28.3867 326.033 27.96C326.486 27.5333 326.713 27.0267 326.713 26.44H326.833ZM326.793 7.52H326.713C326.686 6.90667 326.446 6.4 325.993 6C325.566 5.6 325.046 5.4 324.433 5.4C324.433 5.4 324.353 5.4 324.193 5.4C324.033 5.4 323.953 5.4 323.953 5.4V5H326.793V7.52ZM364.729 3.92L376.569 28.8H369.809L362.369 11.24L364.729 3.92ZM357.209 26.36C356.915 27.08 356.955 27.64 357.329 28.04C357.702 28.4133 358.115 28.6 358.569 28.6H358.889V29H350.889V28.6C350.889 28.6 350.942 28.6 351.049 28.6C351.155 28.6 351.209 28.6 351.209 28.6C351.742 28.6 352.302 28.44 352.889 28.12C353.475 27.7733 353.955 27.1867 354.329 26.36H357.209ZM364.729 3.92L364.809 8.72L356.129 28.88H353.169L362.529 8.76C362.582 8.6 362.702 8.32 362.889 7.92C363.075 7.49333 363.275 7.02667 363.489 6.52C363.702 5.98667 363.902 5.49333 364.089 5.04C364.275 4.56 364.382 4.18667 364.409 3.92H364.729ZM368.209 21.16V22.72H358.009V21.16H368.209ZM368.809 26.36H375.409C375.809 27.1867 376.302 27.7733 376.889 28.12C377.475 28.44 378.035 28.6 378.569 28.6C378.569 28.6 378.622 28.6 378.729 28.6C378.835 28.6 378.889 28.6 378.889 28.6V29H367.129V28.6H367.449C367.902 28.6 368.315 28.4133 368.689 28.04C369.062 27.64 369.102 27.08 368.809 26.36ZM413.071 18.96L413.511 25C413.004 25.8533 412.298 26.6267 411.391 27.32C410.484 27.9867 409.378 28.52 408.071 28.92C406.764 29.32 405.244 29.52 403.511 29.52C400.524 29.4933 397.951 28.9867 395.791 28C393.631 27.0133 391.964 25.6 390.791 23.76C389.644 21.8933 389.071 19.6267 389.071 16.96C389.071 14.3467 389.644 12.12 390.791 10.28C391.938 8.41333 393.591 6.98666 395.751 6C397.911 4.98667 400.498 4.48 403.511 4.48C405.324 4.48 407.004 4.65333 408.551 5C410.124 5.34667 411.431 5.78667 412.471 6.32L412.511 12.68H412.191C411.524 10.2267 410.471 8.50667 409.031 7.52C407.591 6.53333 405.884 6.04 403.911 6.04C401.964 6.04 400.338 6.49333 399.031 7.4C397.751 8.30667 396.778 9.57333 396.111 11.2C395.471 12.8267 395.151 14.7333 395.151 16.92C395.151 19.1333 395.471 21.0533 396.111 22.68C396.778 24.3067 397.738 25.5733 398.991 26.48C400.244 27.3867 401.751 27.8667 403.511 27.92C405.404 27.92 406.964 27.6267 408.191 27.04C409.444 26.4533 410.431 25.5067 411.151 24.2C411.898 22.8933 412.431 21.1467 412.751 18.96H413.071ZM431.161 4.48C433.294 4.48 435.227 4.77333 436.961 5.36C438.694 5.92 440.187 6.74666 441.441 7.84C442.694 8.93333 443.654 10.2533 444.321 11.8C445.014 13.3467 445.361 15.0933 445.361 17.04C445.361 18.96 445.014 20.6933 444.321 22.24C443.654 23.76 442.694 25.0667 441.441 26.16C440.187 27.2533 438.694 28.0933 436.961 28.68C435.227 29.24 433.294 29.52 431.161 29.52C429.054 29.52 427.134 29.24 425.401 28.68C423.667 28.0933 422.174 27.2533 420.921 26.16C419.667 25.0667 418.707 23.76 418.041 22.24C417.374 20.6933 417.041 18.96 417.041 17.04C417.041 15.0933 417.374 13.3467 418.041 11.8C418.707 10.2533 419.667 8.93333 420.921 7.84C422.174 6.74666 423.667 5.92 425.401 5.36C427.134 4.77333 429.054 4.48 431.161 4.48ZM431.161 27.96C432.787 27.96 434.201 27.52 435.401 26.64C436.627 25.7333 437.561 24.4667 438.201 22.84C438.867 21.2133 439.201 19.28 439.201 17.04C439.201 14.7733 438.867 12.8267 438.201 11.2C437.561 9.54667 436.627 8.28 435.401 7.4C434.201 6.49333 432.787 6.04 431.161 6.04C429.561 6.04 428.161 6.49333 426.961 7.4C425.761 8.28 424.827 9.54667 424.161 11.2C423.494 12.8267 423.161 14.7733 423.161 17.04C423.161 19.28 423.494 21.2133 424.161 22.84C424.827 24.4667 425.761 25.7333 426.961 26.64C428.161 27.52 429.561 27.96 431.161 27.96ZM474.7 4.48L475.02 8.6L464.26 25.68C464.26 25.68 464.14 25.9067 463.9 26.36C463.66 26.7867 463.42 27.3067 463.18 27.92C462.967 28.5333 462.847 29.1467 462.82 29.76H462.46L460.9 26.48L474.7 4.48ZM450.1 26.44V29H446.18V28.6C446.18 28.6 446.273 28.6 446.46 28.6C446.62 28.6 446.7 28.6 446.7 28.6C447.367 28.6 447.94 28.4133 448.42 28.04C448.927 27.6667 449.233 27.1333 449.34 26.44H450.1ZM451.82 27C451.793 27.2933 451.887 27.64 452.1 28.04C452.313 28.4133 452.687 28.6 453.22 28.6H453.78V29H451.38L451.62 27H451.82ZM452.46 4.48H452.78L454.14 8.32L451.62 29H449.02L452.46 4.48ZM452.78 4.48L464.62 22.2L462.46 29.76L451.82 13.64L452.78 4.48ZM475.06 4.48L478.58 29H472.46L470.5 14.4L474.7 4.48H475.06ZM477.46 26.44H478.22C478.353 27.1333 478.66 27.6667 479.14 28.04C479.647 28.4133 480.207 28.6 480.82 28.6C480.82 28.6 480.913 28.6 481.1 28.6C481.287 28.6 481.38 28.6 481.38 28.6V29H477.46V26.44ZM472.18 27H472.42L472.66 29H470.26V28.6H470.82C471.407 28.6 471.793 28.4133 471.98 28.04C472.167 27.64 472.233 27.2933 472.18 27ZM500.551 4.48C501.085 4.48 501.725 4.50667 502.471 4.56C503.245 4.61333 504.005 4.68 504.751 4.76C505.498 4.81333 506.151 4.89333 506.711 5C507.298 5.08 507.698 5.16 507.911 5.24L507.391 10.12H507.031C507.031 8.89333 506.605 7.92 505.751 7.2C504.898 6.48 503.671 6.12 502.071 6.12C500.791 6.12 499.751 6.4 498.951 6.96C498.178 7.52 497.765 8.26667 497.711 9.2C497.658 9.68 497.738 10.12 497.951 10.52C498.191 10.8933 498.511 11.2267 498.911 11.52C499.338 11.8133 499.805 12.1067 500.311 12.4L506.591 16.28C507.658 16.8133 508.498 17.5867 509.111 18.6C509.725 19.6133 509.991 20.84 509.911 22.28C509.831 23.7733 509.391 25.0667 508.591 26.16C507.818 27.2533 506.738 28.0933 505.351 28.68C503.991 29.24 502.378 29.52 500.511 29.52C499.365 29.52 498.298 29.4267 497.311 29.24C496.325 29.0533 495.471 28.8 494.751 28.48C494.058 28.16 493.525 27.8 493.151 27.4C492.938 26.8667 492.845 26.2267 492.871 25.48C492.898 24.7067 493.018 23.9467 493.231 23.2C493.445 22.4267 493.711 21.7867 494.031 21.28H494.351C494.271 22.48 494.485 23.5867 494.991 24.6C495.525 25.6133 496.298 26.4267 497.311 27.04C498.325 27.6267 499.538 27.92 500.951 27.92C502.498 27.92 503.658 27.56 504.431 26.84C505.205 26.12 505.591 25.28 505.591 24.32C505.591 23.6 505.351 22.96 504.871 22.4C504.418 21.8133 503.658 21.24 502.591 20.68L496.911 17.08C495.578 16.3867 494.605 15.4667 493.991 14.32C493.405 13.1733 493.191 11.92 493.351 10.56C493.485 9.28 493.858 8.18667 494.471 7.28C495.111 6.37333 495.951 5.68 496.991 5.2C498.031 4.72 499.218 4.48 500.551 4.48ZM507.911 4.84L507.871 5.56H503.591V4.84H507.911ZM520.74 5V20.08C520.74 22.5333 521.3 24.4533 522.42 25.84C523.567 27.2267 525.153 27.92 527.18 27.92C529.287 27.92 530.913 27.2667 532.06 25.96C533.233 24.6533 533.833 22.84 533.86 20.52V5H536.5V20.28C536.5 23.1333 535.62 25.3867 533.86 27.04C532.127 28.6933 529.66 29.52 526.46 29.52C522.593 29.52 519.713 28.7067 517.82 27.08C515.927 25.4267 514.98 23.1733 514.98 20.32V5H520.74ZM515.06 5V7.08H514.98C514.953 6.57333 514.767 6.16 514.42 5.84C514.073 5.52 513.647 5.36 513.14 5.36C513.14 5.36 513.047 5.36 512.86 5.36C512.673 5.36 512.58 5.36 512.58 5.36V5H515.06ZM523.1 5V5.36C523.1 5.36 523.007 5.36 522.82 5.36C522.633 5.36 522.54 5.36 522.54 5.36C522.033 5.36 521.607 5.52 521.26 5.84C520.913 6.16 520.74 6.57333 520.74 7.08H520.66V5H523.1ZM533.94 5V7.08H533.86C533.833 6.57333 533.647 6.16 533.3 5.84C532.953 5.52 532.54 5.36 532.06 5.36C532.06 5.36 531.967 5.36 531.78 5.36C531.593 5.36 531.5 5.36 531.5 5.36V5H533.94ZM538.86 5V5.36C538.86 5.36 538.767 5.36 538.58 5.36C538.42 5.36 538.34 5.36 538.34 5.36C537.833 5.36 537.393 5.52 537.02 5.84C536.673 6.16 536.5 6.57333 536.5 7.08H536.42V5H538.86ZM564.868 18.96L565.308 25C564.801 25.8533 564.094 26.6267 563.188 27.32C562.281 27.9867 561.174 28.52 559.868 28.92C558.561 29.32 557.041 29.52 555.308 29.52C552.321 29.4933 549.748 28.9867 547.588 28C545.428 27.0133 543.761 25.6 542.588 23.76C541.441 21.8933 540.868 19.6267 540.868 16.96C540.868 14.3467 541.441 12.12 542.588 10.28C543.734 8.41333 545.388 6.98666 547.548 6C549.708 4.98667 552.294 4.48 555.308 4.48C557.121 4.48 558.801 4.65333 560.348 5C561.921 5.34667 563.228 5.78667 564.268 6.32L564.308 12.68H563.988C563.321 10.2267 562.268 8.50667 560.828 7.52C559.388 6.53333 557.681 6.04 555.708 6.04C553.761 6.04 552.134 6.49333 550.828 7.4C549.548 8.30667 548.574 9.57333 547.908 11.2C547.268 12.8267 546.948 14.7333 546.948 16.92C546.948 19.1333 547.268 21.0533 547.908 22.68C548.574 24.3067 549.534 25.5733 550.788 26.48C552.041 27.3867 553.548 27.8667 555.308 27.92C557.201 27.92 558.761 27.6267 559.988 27.04C561.241 26.4533 562.228 25.5067 562.948 24.2C563.694 22.8933 564.228 21.1467 564.548 18.96H564.868ZM576.613 5V29H570.853V5H576.613ZM585.973 27.4L586.893 29H576.533V27.4H585.973ZM584.613 16.32V17.92H576.533V16.32H584.613ZM586.413 5V6.6H576.533V5H586.413ZM588.533 21.64L587.012 29H580.093L581.333 27.4C582.479 27.4 583.493 27.1733 584.373 26.72C585.279 26.24 586.053 25.5733 586.693 24.72C587.333 23.84 587.826 22.8133 588.173 21.64H588.533ZM584.613 17.84V21.36H584.213V21.04C584.213 20.16 583.933 19.4267 583.373 18.84C582.839 18.2533 582.106 17.9467 581.173 17.92V17.84H584.613ZM584.613 12.88V16.4H581.173V16.32C582.106 16.2933 582.839 15.9867 583.373 15.4C583.933 14.7867 584.213 14.04 584.213 13.16V12.88H584.613ZM586.413 6.52V10.76H586.013V10.4C586.013 9.22667 585.693 8.30667 585.053 7.64C584.439 6.97333 583.546 6.62667 582.373 6.6V6.52H586.413ZM586.413 4.4V5.36L582.213 5C582.986 5 583.799 4.93333 584.653 4.8C585.506 4.64 586.093 4.50667 586.413 4.4ZM570.933 26.48L571.133 29H568.173V28.6C568.173 28.6 568.253 28.6 568.413 28.6C568.573 28.6 568.666 28.6 568.693 28.6C569.279 28.6 569.773 28.4 570.173 28C570.599 27.5733 570.826 27.0667 570.853 26.48H570.933ZM570.933 7.52H570.853C570.826 6.90667 570.599 6.4 570.173 6C569.773 5.6 569.279 5.4 568.693 5.4C568.666 5.4 568.573 5.4 568.413 5.4C568.253 5.4 568.173 5.4 568.173 5.4V5H571.133L570.933 7.52ZM598.911 4.48C599.444 4.48 600.084 4.50667 600.831 4.56C601.604 4.61333 602.364 4.68 603.111 4.76C603.857 4.81333 604.511 4.89333 605.071 5C605.657 5.08 606.057 5.16 606.271 5.24L605.751 10.12H605.391C605.391 8.89333 604.964 7.92 604.111 7.2C603.257 6.48 602.031 6.12 600.431 6.12C599.151 6.12 598.111 6.4 597.311 6.96C596.537 7.52 596.124 8.26667 596.071 9.2C596.017 9.68 596.097 10.12 596.311 10.52C596.551 10.8933 596.871 11.2267 597.271 11.52C597.697 11.8133 598.164 12.1067 598.671 12.4L604.951 16.28C606.017 16.8133 606.857 17.5867 607.471 18.6C608.084 19.6133 608.351 20.84 608.271 22.28C608.191 23.7733 607.751 25.0667 606.951 26.16C606.177 27.2533 605.097 28.0933 603.711 28.68C602.351 29.24 600.737 29.52 598.871 29.52C597.724 29.52 596.657 29.4267 595.671 29.24C594.684 29.0533 593.831 28.8 593.111 28.48C592.417 28.16 591.884 27.8 591.511 27.4C591.297 26.8667 591.204 26.2267 591.231 25.48C591.257 24.7067 591.377 23.9467 591.591 23.2C591.804 22.4267 592.071 21.7867 592.391 21.28H592.711C592.631 22.48 592.844 23.5867 593.351 24.6C593.884 25.6133 594.657 26.4267 595.671 27.04C596.684 27.6267 597.897 27.92 599.311 27.92C600.857 27.92 602.017 27.56 602.791 26.84C603.564 26.12 603.951 25.28 603.951 24.32C603.951 23.6 603.711 22.96 603.231 22.4C602.777 21.8133 602.017 21.24 600.951 20.68L595.271 17.08C593.937 16.3867 592.964 15.4667 592.351 14.32C591.764 13.1733 591.551 11.92 591.711 10.56C591.844 9.28 592.217 8.18667 592.831 7.28C593.471 6.37333 594.311 5.68 595.351 5.2C596.391 4.72 597.577 4.48 598.911 4.48ZM606.271 4.84L606.231 5.56H601.951V4.84H606.271ZM619.497 4.48C620.03 4.48 620.67 4.50667 621.417 4.56C622.19 4.61333 622.95 4.68 623.697 4.76C624.443 4.81333 625.097 4.89333 625.657 5C626.243 5.08 626.643 5.16 626.857 5.24L626.337 10.12H625.977C625.977 8.89333 625.55 7.92 624.697 7.2C623.843 6.48 622.617 6.12 621.017 6.12C619.737 6.12 618.697 6.4 617.897 6.96C617.123 7.52 616.71 8.26667 616.657 9.2C616.603 9.68 616.683 10.12 616.897 10.52C617.137 10.8933 617.457 11.2267 617.857 11.52C618.283 11.8133 618.75 12.1067 619.257 12.4L625.537 16.28C626.603 16.8133 627.443 17.5867 628.057 18.6C628.67 19.6133 628.937 20.84 628.857 22.28C628.777 23.7733 628.337 25.0667 627.537 26.16C626.763 27.2533 625.683 28.0933 624.297 28.68C622.937 29.24 621.323 29.52 619.457 29.52C618.31 29.52 617.243 29.4267 616.257 29.24C615.27 29.0533 614.417 28.8 613.697 28.48C613.003 28.16 612.47 27.8 612.097 27.4C611.883 26.8667 611.79 26.2267 611.817 25.48C611.843 24.7067 611.963 23.9467 612.177 23.2C612.39 22.4267 612.657 21.7867 612.977 21.28H613.297C613.217 22.48 613.43 23.5867 613.937 24.6C614.47 25.6133 615.243 26.4267 616.257 27.04C617.27 27.6267 618.483 27.92 619.897 27.92C621.443 27.92 622.603 27.56 623.377 26.84C624.15 26.12 624.537 25.28 624.537 24.32C624.537 23.6 624.297 22.96 623.817 22.4C623.363 21.8133 622.603 21.24 621.537 20.68L615.857 17.08C614.523 16.3867 613.55 15.4667 612.937 14.32C612.35 13.1733 612.137 11.92 612.297 10.56C612.43 9.28 612.803 8.18667 613.417 7.28C614.057 6.37333 614.897 5.68 615.937 5.2C616.977 4.72 618.163 4.48 619.497 4.48ZM626.857 4.84L626.817 5.56H622.537V4.84H626.857ZM646.317 4.48C648.45 4.48 650.384 4.77333 652.117 5.36C653.85 5.92 655.344 6.74666 656.597 7.84C657.85 8.93333 658.81 10.2533 659.477 11.8C660.17 13.3467 660.517 15.0933 660.517 17.04C660.517 18.96 660.17 20.6933 659.477 22.24C658.81 23.76 657.85 25.0667 656.597 26.16C655.344 27.2533 653.85 28.0933 652.117 28.68C650.384 29.24 648.45 29.52 646.317 29.52C644.21 29.52 642.29 29.24 640.557 28.68C638.824 28.0933 637.33 27.2533 636.077 26.16C634.824 25.0667 633.864 23.76 633.197 22.24C632.53 20.6933 632.197 18.96 632.197 17.04C632.197 15.0933 632.53 13.3467 633.197 11.8C633.864 10.2533 634.824 8.93333 636.077 7.84C637.33 6.74666 638.824 5.92 640.557 5.36C642.29 4.77333 644.21 4.48 646.317 4.48ZM646.317 27.96C647.944 27.96 649.357 27.52 650.557 26.64C651.784 25.7333 652.717 24.4667 653.357 22.84C654.024 21.2133 654.357 19.28 654.357 17.04C654.357 14.7733 654.024 12.8267 653.357 11.2C652.717 9.54667 651.784 8.28 650.557 7.4C649.357 6.49333 647.944 6.04 646.317 6.04C644.717 6.04 643.317 6.49333 642.117 7.4C640.917 8.28 639.984 9.54667 639.317 11.2C638.65 12.8267 638.317 14.7733 638.317 17.04C638.317 19.28 638.65 21.2133 639.317 22.84C639.984 24.4667 640.917 25.7333 642.117 26.64C643.317 27.52 644.717 27.96 646.317 27.96Z" fill="black"/>
</svg>
