<svg width="235" height="14" viewBox="0 0 235 14" fill="none" xmlns="http://www.w3.org/2000/svg">
<path d="M0.215017 10.5V0.699999H6.09502V1.848H1.54502V4.83H5.46502V5.95H1.54502V9.352H6.09502V10.5H0.215017ZM8.54064 6.272V5.124H13.3006V6.272H8.54064ZM16.2352 10.5V3.22H17.4532V4.438C17.7145 4.046 18.0458 3.71933 18.4472 3.458C18.8485 3.18733 19.3058 3.052 19.8192 3.052C20.3978 3.052 20.8692 3.192 21.2332 3.472C21.6065 3.752 21.8678 4.12533 22.0172 4.592C22.3065 4.16267 22.6472 3.79867 23.0392 3.5C23.4405 3.20133 23.9352 3.052 24.5232 3.052C25.3165 3.052 25.9045 3.304 26.2872 3.808C26.6792 4.30267 26.8752 4.95133 26.8752 5.754V10.5H25.6152V5.852C25.6152 5.348 25.4985 4.942 25.2652 4.634C25.0318 4.31667 24.7098 4.158 24.2992 4.158C23.8792 4.158 23.4872 4.31667 23.1232 4.634C22.7685 4.942 22.4558 5.306 22.1852 5.726V10.5H20.9252V5.852C20.9252 5.348 20.8085 4.942 20.5752 4.634C20.3418 4.31667 20.0198 4.158 19.6092 4.158C19.1985 4.158 18.8112 4.312 18.4472 4.62C18.0832 4.91867 17.7658 5.27333 17.4952 5.684V10.5H16.2352ZM31.8317 10.668C31.2251 10.668 30.6744 10.514 30.1797 10.206C29.6851 9.898 29.2884 9.464 28.9897 8.904C28.7004 8.33467 28.5557 7.66733 28.5557 6.902C28.5557 6.174 28.7004 5.52067 28.9897 4.942C29.2884 4.36333 29.6944 3.906 30.2077 3.57C30.7304 3.22467 31.3277 3.052 31.9997 3.052C32.4197 3.052 32.7977 3.12667 33.1337 3.276C33.4791 3.416 33.7777 3.59333 34.0297 3.808V3.22H35.1777V8.736C35.1777 9.09067 35.2617 9.324 35.4297 9.436C35.6071 9.53867 35.7984 9.59 36.0037 9.59L35.7377 10.57C34.8417 10.57 34.3004 10.206 34.1137 9.478C33.8991 9.77667 33.6051 10.052 33.2317 10.304C32.8677 10.5467 32.4011 10.668 31.8317 10.668ZM32.1117 9.548C32.4664 9.548 32.8024 9.464 33.1197 9.296C33.4371 9.11867 33.7031 8.89933 33.9177 8.638V4.732C33.6657 4.55467 33.3857 4.41467 33.0777 4.312C32.7791 4.2 32.4617 4.144 32.1257 4.144C31.6777 4.144 31.2811 4.26067 30.9357 4.494C30.5997 4.718 30.3337 5.03533 30.1377 5.446C29.9417 5.84733 29.8437 6.31867 29.8437 6.86C29.8437 7.38267 29.9417 7.84933 30.1377 8.26C30.3337 8.66133 30.6044 8.97867 30.9497 9.212C31.2951 9.436 31.6824 9.548 32.1117 9.548ZM37.6863 10.5V3.22H38.9463V10.5H37.6863ZM38.3163 1.974C38.0737 1.974 37.8637 1.88533 37.6863 1.708C37.5183 1.53067 37.4343 1.32533 37.4343 1.092C37.4343 0.821333 37.5137 0.606666 37.6723 0.447999C37.831 0.289333 38.0457 0.21 38.3163 0.21C38.559 0.21 38.7643 0.298666 38.9323 0.476C39.1097 0.644 39.1983 0.849333 39.1983 1.092C39.1983 1.35333 39.119 1.568 38.9603 1.736C38.8017 1.89467 38.587 1.974 38.3163 1.974ZM43.3983 10.668C42.969 10.668 42.5817 10.5887 42.2363 10.43C41.891 10.262 41.6157 9.996 41.4103 9.632C41.2143 9.268 41.1163 8.79667 41.1163 8.218V0.14H42.3763V8.092C42.3763 8.596 42.479 8.96933 42.6843 9.212C42.899 9.45467 43.193 9.576 43.5663 9.576C43.7437 9.576 43.9163 9.55733 44.0843 9.52C44.2617 9.47333 44.411 9.422 44.5323 9.366L44.8403 10.388C44.6723 10.4627 44.4623 10.528 44.2103 10.584C43.9677 10.64 43.697 10.668 43.3983 10.668ZM47.0062 4.928C46.7542 4.928 46.5349 4.83467 46.3482 4.648C46.1615 4.46133 46.0682 4.242 46.0682 3.99C46.0682 3.70067 46.1522 3.472 46.3202 3.304C46.4882 3.136 46.7169 3.052 47.0062 3.052C47.2489 3.052 47.4635 3.14533 47.6502 3.332C47.8462 3.51867 47.9442 3.738 47.9442 3.99C47.9442 4.27 47.8555 4.49867 47.6782 4.676C47.5009 4.844 47.2769 4.928 47.0062 4.928ZM47.0062 10.668C46.7542 10.668 46.5349 10.5747 46.3482 10.388C46.1615 10.2013 46.0682 9.982 46.0682 9.73C46.0682 9.44067 46.1522 9.212 46.3202 9.044C46.4882 8.876 46.7169 8.792 47.0062 8.792C47.2489 8.792 47.4635 8.88533 47.6502 9.072C47.8462 9.25867 47.9442 9.478 47.9442 9.73C47.9442 10.01 47.8555 10.2387 47.6782 10.416C47.5009 10.584 47.2769 10.668 47.0062 10.668ZM56.9687 10.668C56.2687 10.668 55.7134 10.4393 55.3027 9.982C54.9014 9.51533 54.7007 8.85267 54.7007 7.994V4.578H53.4407V3.486H54.7287L54.9947 1.19H55.9607V3.486H57.9767V4.578H55.9607V8.092C55.9607 8.63333 56.0727 9.01133 56.2967 9.226C56.5301 9.44067 56.8054 9.548 57.1227 9.548C57.3561 9.548 57.5754 9.51067 57.7807 9.436C57.9954 9.36133 58.1914 9.27267 58.3687 9.17L58.7187 10.178C58.5321 10.29 58.2801 10.3973 57.9627 10.5C57.6454 10.612 57.3141 10.668 56.9687 10.668ZM62.6237 10.668C61.5784 10.668 60.7477 10.3367 60.1317 9.674C59.5251 9.002 59.2217 8.064 59.2217 6.86C59.2217 6.132 59.3571 5.48333 59.6277 4.914C59.9077 4.33533 60.2951 3.88267 60.7897 3.556C61.2844 3.22 61.8584 3.052 62.5117 3.052C63.2117 3.052 63.7904 3.206 64.2477 3.514C64.7144 3.81267 65.0644 4.21867 65.2977 4.732C65.5311 5.24533 65.6477 5.81 65.6477 6.426C65.6477 6.75267 65.6337 7.07 65.6057 7.378H60.5097C60.5937 8.05933 60.8317 8.59133 61.2237 8.974C61.6157 9.35667 62.1337 9.548 62.7777 9.548C63.1977 9.548 63.5757 9.506 63.9117 9.422C64.2477 9.32867 64.5697 9.212 64.8777 9.072L65.1717 10.15C64.8357 10.2993 64.4577 10.4207 64.0377 10.514C63.6177 10.6167 63.1464 10.668 62.6237 10.668ZM60.4957 6.356H64.4857C64.4857 5.64667 64.3084 5.10067 63.9537 4.718C63.5991 4.33533 63.1091 4.144 62.4837 4.144C61.9424 4.144 61.4944 4.33533 61.1397 4.718C60.7851 5.09133 60.5704 5.63733 60.4957 6.356ZM70.113 10.668C69.5063 10.668 68.9556 10.514 68.461 10.206C67.9663 9.898 67.5696 9.464 67.271 8.904C66.9816 8.33467 66.837 7.66733 66.837 6.902C66.837 6.174 66.9816 5.52067 67.271 4.942C67.5696 4.36333 67.9756 3.906 68.489 3.57C69.0116 3.22467 69.609 3.052 70.281 3.052C70.701 3.052 71.079 3.12667 71.415 3.276C71.7603 3.416 72.059 3.59333 72.311 3.808V3.22H73.459V8.736C73.459 9.09067 73.543 9.324 73.711 9.436C73.8883 9.53867 74.0796 9.59 74.285 9.59L74.019 10.57C73.123 10.57 72.5816 10.206 72.395 9.478C72.1803 9.77667 71.8863 10.052 71.513 10.304C71.149 10.5467 70.6823 10.668 70.113 10.668ZM70.393 9.548C70.7476 9.548 71.0836 9.464 71.401 9.296C71.7183 9.11867 71.9843 8.89933 72.199 8.638V4.732C71.947 4.55467 71.667 4.41467 71.359 4.312C71.0603 4.2 70.743 4.144 70.407 4.144C69.959 4.144 69.5623 4.26067 69.217 4.494C68.881 4.718 68.615 5.03533 68.419 5.446C68.223 5.84733 68.125 6.31867 68.125 6.86C68.125 7.38267 68.223 7.84933 68.419 8.26C68.615 8.66133 68.8856 8.97867 69.231 9.212C69.5763 9.436 69.9636 9.548 70.393 9.548ZM75.9676 10.5V3.22H77.1856V4.438C77.4469 4.046 77.7783 3.71933 78.1796 3.458C78.5809 3.18733 79.0383 3.052 79.5516 3.052C80.1303 3.052 80.6016 3.192 80.9656 3.472C81.3389 3.752 81.6003 4.12533 81.7496 4.592C82.0389 4.16267 82.3796 3.79867 82.7716 3.5C83.1729 3.20133 83.6676 3.052 84.2556 3.052C85.0489 3.052 85.6369 3.304 86.0196 3.808C86.4116 4.30267 86.6076 4.95133 86.6076 5.754V10.5H85.3476V5.852C85.3476 5.348 85.2309 4.942 84.9976 4.634C84.7643 4.31667 84.4423 4.158 84.0316 4.158C83.6116 4.158 83.2196 4.31667 82.8556 4.634C82.5009 4.942 82.1883 5.306 81.9176 5.726V10.5H80.6576V5.852C80.6576 5.348 80.5409 4.942 80.3076 4.634C80.0743 4.31667 79.7523 4.158 79.3416 4.158C78.9309 4.158 78.5436 4.312 78.1796 4.62C77.8156 4.91867 77.4983 5.27333 77.2276 5.684V10.5H75.9676ZM90.7381 10.668C90.1875 10.668 89.6881 10.598 89.2401 10.458C88.8015 10.318 88.4375 10.136 88.1481 9.912L88.6801 8.862C88.9228 9.06733 89.2261 9.24 89.5901 9.38C89.9635 9.51067 90.3601 9.576 90.7801 9.576C91.3028 9.576 91.6948 9.492 91.9561 9.324C92.2268 9.14667 92.3621 8.92267 92.3621 8.652C92.3621 8.456 92.3108 8.28333 92.2081 8.134C92.1148 7.98467 91.9375 7.84 91.6761 7.7C91.4148 7.55067 91.0368 7.392 90.5421 7.224C89.8608 6.99067 89.3475 6.71533 89.0021 6.398C88.6661 6.07133 88.4981 5.62333 88.4981 5.054C88.4981 4.494 88.7408 4.02267 89.2261 3.64C89.7208 3.248 90.4021 3.052 91.2701 3.052C91.7368 3.052 92.1521 3.10333 92.5161 3.206C92.8801 3.29933 93.2068 3.42067 93.4961 3.57L93.1461 4.606C92.8941 4.45667 92.6048 4.33533 92.2781 4.242C91.9608 4.14867 91.6061 4.102 91.2141 4.102C90.7288 4.102 90.3601 4.2 90.1081 4.396C89.8561 4.592 89.7301 4.80667 89.7301 5.04C89.7301 5.264 89.8281 5.45533 90.0241 5.614C90.2201 5.77267 90.6028 5.94533 91.1721 6.132C92.0961 6.44 92.7401 6.78067 93.1041 7.154C93.4681 7.52733 93.6501 7.994 93.6501 8.554C93.6501 9.20733 93.3841 9.72533 92.8521 10.108C92.3295 10.4813 91.6248 10.668 90.7381 10.668ZM97.273 10.5L94.347 3.556L95.495 3.08L97.973 9.072L100.451 3.08L101.529 3.556L98.589 10.5H97.273ZM105.43 10.668C104.385 10.668 103.554 10.3367 102.938 9.674C102.332 9.002 102.028 8.064 102.028 6.86C102.028 6.132 102.164 5.48333 102.434 4.914C102.714 4.33533 103.102 3.88267 103.596 3.556C104.091 3.22 104.665 3.052 105.318 3.052C106.018 3.052 106.597 3.206 107.054 3.514C107.521 3.81267 107.871 4.21867 108.104 4.732C108.338 5.24533 108.454 5.81 108.454 6.426C108.454 6.75267 108.44 7.07 108.412 7.378H103.316C103.4 8.05933 103.638 8.59133 104.03 8.974C104.422 9.35667 104.94 9.548 105.584 9.548C106.004 9.548 106.382 9.506 106.718 9.422C107.054 9.32867 107.376 9.212 107.684 9.072L107.978 10.15C107.642 10.2993 107.264 10.4207 106.844 10.514C106.424 10.6167 105.953 10.668 105.43 10.668ZM103.302 6.356H107.292C107.292 5.64667 107.115 5.10067 106.76 4.718C106.406 4.33533 105.916 4.144 105.29 4.144C104.749 4.144 104.301 4.33533 103.946 4.718C103.592 5.09133 103.377 5.63733 103.302 6.356ZM112.094 10.668C111.543 10.668 111.044 10.598 110.596 10.458C110.157 10.318 109.793 10.136 109.504 9.912L110.036 8.862C110.278 9.06733 110.582 9.24 110.946 9.38C111.319 9.51067 111.716 9.576 112.136 9.576C112.658 9.576 113.05 9.492 113.312 9.324C113.582 9.14667 113.718 8.92267 113.718 8.652C113.718 8.456 113.666 8.28333 113.564 8.134C113.47 7.98467 113.293 7.84 113.032 7.7C112.77 7.55067 112.392 7.392 111.898 7.224C111.216 6.99067 110.703 6.71533 110.358 6.398C110.022 6.07133 109.854 5.62333 109.854 5.054C109.854 4.494 110.096 4.02267 110.582 3.64C111.076 3.248 111.758 3.052 112.626 3.052C113.092 3.052 113.508 3.10333 113.872 3.206C114.236 3.29933 114.562 3.42067 114.852 3.57L114.502 4.606C114.25 4.45667 113.96 4.33533 113.634 4.242C113.316 4.14867 112.962 4.102 112.57 4.102C112.084 4.102 111.716 4.2 111.464 4.396C111.212 4.592 111.086 4.80667 111.086 5.04C111.086 5.264 111.184 5.45533 111.38 5.614C111.576 5.77267 111.958 5.94533 112.528 6.132C113.452 6.44 114.096 6.78067 114.46 7.154C114.824 7.52733 115.006 7.994 115.006 8.554C115.006 9.20733 114.74 9.72533 114.208 10.108C113.685 10.4813 112.98 10.668 112.094 10.668ZM119.468 10.668C118.862 10.668 118.311 10.514 117.816 10.206C117.322 9.898 116.925 9.464 116.626 8.904C116.337 8.33467 116.192 7.66733 116.192 6.902C116.192 6.174 116.337 5.52067 116.626 4.942C116.925 4.36333 117.331 3.906 117.844 3.57C118.367 3.22467 118.964 3.052 119.636 3.052C120.056 3.052 120.434 3.12667 120.77 3.276C121.116 3.416 121.414 3.59333 121.666 3.808V3.22H122.814V8.736C122.814 9.09067 122.898 9.324 123.066 9.436C123.244 9.53867 123.435 9.59 123.64 9.59L123.374 10.57C122.478 10.57 121.937 10.206 121.75 9.478C121.536 9.77667 121.242 10.052 120.868 10.304C120.504 10.5467 120.038 10.668 119.468 10.668ZM119.748 9.548C120.103 9.548 120.439 9.464 120.756 9.296C121.074 9.11867 121.34 8.89933 121.554 8.638V4.732C121.302 4.55467 121.022 4.41467 120.714 4.312C120.416 4.2 120.098 4.144 119.762 4.144C119.314 4.144 118.918 4.26067 118.572 4.494C118.236 4.718 117.97 5.03533 117.774 5.446C117.578 5.84733 117.48 6.31867 117.48 6.86C117.48 7.38267 117.578 7.84933 117.774 8.26C117.97 8.66133 118.241 8.97867 118.586 9.212C118.932 9.436 119.319 9.548 119.748 9.548ZM127.535 10.668C127.106 10.668 126.718 10.5887 126.373 10.43C126.028 10.262 125.752 9.996 125.547 9.632C125.351 9.268 125.253 8.79667 125.253 8.218V0.14H126.513V8.092C126.513 8.596 126.616 8.96933 126.821 9.212C127.036 9.45467 127.33 9.576 127.703 9.576C127.88 9.576 128.053 9.55733 128.221 9.52C128.398 9.47333 128.548 9.422 128.669 9.366L128.977 10.388C128.809 10.4627 128.599 10.528 128.347 10.584C128.104 10.64 127.834 10.668 127.535 10.668ZM130.163 10.5V0.14H131.423V4.382C131.684 3.99933 132.016 3.682 132.417 3.43C132.818 3.178 133.29 3.052 133.831 3.052C134.652 3.052 135.264 3.29933 135.665 3.794C136.076 4.28867 136.281 4.942 136.281 5.754V10.5H135.021V5.894C135.021 5.37133 134.9 4.95133 134.657 4.634C134.414 4.31667 134.074 4.158 133.635 4.158C133.206 4.158 132.795 4.312 132.403 4.62C132.02 4.91867 131.694 5.27333 131.423 5.684V10.5H130.163ZM141.36 10.668C140.315 10.668 139.484 10.3367 138.868 9.674C138.261 9.002 137.958 8.064 137.958 6.86C137.958 6.132 138.093 5.48333 138.364 4.914C138.644 4.33533 139.031 3.88267 139.526 3.556C140.021 3.22 140.595 3.052 141.248 3.052C141.948 3.052 142.527 3.206 142.984 3.514C143.451 3.81267 143.801 4.21867 144.034 4.732C144.267 5.24533 144.384 5.81 144.384 6.426C144.384 6.75267 144.37 7.07 144.342 7.378H139.246C139.33 8.05933 139.568 8.59133 139.96 8.974C140.352 9.35667 140.87 9.548 141.514 9.548C141.934 9.548 142.312 9.506 142.648 9.422C142.984 9.32867 143.306 9.212 143.614 9.072L143.908 10.15C143.572 10.2993 143.194 10.4207 142.774 10.514C142.354 10.6167 141.883 10.668 141.36 10.668ZM139.232 6.356H143.222C143.222 5.64667 143.045 5.10067 142.69 4.718C142.335 4.33533 141.845 4.144 141.22 4.144C140.679 4.144 140.231 4.33533 139.876 4.718C139.521 5.09133 139.307 5.63733 139.232 6.356ZM148.023 10.668C147.473 10.668 146.973 10.598 146.525 10.458C146.087 10.318 145.723 10.136 145.433 9.912L145.965 8.862C146.208 9.06733 146.511 9.24 146.875 9.38C147.249 9.51067 147.645 9.576 148.065 9.576C148.588 9.576 148.98 9.492 149.241 9.324C149.512 9.14667 149.647 8.92267 149.647 8.652C149.647 8.456 149.596 8.28333 149.493 8.134C149.4 7.98467 149.223 7.84 148.961 7.7C148.7 7.55067 148.322 7.392 147.827 7.224C147.146 6.99067 146.633 6.71533 146.287 6.398C145.951 6.07133 145.783 5.62333 145.783 5.054C145.783 4.494 146.026 4.02267 146.511 3.64C147.006 3.248 147.687 3.052 148.555 3.052C149.022 3.052 149.437 3.10333 149.801 3.206C150.165 3.29933 150.492 3.42067 150.781 3.57L150.431 4.606C150.179 4.45667 149.89 4.33533 149.563 4.242C149.246 4.14867 148.891 4.102 148.499 4.102C148.014 4.102 147.645 4.2 147.393 4.396C147.141 4.592 147.015 4.80667 147.015 5.04C147.015 5.264 147.113 5.45533 147.309 5.614C147.505 5.77267 147.888 5.94533 148.457 6.132C149.381 6.44 150.025 6.78067 150.389 7.154C150.753 7.52733 150.935 7.994 150.935 8.554C150.935 9.20733 150.669 9.72533 150.137 10.108C149.615 10.4813 148.91 10.668 148.023 10.668ZM158.688 13.748C157.493 13.748 156.429 13.51 155.496 13.034C154.563 12.558 153.83 11.8533 153.298 10.92C152.766 9.996 152.5 8.86667 152.5 7.532C152.5 6.59867 152.659 5.712 152.976 4.872C153.293 4.032 153.751 3.28533 154.348 2.632C154.945 1.97867 155.659 1.46533 156.49 1.092C157.33 0.718666 158.268 0.532 159.304 0.532C160.181 0.532 160.979 0.672 161.698 0.951999C162.417 1.232 163.033 1.624 163.546 2.128C164.069 2.632 164.47 3.22 164.75 3.892C165.03 4.564 165.17 5.292 165.17 6.076C165.17 6.972 165.03 7.76533 164.75 8.456C164.47 9.14667 164.087 9.688 163.602 10.08C163.117 10.472 162.561 10.668 161.936 10.668C161.469 10.668 161.091 10.5467 160.802 10.304C160.513 10.0613 160.34 9.73933 160.284 9.338C160.023 9.65533 159.705 9.93067 159.332 10.164C158.968 10.388 158.553 10.5 158.086 10.5C157.619 10.5 157.181 10.3833 156.77 10.15C156.369 9.90733 156.047 9.562 155.804 9.114C155.561 8.666 155.44 8.12933 155.44 7.504C155.44 6.79467 155.585 6.16 155.874 5.6C156.163 5.03067 156.551 4.58267 157.036 4.256C157.521 3.92 158.063 3.752 158.66 3.752C159.145 3.752 159.556 3.85 159.892 4.046C160.237 4.242 160.508 4.48933 160.704 4.788L160.83 3.85H161.936L161.362 8.428C161.334 8.63333 161.32 8.79667 161.32 8.918C161.32 9.17933 161.376 9.38933 161.488 9.548C161.6 9.69733 161.787 9.772 162.048 9.772C162.375 9.772 162.678 9.618 162.958 9.31C163.238 9.002 163.462 8.57733 163.63 8.036C163.798 7.48533 163.882 6.85533 163.882 6.146C163.882 5.278 163.681 4.508 163.28 3.836C162.888 3.15467 162.342 2.62267 161.642 2.24C160.942 1.848 160.135 1.652 159.22 1.652C158.352 1.652 157.577 1.82 156.896 2.156C156.224 2.492 155.655 2.94 155.188 3.5C154.731 4.06 154.381 4.68533 154.138 5.376C153.905 6.06667 153.788 6.77133 153.788 7.49C153.788 8.57267 154.003 9.49667 154.432 10.262C154.871 11.0273 155.468 11.6107 156.224 12.012C156.98 12.4227 157.829 12.628 158.772 12.628C159.481 12.628 160.116 12.544 160.676 12.376C161.236 12.208 161.763 12.0027 162.258 11.76L162.664 12.824C162.179 13.0853 161.591 13.3047 160.9 13.482C160.209 13.6593 159.472 13.748 158.688 13.748ZM158.464 9.464C158.828 9.464 159.164 9.366 159.472 9.17C159.789 8.96467 160.037 8.74533 160.214 8.512L160.55 5.74C160.373 5.44133 160.13 5.19867 159.822 5.012C159.523 4.82533 159.183 4.732 158.8 4.732C158.427 4.732 158.072 4.844 157.736 5.068C157.409 5.28267 157.143 5.586 156.938 5.978C156.742 6.36067 156.644 6.80867 156.644 7.322C156.644 8.03133 156.821 8.568 157.176 8.932C157.531 9.28667 157.96 9.464 158.464 9.464ZM169.983 13.748C169.554 13.748 169.134 13.6967 168.723 13.594C168.322 13.4913 167.963 13.3373 167.645 13.132L168.107 12.04C168.331 12.2173 168.593 12.362 168.891 12.474C169.19 12.5953 169.554 12.656 169.983 12.656C170.646 12.656 171.164 12.4787 171.537 12.124C171.92 11.7787 172.111 11.2233 172.111 10.458V9.562C171.925 9.786 171.654 10.0007 171.299 10.206C170.954 10.402 170.539 10.5 170.053 10.5C169.503 10.5 168.98 10.36 168.485 10.08C167.991 9.79067 167.589 9.37067 167.281 8.82C166.973 8.26933 166.819 7.60667 166.819 6.832C166.819 6.104 166.969 5.45533 167.267 4.886C167.575 4.31667 167.986 3.86867 168.499 3.542C169.013 3.21533 169.577 3.052 170.193 3.052C170.604 3.052 170.977 3.122 171.313 3.262C171.649 3.402 171.939 3.57467 172.181 3.78V3.22H173.329V10.332C173.329 11.1347 173.189 11.788 172.909 12.292C172.629 12.796 172.237 13.1647 171.733 13.398C171.239 13.6313 170.655 13.748 169.983 13.748ZM170.333 9.38C170.707 9.38 171.043 9.296 171.341 9.128C171.64 8.96 171.883 8.764 172.069 8.54V4.732C171.864 4.58267 171.617 4.44733 171.327 4.326C171.038 4.20467 170.702 4.144 170.319 4.144C169.937 4.144 169.577 4.24667 169.241 4.452C168.905 4.65733 168.63 4.956 168.415 5.348C168.21 5.73067 168.107 6.202 168.107 6.762C168.107 7.294 168.21 7.756 168.415 8.148C168.63 8.54 168.905 8.84333 169.241 9.058C169.577 9.27267 169.941 9.38 170.333 9.38ZM175.499 10.5V3.22H176.717V4.438C176.978 4.046 177.31 3.71933 177.711 3.458C178.112 3.18733 178.57 3.052 179.083 3.052C179.662 3.052 180.133 3.192 180.497 3.472C180.87 3.752 181.132 4.12533 181.281 4.592C181.57 4.16267 181.911 3.79867 182.303 3.5C182.704 3.20133 183.199 3.052 183.787 3.052C184.58 3.052 185.168 3.304 185.551 3.808C185.943 4.30267 186.139 4.95133 186.139 5.754V10.5H184.879V5.852C184.879 5.348 184.762 4.942 184.529 4.634C184.296 4.31667 183.974 4.158 183.563 4.158C183.143 4.158 182.751 4.31667 182.387 4.634C182.032 4.942 181.72 5.306 181.449 5.726V10.5H180.189V5.852C180.189 5.348 180.072 4.942 179.839 4.634C179.606 4.31667 179.284 4.158 178.873 4.158C178.462 4.158 178.075 4.312 177.711 4.62C177.347 4.91867 177.03 5.27333 176.759 5.684V10.5H175.499ZM191.095 10.668C190.489 10.668 189.938 10.514 189.443 10.206C188.949 9.898 188.552 9.464 188.253 8.904C187.964 8.33467 187.819 7.66733 187.819 6.902C187.819 6.174 187.964 5.52067 188.253 4.942C188.552 4.36333 188.958 3.906 189.471 3.57C189.994 3.22467 190.591 3.052 191.263 3.052C191.683 3.052 192.061 3.12667 192.397 3.276C192.743 3.416 193.041 3.59333 193.293 3.808V3.22H194.441V8.736C194.441 9.09067 194.525 9.324 194.693 9.436C194.871 9.53867 195.062 9.59 195.267 9.59L195.001 10.57C194.105 10.57 193.564 10.206 193.377 9.478C193.163 9.77667 192.869 10.052 192.495 10.304C192.131 10.5467 191.665 10.668 191.095 10.668ZM191.375 9.548C191.73 9.548 192.066 9.464 192.383 9.296C192.701 9.11867 192.967 8.89933 193.181 8.638V4.732C192.929 4.55467 192.649 4.41467 192.341 4.312C192.043 4.2 191.725 4.144 191.389 4.144C190.941 4.144 190.545 4.26067 190.199 4.494C189.863 4.718 189.597 5.03533 189.401 5.446C189.205 5.84733 189.107 6.31867 189.107 6.86C189.107 7.38267 189.205 7.84933 189.401 8.26C189.597 8.66133 189.868 8.97867 190.213 9.212C190.559 9.436 190.946 9.548 191.375 9.548ZM196.95 10.5V3.22H198.21V10.5H196.95ZM197.58 1.974C197.337 1.974 197.127 1.88533 196.95 1.708C196.782 1.53067 196.698 1.32533 196.698 1.092C196.698 0.821333 196.777 0.606666 196.936 0.447999C197.095 0.289333 197.309 0.21 197.58 0.21C197.823 0.21 198.028 0.298666 198.196 0.476C198.373 0.644 198.462 0.849333 198.462 1.092C198.462 1.35333 198.383 1.568 198.224 1.736C198.065 1.89467 197.851 1.974 197.58 1.974ZM202.662 10.668C202.233 10.668 201.845 10.5887 201.5 10.43C201.155 10.262 200.879 9.996 200.674 9.632C200.478 9.268 200.38 8.79667 200.38 8.218V0.14H201.64V8.092C201.64 8.596 201.743 8.96933 201.948 9.212C202.163 9.45467 202.457 9.576 202.83 9.576C203.007 9.576 203.18 9.55733 203.348 9.52C203.525 9.47333 203.675 9.422 203.796 9.366L204.104 10.388C203.936 10.4627 203.726 10.528 203.474 10.584C203.231 10.64 202.961 10.668 202.662 10.668ZM206.27 10.668C206.018 10.668 205.799 10.5747 205.612 10.388C205.425 10.2013 205.332 9.982 205.332 9.73C205.332 9.44067 205.416 9.212 205.584 9.044C205.752 8.876 205.981 8.792 206.27 8.792C206.513 8.792 206.727 8.88533 206.914 9.072C207.11 9.25867 207.208 9.478 207.208 9.73C207.208 10.01 207.119 10.2387 206.942 10.416C206.765 10.584 206.541 10.668 206.27 10.668ZM212.072 10.668C211.381 10.668 210.774 10.5093 210.252 10.192C209.738 9.86533 209.342 9.41733 209.062 8.848C208.782 8.26933 208.642 7.60667 208.642 6.86C208.642 6.16 208.782 5.52067 209.062 4.942C209.351 4.36333 209.762 3.906 210.294 3.57C210.826 3.22467 211.451 3.052 212.17 3.052C212.58 3.052 212.94 3.08933 213.248 3.164C213.565 3.23867 213.868 3.346 214.158 3.486L213.78 4.55C213.518 4.41933 213.266 4.326 213.024 4.27C212.79 4.20467 212.529 4.172 212.24 4.172C211.586 4.172 211.036 4.41 210.588 4.886C210.149 5.35267 209.93 6.00133 209.93 6.832C209.93 7.336 210.023 7.79333 210.21 8.204C210.396 8.61467 210.653 8.94133 210.98 9.184C211.316 9.42667 211.708 9.548 212.156 9.548C212.51 9.548 212.814 9.51067 213.066 9.436C213.318 9.352 213.588 9.23533 213.878 9.086L214.27 10.15C213.98 10.3087 213.654 10.4347 213.29 10.528C212.935 10.6213 212.529 10.668 212.072 10.668ZM218.664 10.668C217.974 10.668 217.353 10.5093 216.802 10.192C216.252 9.86533 215.818 9.41733 215.5 8.848C215.192 8.26933 215.038 7.60667 215.038 6.86C215.038 6.076 215.197 5.39933 215.514 4.83C215.832 4.26067 216.266 3.822 216.816 3.514C217.367 3.206 217.983 3.052 218.664 3.052C219.346 3.052 219.957 3.206 220.498 3.514C221.049 3.822 221.483 4.26067 221.8 4.83C222.127 5.39 222.29 6.05733 222.29 6.832C222.29 7.60667 222.132 8.28333 221.814 8.862C221.497 9.43133 221.063 9.87467 220.512 10.192C219.971 10.5093 219.355 10.668 218.664 10.668ZM218.664 9.548C219.402 9.548 219.976 9.30067 220.386 8.806C220.797 8.302 221.002 7.65333 221.002 6.86C221.002 6.37467 220.9 5.93133 220.694 5.53C220.489 5.11933 220.209 4.79267 219.854 4.55C219.509 4.298 219.112 4.172 218.664 4.172C217.927 4.172 217.353 4.41467 216.942 4.9C216.532 5.38533 216.326 6.02933 216.326 6.832C216.326 7.31733 216.429 7.77 216.634 8.19C216.84 8.60067 217.115 8.932 217.46 9.184C217.815 9.42667 218.216 9.548 218.664 9.548ZM223.966 10.5V3.22H225.184V4.438C225.445 4.046 225.776 3.71933 226.178 3.458C226.579 3.18733 227.036 3.052 227.55 3.052C228.128 3.052 228.6 3.192 228.964 3.472C229.337 3.752 229.598 4.12533 229.748 4.592C230.037 4.16267 230.378 3.79867 230.77 3.5C231.171 3.20133 231.666 3.052 232.254 3.052C233.047 3.052 233.635 3.304 234.018 3.808C234.41 4.30267 234.606 4.95133 234.606 5.754V10.5H233.346V5.852C233.346 5.348 233.229 4.942 232.996 4.634C232.762 4.31667 232.44 4.158 232.03 4.158C231.61 4.158 231.218 4.31667 230.854 4.634C230.499 4.942 230.186 5.306 229.916 5.726V10.5H228.656V5.852C228.656 5.348 228.539 4.942 228.306 4.634C228.072 4.31667 227.75 4.158 227.34 4.158C226.929 4.158 226.542 4.312 226.178 4.62C225.814 4.91867 225.496 5.27333 225.226 5.684V10.5H223.966Z" fill="white"/>
</svg>
