<svg width="178" height="24" viewBox="0 0 178 24" fill="none" xmlns="http://www.w3.org/2000/svg">
<path d="M12.744 23.448L2.824 0.792H5.544L13.384 20.408L12.744 23.448ZM12.744 23.448L12.456 21.208L20.968 0.695999H22.888L14.216 20.152C14.216 20.152 14.152 20.2907 14.024 20.568C13.9173 20.824 13.7787 21.144 13.608 21.528C13.4587 21.912 13.32 22.2853 13.192 22.648C13.0853 23.0107 13.032 23.2773 13.032 23.448H12.744ZM20.072 2.904C20.3067 2.264 20.264 1.77333 19.944 1.432C19.624 1.09067 19.2613 0.919998 18.856 0.919998H18.568V0.599998H25V0.919998C25 0.919998 24.9467 0.919998 24.84 0.919998C24.7547 0.919998 24.712 0.919998 24.712 0.919998C24.2427 0.919998 23.7413 1.08 23.208 1.4C22.6747 1.69867 22.2373 2.21067 21.896 2.936L20.072 2.904ZM6.408 2.904L3.752 2.936C3.432 2.21067 3.00533 1.69867 2.472 1.4C1.93867 1.08 1.42667 0.919998 0.936 0.919998C0.936 0.919998 0.893333 0.919998 0.808 0.919998C0.722667 0.919998 0.68 0.919998 0.68 0.919998V0.599998H7.88V0.919998H7.592C7.18667 0.919998 6.824 1.09067 6.504 1.432C6.20533 1.77333 6.17333 2.264 6.408 2.904ZM31.1515 0.599998V23H29.0715V0.599998H31.1515ZM39.7915 22.008V23H31.0555V22.008H39.7915ZM38.4155 11.48V12.44H31.0555V11.48H38.4155ZM39.7915 0.599998V1.592H31.0555V0.599998H39.7915ZM41.7435 17.816L39.8875 23H34.5755L35.7275 22.008C36.8582 22.008 37.7755 21.8373 38.4795 21.496C39.2048 21.1333 39.7915 20.632 40.2395 19.992C40.6875 19.352 41.0822 18.6267 41.4235 17.816H41.7435ZM38.4155 12.376V14.488H38.0955V14.008C38.0955 13.5813 37.9462 13.2187 37.6475 12.92C37.3488 12.6 36.9862 12.44 36.5595 12.44V12.376H38.4155ZM38.4155 9.432V11.544H36.5595V11.48C36.9862 11.4587 37.3488 11.2987 37.6475 11C37.9462 10.68 38.0955 10.3067 38.0955 9.88V9.432H38.4155ZM39.7915 1.496V4.056H39.4715V3.48C39.4715 2.968 39.2902 2.53067 38.9275 2.168C38.5648 1.784 38.1168 1.58133 37.5835 1.56V1.496H39.7915ZM39.7915 0.0239983V0.952L35.8875 0.599998C36.3568 0.599998 36.8475 0.567999 37.3595 0.504C37.8928 0.439999 38.3835 0.365332 38.8315 0.279999C39.2795 0.194665 39.5995 0.109332 39.7915 0.0239983ZM29.1675 20.664V23H26.6075V22.68C26.6075 22.68 26.6715 22.68 26.7995 22.68C26.9488 22.68 27.0235 22.68 27.0235 22.68C27.5782 22.68 28.0475 22.488 28.4315 22.104C28.8368 21.6987 29.0502 21.2187 29.0715 20.664H29.1675ZM29.1675 2.936H29.0715C29.0715 2.38133 28.8688 1.912 28.4635 1.528C28.0582 1.12267 27.5782 0.919998 27.0235 0.919998C27.0235 0.919998 26.9595 0.919998 26.8315 0.919998C26.7035 0.919998 26.6395 0.919998 26.6395 0.919998L26.6075 0.599998H29.1675V2.936ZM48.8918 0.599998H53.4038C54.3638 0.599998 55.2278 0.738665 55.9958 1.016C56.7851 1.29333 57.4464 1.69867 57.9798 2.232C58.5131 2.744 58.9184 3.37333 59.1958 4.12C59.4944 4.84533 59.6438 5.67733 59.6438 6.616C59.6438 7.64 59.3984 8.62133 58.9078 9.56C58.4384 10.4987 57.7878 11.2667 56.9558 11.864C56.1451 12.44 55.2278 12.728 54.2038 12.728C54.5664 12.8773 54.9611 13.1867 55.3878 13.656C55.8144 14.104 56.1878 14.5413 56.5078 14.968C56.5078 14.968 56.6464 15.1813 56.9238 15.608C57.2224 16.0133 57.5851 16.5147 58.0118 17.112C58.4598 17.7093 58.9078 18.296 59.3558 18.872C59.8038 19.448 60.1878 19.9067 60.5078 20.248C60.9344 20.7173 61.3611 21.1333 61.7878 21.496C62.2144 21.8587 62.6731 22.1467 63.1638 22.36C63.6758 22.5733 64.2411 22.68 64.8598 22.68V23H63.0998C62.1184 23 61.2651 22.8507 60.5398 22.552C59.8358 22.2533 59.2384 21.8907 58.7478 21.464C58.2571 21.016 57.8411 20.5893 57.4998 20.184C57.4358 20.0987 57.2544 19.8533 56.9558 19.448C56.6784 19.0427 56.3371 18.5627 55.9318 18.008C55.5478 17.432 55.1638 16.8667 54.7798 16.312C54.3958 15.7573 54.0651 15.288 53.7878 14.904C53.5104 14.4987 53.3504 14.264 53.3078 14.2C52.9024 13.6667 52.4544 13.176 51.9638 12.728C51.4731 12.28 50.9398 12.056 50.3638 12.056V11.736C50.3638 11.736 50.5238 11.7467 50.8438 11.768C51.1851 11.768 51.5904 11.7573 52.0598 11.736C52.6144 11.7147 53.2224 11.6293 53.8838 11.48C54.5451 11.3307 55.1638 11.0213 55.7398 10.552C56.3158 10.0827 56.7531 9.368 57.0518 8.408C57.1158 8.17333 57.1691 7.88533 57.2118 7.544C57.2544 7.18133 57.2651 6.82933 57.2438 6.488C57.2224 5.03733 56.8491 3.88533 56.1238 3.032C55.4198 2.15733 54.4704 1.688 53.2758 1.624C52.6784 1.58133 52.0598 1.57067 51.4198 1.592C50.8011 1.592 50.2784 1.592 49.8518 1.592C49.4251 1.592 49.2118 1.592 49.2118 1.592C49.2118 1.57067 49.1798 1.48533 49.1158 1.336C49.0731 1.16533 49.0198 1.00533 48.9558 0.855999C48.9131 0.685332 48.8918 0.599998 48.8918 0.599998ZM49.3078 0.599998V23H47.2278V0.599998H49.3078ZM47.3238 20.664V23H44.7638V22.68C44.7638 22.68 44.8278 22.68 44.9557 22.68C45.1051 22.68 45.1798 22.68 45.1798 22.68C45.7344 22.68 46.2038 22.488 46.5878 22.104C46.9931 21.6987 47.2064 21.2187 47.2278 20.664H47.3238ZM47.3238 2.936H47.2278C47.2064 2.38133 46.9931 1.912 46.5878 1.528C46.2038 1.12267 45.7344 0.919998 45.1798 0.919998C45.1798 0.919998 45.1051 0.919998 44.9557 0.919998C44.8278 0.919998 44.7638 0.919998 44.7638 0.919998V0.599998H47.3238V2.936ZM49.2118 20.664H49.3078C49.3078 21.2187 49.5104 21.6987 49.9158 22.104C50.3211 22.488 50.8011 22.68 51.3558 22.68C51.3558 22.68 51.4198 22.68 51.5478 22.68C51.6758 22.68 51.7398 22.68 51.7398 22.68V23H49.2118V20.664ZM71.907 0.151999C72.2483 0.151999 72.611 0.173332 72.995 0.216C73.4003 0.258666 73.7843 0.322666 74.147 0.407999C74.531 0.471999 74.8723 0.546666 75.171 0.631998C75.491 0.695999 75.7363 0.770665 75.907 0.855999V4.408H75.619C75.619 3.384 75.267 2.584 74.563 2.008C73.859 1.41067 73.0057 1.112 72.003 1.112C70.8297 1.112 69.8803 1.48533 69.155 2.232C68.4297 2.95733 68.067 3.81067 68.067 4.792C68.067 5.19733 68.1523 5.67733 68.323 6.232C68.515 6.76533 68.8563 7.26667 69.347 7.736L75.651 13.56C76.291 14.1573 76.7177 14.7973 76.931 15.48C77.1443 16.1627 77.251 16.824 77.251 17.464C77.251 19.2347 76.707 20.6747 75.619 21.784C74.5523 22.8933 73.1017 23.448 71.267 23.448C70.755 23.448 70.147 23.3947 69.443 23.288C68.7603 23.1813 68.0883 23 67.427 22.744C66.787 22.4667 66.2537 22.1147 65.827 21.688C65.763 21.3467 65.731 20.92 65.731 20.408C65.731 19.896 65.7737 19.3627 65.859 18.808C65.9443 18.232 66.0617 17.7093 66.211 17.24H66.499C66.3923 18.328 66.531 19.2773 66.915 20.088C67.299 20.8987 67.8537 21.5173 68.579 21.944C69.3257 22.3493 70.1683 22.5307 71.107 22.488C72.2803 22.424 73.283 22.0187 74.115 21.272C74.9683 20.504 75.395 19.48 75.395 18.2C75.395 17.5813 75.2883 17.0267 75.075 16.536C74.8617 16.024 74.5523 15.5867 74.147 15.224L68.003 9.528C67.363 8.93067 66.915 8.28 66.659 7.576C66.403 6.85067 66.275 6.17867 66.275 5.56C66.275 4.664 66.4883 3.8 66.915 2.968C67.3417 2.136 67.971 1.464 68.803 0.952C69.6563 0.418666 70.691 0.151999 71.907 0.151999ZM75.907 0.471998V1.144H73.475V0.471998H75.907ZM90.5505 0.151999L100.023 22.808H97.3025L89.9105 3.192L90.5505 0.151999ZM83.6705 20.664C83.5212 21.0907 83.4998 21.4533 83.6065 21.752C83.7132 22.0507 83.8838 22.2853 84.1185 22.456C84.3745 22.6053 84.6305 22.68 84.8865 22.68H85.1745V23H78.7425V22.68C78.7425 22.68 78.7958 22.68 78.9025 22.68C78.9878 22.68 79.0305 22.68 79.0305 22.68C79.5212 22.68 80.0225 22.5307 80.5345 22.232C81.0678 21.912 81.5052 21.3893 81.8465 20.664H83.6705ZM90.5505 0.151999L90.8385 2.392L82.8065 22.904H80.8865L89.0785 3.448C89.0785 3.448 89.1318 3.32 89.2385 3.064C89.3665 2.78667 89.5052 2.456 89.6545 2.072C89.8252 1.688 89.9638 1.31467 90.0705 0.952C90.1985 0.589333 90.2625 0.322666 90.2625 0.151999H90.5505ZM95.0625 14.264V15.224H85.0465V14.264H95.0625ZM96.5025 20.664H99.1265C99.4465 21.3893 99.8732 21.912 100.407 22.232C100.94 22.5307 101.452 22.68 101.943 22.68C101.943 22.68 101.985 22.68 102.071 22.68C102.156 22.68 102.199 22.68 102.199 22.68V23H94.9985V22.68H95.2865C95.6918 22.68 96.0545 22.5093 96.3745 22.168C96.6945 21.8053 96.7372 21.304 96.5025 20.664ZM108.308 0.599998V23H106.228V0.599998H108.308ZM116.948 22.008V23H108.212V22.008H116.948ZM118.9 17.816L117.044 23H111.732L112.884 22.008C114.014 22.008 114.932 21.8373 115.636 21.496C116.361 21.1333 116.948 20.632 117.396 19.992C117.844 19.352 118.238 18.6267 118.58 17.816H118.9ZM106.324 20.664V23H103.764V22.68C103.764 22.68 103.828 22.68 103.956 22.68C104.105 22.68 104.18 22.68 104.18 22.68C104.734 22.68 105.204 22.488 105.588 22.104C105.993 21.6987 106.206 21.2187 106.228 20.664H106.324ZM106.324 2.936H106.228C106.206 2.38133 105.993 1.912 105.588 1.528C105.204 1.12267 104.734 0.919998 104.18 0.919998C104.18 0.919998 104.105 0.919998 103.956 0.919998C103.828 0.919998 103.764 0.919998 103.764 0.919998V0.599998H106.324V2.936ZM108.212 2.936V0.599998H110.772V0.919998C110.75 0.919998 110.676 0.919998 110.548 0.919998C110.42 0.919998 110.356 0.919998 110.356 0.919998C109.801 0.919998 109.321 1.12267 108.916 1.528C108.532 1.912 108.329 2.38133 108.308 2.936H108.212ZM140.976 0.599998V23H138.896V0.599998H140.976ZM125.808 0.599998V23H123.728V0.599998H125.808ZM139.184 11.448V12.408H125.488V11.448H139.184ZM123.824 20.664V23H121.264V22.68C121.264 22.68 121.328 22.68 121.456 22.68C121.605 22.68 121.68 22.68 121.68 22.68C122.234 22.68 122.704 22.488 123.088 22.104C123.493 21.6987 123.706 21.2187 123.728 20.664H123.824ZM123.824 2.936H123.728C123.706 2.38133 123.493 1.912 123.088 1.528C122.704 1.12267 122.234 0.919998 121.68 0.919998C121.68 0.919998 121.605 0.919998 121.456 0.919998C121.328 0.919998 121.264 0.919998 121.264 0.919998V0.599998H123.824V2.936ZM125.712 20.664H125.808C125.829 21.2187 126.032 21.6987 126.416 22.104C126.821 22.488 127.301 22.68 127.856 22.68C127.856 22.68 127.92 22.68 128.048 22.68C128.176 22.68 128.25 22.68 128.272 22.68V23H125.712V20.664ZM125.712 2.936V0.599998H128.272V0.919998C128.25 0.919998 128.176 0.919998 128.048 0.919998C127.92 0.919998 127.856 0.919998 127.856 0.919998C127.301 0.919998 126.821 1.12267 126.416 1.528C126.032 1.912 125.829 2.38133 125.808 2.936H125.712ZM138.992 20.664V23H136.432V22.68C136.453 22.68 136.528 22.68 136.656 22.68C136.784 22.68 136.848 22.68 136.848 22.68C137.402 22.68 137.882 22.488 138.288 22.104C138.693 21.6987 138.896 21.2187 138.896 20.664H138.992ZM138.992 2.936H138.896C138.896 2.38133 138.693 1.912 138.288 1.528C137.882 1.12267 137.402 0.919998 136.848 0.919998C136.848 0.919998 136.784 0.919998 136.656 0.919998C136.528 0.919998 136.453 0.919998 136.432 0.919998V0.599998H138.992V2.936ZM140.88 20.664H140.976C140.997 21.2187 141.2 21.6987 141.584 22.104C141.989 22.488 142.469 22.68 143.024 22.68C143.024 22.68 143.088 22.68 143.216 22.68C143.365 22.68 143.44 22.68 143.44 22.68V23H140.88V20.664ZM140.88 2.936V0.599998H143.44V0.919998C143.44 0.919998 143.365 0.919998 143.216 0.919998C143.088 0.919998 143.024 0.919998 143.024 0.919998C142.469 0.919998 141.989 1.12267 141.584 1.528C141.2 1.912 140.997 2.38133 140.976 2.936H140.88ZM151.839 0.599998V23H149.759V0.599998H151.839ZM160.479 22.008V23H151.743V22.008H160.479ZM159.103 11.48V12.44H151.743V11.48H159.103ZM160.479 0.599998V1.592H151.743V0.599998H160.479ZM162.431 17.816L160.575 23H155.263L156.415 22.008C157.546 22.008 158.463 21.8373 159.167 21.496C159.892 21.1333 160.479 20.632 160.927 19.992C161.375 19.352 161.77 18.6267 162.111 17.816H162.431ZM159.103 12.376V14.488H158.783V14.008C158.783 13.5813 158.634 13.2187 158.335 12.92C158.036 12.6 157.674 12.44 157.247 12.44V12.376H159.103ZM159.103 9.432V11.544H157.247V11.48C157.674 11.4587 158.036 11.2987 158.335 11C158.634 10.68 158.783 10.3067 158.783 9.88V9.432H159.103ZM160.479 1.496V4.056H160.159V3.48C160.159 2.968 159.978 2.53067 159.615 2.168C159.252 1.784 158.804 1.58133 158.271 1.56V1.496H160.479ZM160.479 0.0239983V0.952L156.575 0.599998C157.044 0.599998 157.535 0.567999 158.047 0.504C158.58 0.439999 159.071 0.365332 159.519 0.279999C159.967 0.194665 160.287 0.109332 160.479 0.0239983ZM149.855 20.664V23H147.295V22.68C147.295 22.68 147.359 22.68 147.487 22.68C147.636 22.68 147.711 22.68 147.711 22.68C148.266 22.68 148.735 22.488 149.119 22.104C149.524 21.6987 149.738 21.2187 149.759 20.664H149.855ZM149.855 2.936H149.759C149.759 2.38133 149.556 1.912 149.151 1.528C148.746 1.12267 148.266 0.919998 147.711 0.919998C147.711 0.919998 147.647 0.919998 147.519 0.919998C147.391 0.919998 147.327 0.919998 147.327 0.919998L147.295 0.599998H149.855V2.936ZM171.876 0.151999C172.217 0.151999 172.58 0.173332 172.964 0.216C173.369 0.258666 173.753 0.322666 174.116 0.407999C174.5 0.471999 174.841 0.546666 175.14 0.631998C175.46 0.695999 175.705 0.770665 175.876 0.855999V4.408H175.588C175.588 3.384 175.236 2.584 174.532 2.008C173.828 1.41067 172.974 1.112 171.972 1.112C170.798 1.112 169.849 1.48533 169.124 2.232C168.398 2.95733 168.036 3.81067 168.036 4.792C168.036 5.19733 168.121 5.67733 168.292 6.232C168.484 6.76533 168.825 7.26667 169.316 7.736L175.62 13.56C176.26 14.1573 176.686 14.7973 176.9 15.48C177.113 16.1627 177.22 16.824 177.22 17.464C177.22 19.2347 176.676 20.6747 175.588 21.784C174.521 22.8933 173.07 23.448 171.236 23.448C170.724 23.448 170.116 23.3947 169.412 23.288C168.729 23.1813 168.057 23 167.396 22.744C166.756 22.4667 166.222 22.1147 165.796 21.688C165.732 21.3467 165.7 20.92 165.7 20.408C165.7 19.896 165.742 19.3627 165.828 18.808C165.913 18.232 166.03 17.7093 166.18 17.24H166.468C166.361 18.328 166.5 19.2773 166.884 20.088C167.268 20.8987 167.822 21.5173 168.548 21.944C169.294 22.3493 170.137 22.5307 171.076 22.488C172.249 22.424 173.252 22.0187 174.084 21.272C174.937 20.504 175.364 19.48 175.364 18.2C175.364 17.5813 175.257 17.0267 175.044 16.536C174.83 16.024 174.521 15.5867 174.116 15.224L167.972 9.528C167.332 8.93067 166.884 8.28 166.628 7.576C166.372 6.85067 166.244 6.17867 166.244 5.56C166.244 4.664 166.457 3.8 166.884 2.968C167.31 2.136 167.94 1.464 168.772 0.952C169.625 0.418666 170.66 0.151999 171.876 0.151999ZM175.876 0.471998V1.144H173.444V0.471998H175.876Z" fill="white"/>
</svg>
