<svg width="190" height="15" viewBox="0 0 190 15" fill="none" xmlns="http://www.w3.org/2000/svg">
<path d="M2.87 11.5L0.21 2.022L1.526 1.602L3.738 10.086L5.824 2.722H7.49L9.562 10.086L11.76 1.644L12.992 2.022L10.346 11.5H8.694L6.622 4.136L4.522 11.5H2.87ZM14.327 11.5V1.14H15.587V5.382C15.8484 4.99933 16.1797 4.682 16.581 4.43C16.9824 4.178 17.4537 4.052 17.995 4.052C18.8164 4.052 19.4277 4.29933 19.829 4.794C20.2397 5.28867 20.445 5.942 20.445 6.754V11.5H19.185V6.894C19.185 6.37133 19.0637 5.95133 18.821 5.634C18.5784 5.31667 18.2377 5.158 17.799 5.158C17.3697 5.158 16.959 5.312 16.567 5.62C16.1844 5.91867 15.8577 6.27333 15.587 6.684V11.5H14.327ZM25.3982 11.668C24.7915 11.668 24.2409 11.514 23.7462 11.206C23.2515 10.898 22.8549 10.464 22.5562 9.904C22.2669 9.33467 22.1222 8.66733 22.1222 7.902C22.1222 7.174 22.2669 6.52067 22.5562 5.942C22.8549 5.36333 23.2609 4.906 23.7742 4.57C24.2969 4.22467 24.8942 4.052 25.5662 4.052C25.9862 4.052 26.3642 4.12667 26.7002 4.276C27.0455 4.416 27.3442 4.59333 27.5962 4.808V4.22H28.7442V9.736C28.7442 10.0907 28.8282 10.324 28.9962 10.436C29.1735 10.5387 29.3649 10.59 29.5702 10.59L29.3042 11.57C28.4082 11.57 27.8669 11.206 27.6802 10.478C27.4655 10.7767 27.1715 11.052 26.7982 11.304C26.4342 11.5467 25.9675 11.668 25.3982 11.668ZM25.6782 10.548C26.0329 10.548 26.3689 10.464 26.6862 10.296C27.0035 10.1187 27.2695 9.89933 27.4842 9.638V5.732C27.2322 5.55467 26.9522 5.41467 26.6442 5.312C26.3455 5.2 26.0282 5.144 25.6922 5.144C25.2442 5.144 24.8475 5.26067 24.5022 5.494C24.1662 5.718 23.9002 6.03533 23.7042 6.446C23.5082 6.84733 23.4102 7.31867 23.4102 7.86C23.4102 8.38267 23.5082 8.84933 23.7042 9.26C23.9002 9.66133 24.1709 9.97867 24.5162 10.212C24.8615 10.436 25.2489 10.548 25.6782 10.548ZM33.8008 11.668C33.1008 11.668 32.5455 11.4393 32.1348 10.982C31.7335 10.5153 31.5328 9.85267 31.5328 8.994V5.578H30.2728V4.486H31.5608L31.8268 2.19H32.7928V4.486H34.8088V5.578H32.7928V9.092C32.7928 9.63333 32.9048 10.0113 33.1288 10.226C33.3621 10.4407 33.6375 10.548 33.9548 10.548C34.1881 10.548 34.4075 10.5107 34.6128 10.436C34.8275 10.3613 35.0235 10.2727 35.2008 10.17L35.5508 11.178C35.3641 11.29 35.1121 11.3973 34.7948 11.5C34.4775 11.612 34.1461 11.668 33.8008 11.668ZM38.914 11.668C38.3633 11.668 37.864 11.598 37.416 11.458C36.9773 11.318 36.6133 11.136 36.324 10.912L36.856 9.862C37.0987 10.0673 37.402 10.24 37.766 10.38C38.1393 10.5107 38.536 10.576 38.956 10.576C39.4787 10.576 39.8707 10.492 40.132 10.324C40.4027 10.1467 40.538 9.92267 40.538 9.652C40.538 9.456 40.4867 9.28333 40.384 9.134C40.2907 8.98467 40.1133 8.84 39.852 8.7C39.5907 8.55067 39.2127 8.392 38.718 8.224C38.0367 7.99067 37.5233 7.71533 37.178 7.398C36.842 7.07133 36.674 6.62333 36.674 6.054C36.674 5.494 36.9167 5.02267 37.402 4.64C37.8967 4.248 38.578 4.052 39.446 4.052C39.9127 4.052 40.328 4.10333 40.692 4.206C41.056 4.29933 41.3827 4.42067 41.672 4.57L41.322 5.606C41.07 5.45667 40.7807 5.33533 40.454 5.242C40.1367 5.14867 39.782 5.102 39.39 5.102C38.9047 5.102 38.536 5.2 38.284 5.396C38.032 5.592 37.906 5.80667 37.906 6.04C37.906 6.264 38.004 6.45533 38.2 6.614C38.396 6.77267 38.7787 6.94533 39.348 7.132C40.272 7.44 40.916 7.78067 41.28 8.154C41.644 8.52733 41.826 8.994 41.826 9.554C41.826 10.2073 41.56 10.7253 41.028 11.108C40.5053 11.4813 39.8007 11.668 38.914 11.668ZM50.3768 11.64L49.2848 8.84H44.7488L43.6568 11.612L42.5228 11.15L46.3588 1.7H47.8148L51.5948 11.15L50.3768 11.64ZM45.1688 7.72H48.8508L47.0168 3.016L45.1688 7.72ZM53.1204 14.58V6.082C53.1204 5.76467 53.041 5.54067 52.8824 5.41C52.733 5.27 52.537 5.2 52.2944 5.2L52.5604 4.22C53.419 4.22 53.9557 4.56067 54.1704 5.242C54.2637 5.102 54.413 4.93867 54.6184 4.752C54.833 4.56533 55.0944 4.402 55.4024 4.262C55.7197 4.122 56.079 4.052 56.4804 4.052C57.0404 4.052 57.563 4.20133 58.0484 4.5C58.543 4.78933 58.9397 5.214 59.2384 5.774C59.537 6.32467 59.6864 6.99667 59.6864 7.79C59.6864 8.56467 59.537 9.246 59.2384 9.834C58.9397 10.4127 58.5477 10.8653 58.0624 11.192C57.5864 11.5093 57.0684 11.668 56.5084 11.668C56.079 11.668 55.6777 11.584 55.3044 11.416C54.931 11.2387 54.623 11.038 54.3804 10.814V14.58H53.1204ZM56.2564 10.548C56.891 10.548 57.4044 10.3007 57.7964 9.806C58.1977 9.302 58.3984 8.644 58.3984 7.832C58.3984 7.272 58.2957 6.79133 58.0904 6.39C57.8944 5.98867 57.6284 5.68067 57.2924 5.466C56.9657 5.25133 56.6017 5.144 56.2004 5.144C55.799 5.144 55.435 5.24667 55.1084 5.452C54.791 5.648 54.5484 5.86267 54.3804 6.096V9.68C54.623 9.932 54.903 10.142 55.2204 10.31C55.5377 10.4687 55.883 10.548 56.2564 10.548ZM61.4329 14.58V6.082C61.4329 5.76467 61.3535 5.54067 61.1949 5.41C61.0455 5.27 60.8495 5.2 60.6069 5.2L60.8729 4.22C61.7315 4.22 62.2682 4.56067 62.4829 5.242C62.5762 5.102 62.7255 4.93867 62.9309 4.752C63.1455 4.56533 63.4069 4.402 63.7149 4.262C64.0322 4.122 64.3915 4.052 64.7929 4.052C65.3529 4.052 65.8755 4.20133 66.3609 4.5C66.8555 4.78933 67.2522 5.214 67.5509 5.774C67.8495 6.32467 67.9989 6.99667 67.9989 7.79C67.9989 8.56467 67.8495 9.246 67.5509 9.834C67.2522 10.4127 66.8602 10.8653 66.3749 11.192C65.8989 11.5093 65.3809 11.668 64.8209 11.668C64.3915 11.668 63.9902 11.584 63.6169 11.416C63.2435 11.2387 62.9355 11.038 62.6929 10.814V14.58H61.4329ZM64.5689 10.548C65.2035 10.548 65.7169 10.3007 66.1089 9.806C66.5102 9.302 66.7109 8.644 66.7109 7.832C66.7109 7.272 66.6082 6.79133 66.4029 6.39C66.2069 5.98867 65.9409 5.68067 65.6049 5.466C65.2782 5.25133 64.9142 5.144 64.5129 5.144C64.1115 5.144 63.7475 5.24667 63.4209 5.452C63.1035 5.648 62.8609 5.86267 62.6929 6.096V9.68C62.9355 9.932 63.2155 10.142 63.5329 10.31C63.8502 10.4687 64.1955 10.548 64.5689 10.548ZM70.7328 5.928C70.4808 5.928 70.2615 5.83467 70.0748 5.648C69.8881 5.46133 69.7948 5.242 69.7948 4.99C69.7948 4.70067 69.8788 4.472 70.0468 4.304C70.2148 4.136 70.4435 4.052 70.7328 4.052C70.9755 4.052 71.1901 4.14533 71.3768 4.332C71.5728 4.51867 71.6708 4.738 71.6708 4.99C71.6708 5.27 71.5821 5.49867 71.4048 5.676C71.2275 5.844 71.0035 5.928 70.7328 5.928ZM70.7328 11.668C70.4808 11.668 70.2615 11.5747 70.0748 11.388C69.8881 11.2013 69.7948 10.982 69.7948 10.73C69.7948 10.4407 69.8788 10.212 70.0468 10.044C70.2148 9.876 70.4435 9.792 70.7328 9.792C70.9755 9.792 71.1901 9.88533 71.3768 10.072C71.5728 10.2587 71.6708 10.478 71.6708 10.73C71.6708 11.01 71.5821 11.2387 71.4048 11.416C71.2275 11.584 71.0035 11.668 70.7328 11.668ZM79.6733 13.222C79.0947 12.1953 78.642 11.178 78.3153 10.17C77.9887 9.15267 77.8253 8.10267 77.8253 7.02C77.8253 5.85333 77.9887 4.77533 78.3153 3.786C78.6513 2.78733 79.104 1.798 79.6733 0.818L80.4153 1.238C80.07 2.022 79.7713 2.89933 79.5193 3.87C79.2767 4.83133 79.1553 5.88133 79.1553 7.02C79.1553 8.14933 79.2767 9.19467 79.5193 10.156C79.7713 11.1173 80.07 11.9993 80.4153 12.802L79.6733 13.222ZM83.2406 11.5V10.38H85.2426V3.31L83.3666 4.724L82.6806 3.786L85.5786 1.7H86.5026V10.38H88.1686V11.5H83.2406ZM91.6351 11.5V10.38H93.6371V3.31L91.7611 4.724L91.0751 3.786L93.9731 1.7H94.8971V10.38H96.5631V11.5H91.6351ZM99.5677 13.222L98.8257 12.802C99.1803 11.9993 99.479 11.1173 99.7217 10.156C99.9643 9.19467 100.086 8.14933 100.086 7.02C100.086 5.88133 99.9643 4.83133 99.7217 3.87C99.479 2.89933 99.1803 2.022 98.8257 1.238L99.5677 0.818C100.146 1.798 100.599 2.78733 100.926 3.786C101.252 4.77533 101.416 5.85333 101.416 7.02C101.416 8.10267 101.252 9.15267 100.926 10.17C100.599 11.178 100.146 12.1953 99.5677 13.222ZM110.104 11.668C109.563 11.668 109.078 11.5747 108.648 11.388C108.219 11.192 107.827 10.9213 107.472 10.576L108.298 9.638C108.858 10.226 109.484 10.52 110.174 10.52C110.557 10.52 110.912 10.394 111.238 10.142C111.565 9.88067 111.826 9.47467 112.022 8.924C112.228 8.37333 112.33 7.664 112.33 6.796C112.041 7.05733 111.719 7.27667 111.364 7.454C111.01 7.63133 110.627 7.72 110.216 7.72C109.722 7.72 109.25 7.608 108.802 7.384C108.364 7.15067 108.004 6.81467 107.724 6.376C107.454 5.928 107.318 5.37733 107.318 4.724C107.318 4.136 107.449 3.59933 107.71 3.114C107.981 2.62867 108.354 2.246 108.83 1.966C109.306 1.67667 109.857 1.532 110.482 1.532C110.968 1.532 111.383 1.60667 111.728 1.756C112.074 1.90533 112.363 2.10133 112.596 2.344C112.82 2.57733 113.007 2.85267 113.156 3.17C113.315 3.478 113.432 3.88867 113.506 4.402C113.581 4.906 113.618 5.564 113.618 6.376C113.618 7.61733 113.464 8.63 113.156 9.414C112.848 10.1887 112.428 10.758 111.896 11.122C111.374 11.486 110.776 11.668 110.104 11.668ZM110.426 6.684C110.781 6.684 111.122 6.59533 111.448 6.418C111.784 6.24067 112.078 6.026 112.33 5.774V5.354C112.33 4.46733 112.158 3.79533 111.812 3.338C111.476 2.88067 111.019 2.652 110.44 2.652C109.908 2.652 109.456 2.83867 109.082 3.212C108.718 3.576 108.536 4.06133 108.536 4.668C108.536 5.088 108.625 5.452 108.802 5.76C108.98 6.05867 109.208 6.28733 109.488 6.446C109.778 6.60467 110.09 6.684 110.426 6.684ZM118.499 11.668C117.957 11.668 117.472 11.5747 117.043 11.388C116.613 11.192 116.221 10.9213 115.867 10.576L116.693 9.638C117.253 10.226 117.878 10.52 118.569 10.52C118.951 10.52 119.306 10.394 119.633 10.142C119.959 9.88067 120.221 9.47467 120.417 8.924C120.622 8.37333 120.725 7.664 120.725 6.796C120.435 7.05733 120.113 7.27667 119.759 7.454C119.404 7.63133 119.021 7.72 118.611 7.72C118.116 7.72 117.645 7.608 117.197 7.384C116.758 7.15067 116.399 6.81467 116.119 6.376C115.848 5.928 115.713 5.37733 115.713 4.724C115.713 4.136 115.843 3.59933 116.105 3.114C116.375 2.62867 116.749 2.246 117.225 1.966C117.701 1.67667 118.251 1.532 118.877 1.532C119.362 1.532 119.777 1.60667 120.123 1.756C120.468 1.90533 120.757 2.10133 120.991 2.344C121.215 2.57733 121.401 2.85267 121.551 3.17C121.709 3.478 121.826 3.88867 121.901 4.402C121.975 4.906 122.013 5.564 122.013 6.376C122.013 7.61733 121.859 8.63 121.551 9.414C121.243 10.1887 120.823 10.758 120.291 11.122C119.768 11.486 119.171 11.668 118.499 11.668ZM118.821 6.684C119.175 6.684 119.516 6.59533 119.843 6.418C120.179 6.24067 120.473 6.026 120.725 5.774V5.354C120.725 4.46733 120.552 3.79533 120.207 3.338C119.871 2.88067 119.413 2.652 118.835 2.652C118.303 2.652 117.85 2.83867 117.477 3.212C117.113 3.576 116.931 4.06133 116.931 4.668C116.931 5.088 117.019 5.452 117.197 5.76C117.374 6.05867 117.603 6.28733 117.883 6.446C118.172 6.60467 118.485 6.684 118.821 6.684ZM126.893 11.668C126.352 11.668 125.867 11.5747 125.437 11.388C125.008 11.192 124.616 10.9213 124.261 10.576L125.087 9.638C125.647 10.226 126.273 10.52 126.963 10.52C127.346 10.52 127.701 10.394 128.027 10.142C128.354 9.88067 128.615 9.47467 128.811 8.924C129.017 8.37333 129.119 7.664 129.119 6.796C128.83 7.05733 128.508 7.27667 128.153 7.454C127.799 7.63133 127.416 7.72 127.005 7.72C126.511 7.72 126.039 7.608 125.591 7.384C125.153 7.15067 124.793 6.81467 124.513 6.376C124.243 5.928 124.107 5.37733 124.107 4.724C124.107 4.136 124.238 3.59933 124.499 3.114C124.77 2.62867 125.143 2.246 125.619 1.966C126.095 1.67667 126.646 1.532 127.271 1.532C127.757 1.532 128.172 1.60667 128.517 1.756C128.863 1.90533 129.152 2.10133 129.385 2.344C129.609 2.57733 129.796 2.85267 129.945 3.17C130.104 3.478 130.221 3.88867 130.295 4.402C130.37 4.906 130.407 5.564 130.407 6.376C130.407 7.61733 130.253 8.63 129.945 9.414C129.637 10.1887 129.217 10.758 128.685 11.122C128.163 11.486 127.565 11.668 126.893 11.668ZM127.215 6.684C127.57 6.684 127.911 6.59533 128.237 6.418C128.573 6.24067 128.867 6.026 129.119 5.774V5.354C129.119 4.46733 128.947 3.79533 128.601 3.338C128.265 2.88067 127.808 2.652 127.229 2.652C126.697 2.652 126.245 2.83867 125.871 3.212C125.507 3.576 125.325 4.06133 125.325 4.668C125.325 5.088 125.414 5.452 125.591 5.76C125.769 6.05867 125.997 6.28733 126.277 6.446C126.567 6.60467 126.879 6.684 127.215 6.684ZM133.608 11.5V10.38H135.61V3.31L133.734 4.724L133.048 3.786L135.946 1.7H136.87V10.38H138.536V11.5H133.608ZM144.172 11.668C143.08 11.668 142.25 11.2247 141.68 10.338C141.111 9.442 140.826 8.19133 140.826 6.586C140.826 4.97133 141.116 3.72533 141.694 2.848C142.282 1.97067 143.118 1.532 144.2 1.532C145.292 1.532 146.123 1.97533 146.692 2.862C147.262 3.74867 147.546 4.99933 147.546 6.614C147.546 8.22867 147.252 9.47467 146.664 10.352C146.086 11.2293 145.255 11.668 144.172 11.668ZM144.186 10.52C144.606 10.52 144.966 10.3987 145.264 10.156C145.572 9.904 145.806 9.49333 145.964 8.924C146.132 8.35467 146.216 7.58933 146.216 6.628C146.216 5.34 146.034 4.36 145.67 3.688C145.316 3.016 144.821 2.68 144.186 2.68C143.766 2.68 143.402 2.806 143.094 3.058C142.796 3.30067 142.562 3.70667 142.394 4.276C142.236 4.836 142.156 5.60133 142.156 6.572C142.156 7.86 142.334 8.84 142.688 9.512C143.052 10.184 143.552 10.52 144.186 10.52ZM150.201 7.272V6.124H154.961V7.272H150.201ZM161.045 11.668C160.336 11.668 159.72 11.5467 159.197 11.304C158.675 11.0613 158.269 10.7347 157.979 10.324C157.699 9.904 157.559 9.442 157.559 8.938C157.559 8.33133 157.723 7.804 158.049 7.356C158.385 6.908 158.908 6.53 159.617 6.222C159.123 5.95133 158.74 5.63867 158.469 5.284C158.208 4.92 158.077 4.472 158.077 3.94C158.077 3.464 158.203 3.04867 158.455 2.694C158.707 2.33 159.048 2.04533 159.477 1.84C159.916 1.63467 160.401 1.532 160.933 1.532C161.512 1.532 162.021 1.63933 162.459 1.854C162.898 2.05933 163.239 2.344 163.481 2.708C163.733 3.072 163.859 3.478 163.859 3.926C163.859 4.49533 163.715 4.95733 163.425 5.312C163.136 5.66667 162.749 5.96533 162.263 6.208C162.954 6.49733 163.481 6.86133 163.845 7.3C164.209 7.72933 164.391 8.24733 164.391 8.854C164.391 9.414 164.247 9.90867 163.957 10.338C163.668 10.758 163.271 11.0847 162.767 11.318C162.263 11.5513 161.689 11.668 161.045 11.668ZM161.115 5.746C161.526 5.606 161.881 5.39133 162.179 5.102C162.487 4.81267 162.641 4.46267 162.641 4.052C162.641 3.62267 162.478 3.268 162.151 2.988C161.825 2.708 161.419 2.568 160.933 2.568C160.457 2.568 160.065 2.694 159.757 2.946C159.449 3.18867 159.295 3.51067 159.295 3.912C159.295 4.31333 159.459 4.67733 159.785 5.004C160.121 5.33067 160.565 5.578 161.115 5.746ZM161.059 10.548C161.657 10.548 162.147 10.394 162.529 10.086C162.912 9.76867 163.103 9.36733 163.103 8.882C163.103 8.434 162.903 8.03267 162.501 7.678C162.109 7.32333 161.563 7.02 160.863 6.768C160.509 6.852 160.177 6.98267 159.869 7.16C159.561 7.33733 159.314 7.55667 159.127 7.818C158.941 8.07933 158.847 8.378 158.847 8.714C158.847 9.05933 158.941 9.372 159.127 9.652C159.323 9.932 159.589 10.1513 159.925 10.31C160.261 10.4687 160.639 10.548 161.059 10.548ZM167.9 11.5C167.9 10.4267 167.97 9.47467 168.11 8.644C168.259 7.804 168.469 7.048 168.74 6.376C169.02 5.704 169.365 5.08333 169.776 4.514C170.187 3.94467 170.658 3.38933 171.19 2.848H166.472V1.7H172.688V2.708C172.044 3.33333 171.507 3.94467 171.078 4.542C170.649 5.13 170.303 5.75533 170.042 6.418C169.781 7.07133 169.594 7.81333 169.482 8.644C169.37 9.46533 169.314 10.4173 169.314 11.5H167.9ZM178.646 11.5V9.414H174.46V8.406L177.386 1.602L178.478 2.064L175.832 8.266H178.646V5.48H179.906V8.266H181.068V9.414H179.906V11.5H178.646ZM186.215 11.668C185.627 11.668 185.081 11.5233 184.577 11.234C184.082 10.9353 183.686 10.478 183.387 9.862C183.088 9.246 182.939 8.46667 182.939 7.524C182.939 6.73067 183.042 5.984 183.247 5.284C183.462 4.57467 183.779 3.94933 184.199 3.408C184.628 2.86667 185.156 2.442 185.781 2.134C186.406 1.826 187.134 1.672 187.965 1.672C188.049 1.672 188.138 1.67667 188.231 1.686C188.334 1.686 188.422 1.69067 188.497 1.7V2.848C188.422 2.83867 188.338 2.834 188.245 2.834C188.152 2.82467 188.063 2.82 187.979 2.82C186.962 2.82 186.122 3.13267 185.459 3.758C184.806 4.374 184.404 5.22333 184.255 6.306C184.516 6.054 184.852 5.82533 185.263 5.62C185.674 5.40533 186.14 5.298 186.663 5.298C187.186 5.298 187.652 5.41933 188.063 5.662C188.474 5.90467 188.796 6.24533 189.029 6.684C189.272 7.11333 189.393 7.62667 189.393 8.224C189.393 8.90533 189.253 9.50733 188.973 10.03C188.702 10.5433 188.329 10.9447 187.853 11.234C187.377 11.5233 186.831 11.668 186.215 11.668ZM186.271 10.52C186.831 10.52 187.279 10.3147 187.615 9.904C187.96 9.49333 188.133 8.98467 188.133 8.378C188.133 7.77133 187.97 7.28133 187.643 6.908C187.316 6.53467 186.882 6.348 186.341 6.348C185.94 6.348 185.557 6.446 185.193 6.642C184.829 6.838 184.507 7.09933 184.227 7.426V7.734C184.246 8.61133 184.446 9.29733 184.829 9.792C185.221 10.2773 185.702 10.52 186.271 10.52Z" fill="white"/>
</svg>
